<?xml version="1.0" standalone="no"?>
<!DOCTYPE svg PUBLIC "-//W3C//DTD SVG 20010904//EN"
 "http://www.w3.org/TR/2001/REC-SVG-20010904/DTD/svg10.dtd">
<svg version="1.0" xmlns="http://www.w3.org/2000/svg"
 width="414.000000pt" height="414.000000pt" viewBox="0 0 414.000000 414.000000"
 preserveAspectRatio="xMidYMid meet">
<metadata>
Created by potrace 1.11, written by Peter Selinger 2001-2013
</metadata>
<g transform="translate(0.000000,414.000000) scale(0.100000,-0.100000)"
fill="#000000" stroke="none">
<path d="M2730 4071 c-34 -8 -70 -33 -70 -48 0 -7 -4 -13 -9 -13 -6 0 -8 -10
-5 -22 11 -52 11 -70 -3 -81 -8 -7 -28 -24 -44 -39 -16 -16 -34 -28 -38 -28
-5 0 -12 -7 -15 -16 -3 -8 -10 -12 -16 -9 -5 3 -10 -1 -10 -9 0 -9 -6 -16 -13
-16 -7 0 -26 -13 -42 -30 -16 -16 -33 -30 -37 -30 -5 0 -20 -12 -34 -27 -14
-16 -23 -21 -19 -13 6 13 5 13 -7 0 -7 -8 -32 -30 -54 -48 -47 -36 -87 -41
-117 -15 -15 14 -38 18 -125 18 -92 0 -113 -3 -150 -23 -41 -21 -44 -22 -67
-5 -13 10 -25 22 -25 26 0 5 -4 6 -8 3 -5 -3 -25 10 -45 28 -21 19 -37 32 -37
29 0 -2 -10 6 -22 17 -13 12 -38 30 -55 41 -18 12 -33 25 -33 30 0 5 -4 9 -10
9 -5 0 -23 12 -39 28 -16 15 -48 42 -70 60 -38 31 -41 37 -35 68 16 89 -67
144 -147 97 -28 -17 -33 -30 -30 -83 4 -67 56 -98 127 -75 23 7 40 -6 129 -92
23 -24 49 -43 56 -43 7 0 10 -3 6 -6 -7 -8 22 -39 37 -39 6 -1 10 -6 9 -13 -2
-7 1 -12 5 -12 13 0 142 -127 142 -139 0 -23 -65 -101 -84 -102 -12 -1 -59 -2
-106 -4 -78 -2 -329 -12 -545 -21 -49 -2 -90 -4 -90 -5 0 -2 -47 -7 -135 -13
-154 -10 -224 -18 -248 -27 -13 -5 -40 -9 -60 -9 -59 0 -228 -46 -263 -72 -51
-36 -103 -90 -129 -133 -14 -22 -25 -42 -25 -45 0 -3 -5 -18 -12 -35 -15 -40
-36 -192 -47 -345 -22 -290 -33 -1002 -21 -1300 9 -223 17 -388 20 -416 2 -16
6 -67 10 -114 21 -271 79 -395 217 -466 27 -13 50 -24 53 -23 12 3 132 -23
145 -31 22 -14 9 -19 -61 -25 -35 -4 -69 -12 -74 -19 -6 -7 -20 -16 -33 -20
-12 -4 -22 -14 -22 -21 0 -8 -12 -21 -27 -28 -31 -17 -27 -18 62 -37 163 -34
279 -49 425 -54 375 -14 427 -16 465 -22 115 -18 1606 -9 1829 10 33 3 147 8
251 12 105 3 195 10 200 14 6 5 59 10 118 12 59 2 107 6 107 11 0 4 12 7 28 8
15 0 49 8 76 18 l49 17 -54 24 c-30 12 -62 22 -71 21 -9 -1 -23 7 -30 18 -7
12 -18 21 -25 21 -7 0 -13 5 -13 10 0 6 -13 10 -30 10 -16 0 -30 4 -30 9 0 6
41 18 160 46 64 16 70 19 131 80 73 73 110 162 125 300 3 33 8 67 9 75 2 8 6
56 10 105 4 50 9 106 11 125 17 168 24 1001 11 1300 -15 330 -39 594 -59 660
-28 92 -120 220 -158 220 -5 0 -10 4 -10 9 0 13 -122 50 -203 62 -40 5 -99 14
-132 20 -181 28 -491 48 -1020 64 -55 2 -108 4 -117 4 -10 1 -18 6 -18 12 0 6
-11 25 -25 43 -14 18 -25 37 -25 42 0 5 41 47 92 94 50 47 110 103 133 125
126 120 135 127 168 122 47 -7 103 19 117 54 25 60 -39 144 -100 130z"/>
</g>
</svg>
