<svg xmlns="http://www.w3.org/2000/svg" width="1000" height="312.294"><g font-size="25.05" font-weight="700" font-family="Helvetica #000"><path d="M59.296 86.479c7.289-.237 13.207.443 17.755 2.037 4.548 1.595 6.892 5.524 7.03 11.788-.118 5.442-1.977 9.104-5.576 10.987-3.599 1.883-8.222 2.76-13.87 2.631h-19.64V86.48zm1.525-51.792c4.933-.232 9.176.284 12.727 1.548 3.55 1.264 5.41 4.668 5.577 10.214-.084 4.333-1.538 7.583-4.362 9.75-2.824 2.166-6.518 3.25-11.082 3.25H44.996V34.686zm6.101 113.9c18.061.211 32.37-3.099 42.923-9.93 10.554-6.83 15.948-18.446 16.183-34.846-.024-8.202-1.979-15.372-5.863-21.51-3.885-6.14-9.557-10.318-17.017-12.536 4.584-3.013 8.667-7.252 12.25-12.716 3.583-5.463 5.474-12.023 5.672-19.68-.381-14.465-5.767-24.377-16.158-29.738C94.52 2.27 81.412-.266 65.588.022H0v148.565zm104.436 0V.022H131.7v148.565zm62.207-82.33c5.049-.128 9.011 2.348 11.887 7.429 2.875 5.08 4.34 11.684 4.394 19.808-.047 10.158-1.527 17.595-4.44 22.311-2.915 4.716-6.985 7.046-12.211 6.99-4.984.056-8.985-2.274-12.002-6.99-3.018-4.716-4.568-12.153-4.649-22.31-.112-6.462 1.083-12.523 3.585-18.184 2.501-5.662 6.98-8.68 13.436-9.054zm-55.502 29.507c.354 18.49 5.658 32.426 15.91 41.81 10.253 9.384 23.327 14.087 39.222 14.109 15.895.051 28.969-4.695 39.221-14.238 10.253-9.543 15.556-24.193 15.911-43.95-.166-17.054-5.107-30.612-14.824-40.676-9.717-10.063-23.214-15.213-40.493-15.45-16.616.087-29.867 5.125-39.753 15.115-9.887 9.99-14.951 24.417-15.194 43.28zm170.498-29.507c4.998-.128 8.92 2.348 11.766 7.429 2.846 5.08 4.295 11.684 4.349 19.808-.047 10.158-1.511 17.595-4.395 22.311-2.884 4.716-6.913 7.046-12.086 6.99-4.933.056-8.893-2.274-11.88-6.99s-4.521-12.153-4.601-22.31c-.11-6.462 1.072-12.523 3.548-18.184 2.476-5.662 6.909-8.68 13.3-9.054zm-54.936 29.507c.35 18.49 5.6 32.426 15.748 41.81s23.089 14.087 38.822 14.109c15.733.051 28.674-4.695 38.822-14.238 10.148-9.543 15.397-24.193 15.748-43.95-.164-17.054-5.055-30.612-14.672-40.676-9.618-10.063-22.978-15.213-40.081-15.45-16.447.087-29.563 5.125-39.349 15.115-9.785 9.99-14.798 24.417-15.038 43.28zm115.783 52.823h38.502V95.145c-.143-6.684.698-12.299 2.522-16.842 1.824-4.544 5.488-6.908 10.99-7.093 4.995-.065 8.427 1.663 10.297 5.184 1.87 3.52 2.757 9.22 2.661 17.1v55.093h38.502V95.145c-.142-6.684.698-12.299 2.522-16.842 1.824-4.544 5.488-6.908 10.991-7.093 4.994-.065 8.426 1.663 10.297 5.184 1.87 3.52 2.757 9.22 2.66 17.1v55.093h38.503V84.622c.22-14.878-2.441-26.442-7.983-34.691-5.542-8.25-15.283-12.437-29.224-12.561-7.111.013-13.435 1.69-18.973 5.03-5.538 3.34-10.382 8.266-14.531 14.778-2.256-5.88-5.935-10.626-11.037-14.237-5.102-3.611-11.974-5.468-20.616-5.571-7.054.284-13.309 2.45-18.765 6.5-5.457 4.049-9.445 8.279-11.963 12.69V40.464h-35.355zM627.046.022h-38.76v148.565h34.846v-15.269h.373c2.357 5.28 5.936 9.63 10.738 13.051 4.802 3.422 11.223 5.193 19.263 5.314 15.781-.409 27.125-6.04 34.031-16.895 6.907-10.854 10.284-24.481 10.133-40.88-.21-16.62-4.17-30.118-11.88-40.495-7.71-10.377-17.912-15.725-30.606-16.043-5.75-.035-10.929 1.066-15.537 3.301-4.608 2.236-8.809 5.812-12.601 10.73zm15.466 120.71c-6.227-.37-10.544-3.293-12.95-8.77-2.408-5.477-3.557-11.289-3.448-17.436-.05-5.872 1.215-11.254 3.797-16.146 2.581-4.892 6.782-7.488 12.601-7.79 6.146.31 10.44 2.993 12.881 8.048 2.442 5.055 3.614 10.626 3.517 16.713.109 6.204-1.04 11.904-3.447 17.101-2.407 5.197-6.724 7.957-12.95 8.28zm97.431-38.38c.03-5.838 1.554-10.412 4.571-13.722 3.017-3.31 7.347-4.995 12.989-5.055 4.574.163 8.459 2.055 11.653 5.674 3.195 3.62 4.862 7.988 5.001 13.103zm71.868 21.872c.11-19.937-4.726-35.98-14.505-48.129-9.78-12.148-23.53-18.39-41.252-18.725-15.545.206-28.308 5.468-38.287 15.785S702.63 77.606 702.29 95.558c.347 18.227 5.537 32.12 15.569 41.68 10.032 9.561 22.824 14.376 38.377 14.445 11.443.189 22.139-2.408 32.088-7.79 9.948-5.382 16.752-14.684 20.41-27.907H772.71c-1.403 3.194-3.35 5.575-5.838 7.144-2.49 1.57-5.25 2.352-8.282 2.347-5.133-.086-9.485-2.029-13.057-5.829-3.571-3.8-5.434-8.941-5.59-15.424zm7.667 44.363h38.448v-43.901c.004-11.516 1.942-19.693 5.816-24.529 3.873-4.836 9.658-7.183 17.356-7.041 1.274.025 3.863-.018 5.183.265 1.32.284 5.397.74 6.672.973V39.726c-.814-.364-4.707-.716-5.522-.734-1.013-.043-2.622.079-3.437.066-7.301-.017-13.336 2.029-18.103 6.138-4.767 4.11-8.448 8.698-11.042 17.141h-.363V42.451h-35.008zM946.37 68.114c6.07.224 11.047 2.614 13.526 7.17 2.48 4.558 3.677 9.94 3.591 16.147.061 6.023-1.181 11.259-3.73 15.708-2.55 4.449-7.48 6.641-13.388 6.577-5.207-.297-9.062-2.49-11.565-6.577-2.503-4.088-3.747-8.912-3.731-14.47-.097-7.175.983-13.047 3.241-17.616 2.258-4.57 6.276-6.883 12.055-6.939zm-51.207 80.087c.78 8.249 9.16 21.386 17.193 27.494 8.033 6.109 20.6 9.316 37.704 9.621 15.787-.113 25.778-2.707 33.15-7.78 7.371-5.073 12.07-11.946 14.094-20.619 2.024-8.672 2.909-18.464 2.653-29.376V41.869h-35.919v12.833c-3.52-5.326-6.173-8.126-11.326-11.208-5.153-3.082-10.422-4.796-16.368-4.86-15.856.623-25.737 6.444-32.453 17.461-6.715 11.018-9.98 22.23-9.793 36.161.081 14.23 3.789 26.214 11.122 35.955 7.334 9.741 17.803 14.814 31.41 15.218 6.936-.103 12.65-1.29 17.138-3.56 4.489-2.27 6.315-5.003 9.055-8.202v8.873c.054 8.543-2.159 10.806-4.63 14.043-2.472 3.237-5.688 3.619-11.238 3.528-1.959-.008-5.326-.15-6.725-.622-1.399-.473-3.312-1.822-4.152-2.656-.835-.842-2.74-2.777-3.133-3.62-.392-.842-1.282-2.376-1.278-3.012z" style="text-align:start"/><g style="text-align:start"><path d="M1.17 195.097h39.065v114.064H83.72V195.097h39.065v-35.213H1.17z" style="text-align:start"/><path d="M140.57 242.608c.029-5.865 1.519-10.461 4.47-13.787 2.95-3.326 7.183-5.02 12.7-5.08 4.474.164 8.273 2.065 11.397 5.702 3.123 3.637 4.754 8.025 4.89 13.165zm70.278 21.977c.107-20.033-4.621-36.153-14.184-48.36-9.563-12.206-23.01-18.478-40.34-18.815-15.201.208-27.682 5.495-37.44 15.861-9.759 10.367-14.804 24.569-15.136 42.606.34 18.315 5.414 32.275 15.224 41.881 9.81 9.606 22.32 14.444 37.53 14.513 11.189.19 21.648-2.419 31.377-7.827 9.73-5.407 16.382-14.755 19.96-28.041H172.61c-1.372 3.21-3.275 5.602-5.71 7.179-2.433 1.576-5.133 2.363-8.098 2.358-5.02-.086-9.275-2.039-12.768-5.857-3.493-3.818-5.314-8.984-5.466-15.498zm47.499 44.576V159.884h-36.82V309.16zm46.837-65.107c.03-5.744 1.564-10.245 4.602-13.502 3.038-3.256 7.398-4.915 13.079-4.974 4.606.161 8.517 2.022 11.734 5.583 3.216 3.562 4.894 7.86 5.035 12.893zm72.364 21.52c.11-19.617-4.759-35.402-14.605-47.356-9.847-11.953-23.693-18.094-41.537-18.424-15.653.203-28.503 5.38-38.551 15.531-10.048 10.152-15.243 24.06-15.585 41.723.35 17.934 5.575 31.604 15.676 41.011 10.101 9.407 22.982 14.145 38.643 14.212 11.521.186 22.29-2.368 32.308-7.664 10.018-5.296 16.868-14.449 20.552-27.46h-36.273c-1.413 3.143-3.372 5.486-5.879 7.03-2.506 1.544-5.286 2.314-8.339 2.31-5.168-.085-9.55-1.997-13.146-5.736-3.597-3.739-5.473-8.798-5.628-15.176zm27.336 43.651h44.72l33.581-106.433H447.78l-18.777 67.09-18.533-67.09h-37.805zm120.063 0V202.792h-36.54v106.433zm-36.54-115.267h36.54v-30.061h-36.54zm44.517 82.159c1.464 14.036 6.811 23.642 16.042 28.817 9.231 5.175 19.403 7.621 30.515 7.338 16.95-.166 32.327-3.593 40.515-10.283 8.187-6.69 11.464-15.454 11.42-26.69-.305-9.758-2.563-17.187-8.361-21.89-5.799-4.703-12.513-8.042-20.142-10.02-7.63-1.976-17.995-3.754-23.793-5.334-5.799-1.58-10.255-4.126-10.56-7.64.037-2.623.98-4.535 2.832-5.737 1.852-1.202 4.389-1.794 7.612-1.778 1.428-.004 6.288.208 7.56.635a9.3 9.3 0 0 1 3.386 2.006 10.597 10.597 0 0 1 2.368 3.25c.6 1.26.992 2.75 1.173 4.468h33.457c-1.586-13.748-7-22.863-16.242-27.344-9.242-4.481-19.17-6.538-29.784-6.17-6.617-.07-15.937.95-22.626 3.062-6.689 2.111-12.306 5.735-16.85 10.87-4.545 5.136-6.91 12.205-7.094 21.207.296 10.086 3.255 17.412 8.879 21.978 5.623 4.567 14.802 7.71 22.201 9.43 7.4 1.719 13.91 3.351 19.534 4.896 5.623 1.545 8.583 4.34 8.879 8.382-.133 3.686-1.372 6.216-3.718 7.591-2.345 1.376-6.265 2.027-9.23 1.955-1.781-.008-3.44-.296-4.979-.863-1.538-.567-2.887-1.362-4.049-2.387-1.247-1.117-2.206-2.488-2.877-4.113-.671-1.625-1.01-3.503-1.018-5.636zm207.45-47.936c4.94-.126 8.817 2.311 11.63 7.313 2.814 5.001 4.247 11.501 4.3 19.499-.044 10-1.493 17.32-4.345 21.962-2.85 4.642-6.833 6.935-11.947 6.88-4.876.056-8.791-2.238-11.744-6.88-2.953-4.642-4.469-11.963-4.548-21.962-.11-6.36 1.06-12.327 3.507-17.9 2.448-5.573 6.83-8.543 13.147-8.912zm-54.307 29.046c.347 18.2 5.536 31.919 15.568 41.156 10.032 9.238 22.824 13.867 38.377 13.889 15.553.05 28.345-4.621 38.377-14.015 10.031-9.395 15.22-23.816 15.568-43.264-.163-16.787-4.997-30.133-14.505-40.04-9.507-9.906-22.714-14.975-39.621-15.208-16.258.085-29.224 5.044-38.897 14.878-9.674 9.835-14.63 24.036-14.867 42.604zm115.386 51.998h36.821v-54.232c-.11-6.868.863-12.225 2.921-16.072 2.058-3.846 7.268-5.801 12.823-5.865 5.107.17 10.252 2.167 12.063 5.992 1.81 3.826 2.659 8.463 2.544 13.914v56.263h37.383v-63.779c.03-14.7-2.906-25.973-8.807-33.818-5.9-7.846-14.944-11.807-27.129-11.883-6.904.02-13.677 1.706-18.633 5.053-4.957 3.347-10.033 8.23-14.104 14.65v-16.656h-35.882zm-125.403 0V202.792h-36.54v106.433zm-36.54-115.267h36.54v-30.061h-36.54z" style="text-align:start"/></g></g></svg>