<svg id="Layer_1" xmlns="http://www.w3.org/2000/svg" viewBox="0 0 200.3 200.3"><style>.st0{fill:#cb2026}.st1{fill:#fff}</style><title>logo-cnn-rojo-mobile</title><g id="Page-1"><g id="logo-cnn-rojo-mobile"><g id="Capa_2"><g id="Capa_1-2"><g id="Capa_2-2"><g id="Layer_1_1_"><path id="Rectangle-path" class="st0" d="M-.3-.3h200.9v200.9H-.3z"/><path id="Shape" class="st1" d="M42.6 77.1c0-8.5 6.9-15.3 15.4-15.3h11.6v-8.7H57.8c-8.6 0-16.5 4.6-20.8 12-4.3 7.4-4.3 16.6 0 24s12.2 12 20.8 12h22.5c1.2-.1 2.2-1.1 2.3-2.3V54.1c0-2.4 1.6-4.4 3.8-5.1 2.6-.6 5.3.7 6.5 3.1l14 24.2 13.6 23.4c.7 1.2 1.7 1.8 2.6 1.5.8-.2 1.3-1 1.3-1.8V54.1c0-2.4 1.6-4.4 3.8-5.1 2.6-.7 5.4.6 6.5 3.1l13 22.4 14.7 25.2c.7 1.2 1.7 1.8 2.6 1.5.8-.2 1.3-1 1.3-1.8V41h-8.7v34.9l-15.2-26.1c-9.2-15.6-26.6-9.2-26.6 4.3v21.8l-15.2-26.1C91.4 34.1 74 40.5 74 54v35.8c0 .6-.2 1.3-.7 1.7-.4.5-1 .7-1.7.7H57.9c-8.4.1-15.2-6.7-15.3-15.1z"/><path id="Shape_1_" class="st1" d="M169.8 41v58.8c0 2.8-2.2 5.2-5 5.4-2.2-.1-4.2-1.3-5.2-3.3L145 76.8l-13.1-22.7c-.7-1.2-1.7-1.8-2.6-1.5-.8.2-1.3 1-1.3 1.8v45.4c0 2.4-1.6 4.4-3.8 5.1-2.6.6-5.3-.7-6.5-3.1l-13.6-23.4L90 54.1c-.7-1.2-1.7-1.8-2.6-1.5-.8.2-1.3 1-1.3 1.8v44.4a5.9 5.9 0 0 1-5.7 5.7H57.8c-15.2 0-27.5-12.3-27.5-27.5s12.3-27.5 27.5-27.5h11.7V41H57.9C38 41 21.8 57.2 21.8 77.1s16.2 36.1 36.1 36.1h22.8c3.9.3 7.8-1.1 10.5-3.9 2.8-2.8 4.1-6.7 3.7-10.6V78.2l15.2 26.1c9.2 15.6 26.6 9.2 26.6-4.3V78.3l15.2 26.1c9.2 15.6 26.6 9.2 26.6-4.3V41h-8.7z"/><path id="Shape_2_" class="st1" d="M42.2 161.8c-2.4-1.4-4.3-3.5-5.4-5.9-1.3-2.9-2-6-1.9-9.2-.1-3.2.6-6.3 2-9.2 1.2-2.5 3.1-4.5 5.4-5.9 2.5-1.4 5.3-2.1 8.2-2.1 2.5 0 5 .5 7.3 1.5 4.2 1.7 7 5.7 7.2 10.2h-7.7c-.3-1.5-1-2.9-2.2-3.9-1.3-1.1-3-1.6-4.7-1.6-1.5 0-3 .4-4.2 1.3-1.3.9-2.2 2.2-2.7 3.7-1.2 3.8-1.2 7.9 0 11.8.5 1.5 1.4 2.8 2.7 3.7 1.2.8 2.6 1.3 4.1 1.3 1.8.1 3.5-.4 5-1.5 1.3-1.2 2.1-2.8 2.2-4.6H65c0 2.3-.8 4.6-2.1 6.5-1.4 1.9-3.3 3.5-5.4 4.4-2.3 1.1-4.8 1.6-7.4 1.5-2.7.1-5.5-.6-7.9-2z"/><path id="Shape_3_" class="st1" d="M68.6 130.4h7.6V143h12.6v-12.6h7.7v32.7h-7.7v-13.8H76.2v13.8h-7.6z"/><path id="Shape_4_" class="st1" d="M101.7 130.4h7.7v32.7h-7.7z"/><path id="Shape_5_" class="st1" d="M114.7 130.4h7.7v26.5h15.2v6.2h-22.8z"/><path id="Shape_6_" class="st1" d="M141.3 130.4h23.6v6h-16.3v6.7h14.9v6.1h-14.6v7.9h16.4v6h-24z"/></g></g></g></g></g></g></svg>