<svg xmlns="http://www.w3.org/2000/svg" width="1016" height="586"><path d="M293 5C133.942 5 5 133.942 5 293s128.942 288 288 288c85.476 0 162.255-37.238 215-96.375C560.745 543.762 637.524 581 723 581c159.058 0 288-128.942 288-288S882.058 5 723 5c-85.476 0-162.255 37.238-215 96.375C455.255 42.238 378.476 5 293 5zm0 63c124.264 0 225 100.736 225 225S417.264 518 293 518 68 417.264 68 293 168.736 68 293 68zM170.75 183.656v222.5h147.938c67.45 0 120.78-41.65 120.78-111.25s-55.83-111.25-120.78-111.25H170.75zm401.406 15.5h66.438L668.5 302.47l37.344-103.313h50.531l37.344 103.781 29.906-103.78h66.438l-62.313 197h-57.063l-39.812-96.126-40.344 96.125H634.47l-62.313-197zM241.25 247.97h67.031c35.659 0 56.188 17.222 56.188 47.437 0 29.996-19.293 45.938-55.188 45.938H241.25V247.97z" fill="#012d5b"/></svg>