<svg xmlns="http://www.w3.org/2000/svg" version="1" width="120" height="200"><g fill="#d4a10f"><path d="M53.024 194.065c-5.697-1.876-11.104-7.188-14.931-14.671-.886-1.732-1.61-3.275-1.61-3.43 0-.44 2.667-1.908 2.791-1.536.059.175.813 1.45 1.677 2.832 6.482 10.37 15.354 11.51 19.56 2.513 1.178-2.524 1.741-4.852 2.419-10.004.97-7.379 2.466-16.417 3.137-18.945 1.88-7.083 5.906-12.674 15.988-22.2 8.773-8.291 13-14.742 13.495-20.592.1-1.179.087-2.144-.028-2.144-.115 0-1.066.755-2.114 1.678-1.048.922-3.495 2.866-5.439 4.32-4.979 3.727-7.133 5.648-8.606 7.676-.704.968-1.372 1.76-1.486 1.76-.113 0-.752-1.64-1.419-3.643-.955-2.87-1.215-4.07-1.221-5.645-.01-2.364.41-3.304 2.814-6.288 3.121-3.876 4.723-8.186 4.726-12.72.004-4.824-2.116-9.027-8.306-16.466-2.757-3.315-10.746-11.83-11.098-11.83-.116 0-.178 1.898-.138 4.216.165 9.633-1.685 16.987-6.934 27.56-3.351 6.753-4.057 8.38-5.395 12.444-1.411 4.285-1.856 6.644-2.044 10.852l-.169 3.766-1.24 1.218c-.682.67-1.314 1.143-1.404 1.053-.398-.397-.75-6.148-.6-9.804.274-6.731 1.863-12.757 5.766-21.865 7.387-17.238 9.303-23.64 8.907-29.755-.164-2.534-.393-3.324-2.923-10.117-2.157-5.792-1.548-11.445 1.802-16.714.85-1.336.951-1.671.697-2.287-.164-.396-.819-1.9-1.455-3.341-1.953-4.424-2.438-6.73-2.453-11.67-.014-4.584.328-6.513 1.68-9.467 1.172-2.562 4.43-5.539 6.062-5.539 1.155 0 .98.488-.602 1.683-3.365 2.54-4.569 6.95-3.418 12.522 1.195 5.784 3.572 9.876 11.45 19.707 18.608 23.225 27.967 36.845 35.307 51.38 4.667 9.244 6.55 14.077 8.487 21.793 1.994 7.943 2.631 14.532 2.056 21.248-1.252 14.61-7.107 24.802-17.163 29.872-6.911 3.485-15.978 4.072-24.107 1.561-2.944-.91-2.853-.706-2.166-4.798.682-4.06 1.172-5.645 1.728-5.584.216.024 1.615.264 3.108.534 6.607 1.192 13.739-.281 19.15-3.956 1.748-1.187 4.937-4.27 6.476-6.262 2.643-3.42 4.75-7.942 5.987-12.854.911-3.62 1.257-11.008.695-14.851-.43-2.948-1.935-7.964-3.629-12.101-5.936-14.5-16.282-30.031-38.646-58.021a241.155 241.155 0 0 1-4.114-5.36c-1.257-1.69-2.38-3.072-2.496-3.072-.385 0-1.678 2.208-2.164 3.696-.346 1.056-.445 2.09-.353 3.68.248 4.277 2.049 6.945 11.074 16.408 5.507 5.774 8.621 9.53 11.368 13.715 5.106 7.776 6.95 15.556 5.213 22.002-.17.633-.254 1.206-.186 1.274.386.386 5.89-4.607 7.546-6.846.563-.76 1.128-1.267 1.263-1.132.347.346 2.142 7.604 2.809 11.355.927 5.216 1.247 8.946 1.07 12.48-.19 3.797-.715 5.66-2.648 9.4-1.972 3.812-4.586 7.011-12.163 14.883-7.492 7.784-10.135 11.013-11.08 13.541-.944 2.522-2.072 8.795-2.728 15.163-.962 9.353-1.88 15.837-2.573 18.176-1.033 3.49-2.857 5.865-5.504 7.168-1.681.828-2.214.945-4.637 1.017-2.3.07-3.087-.033-4.918-.636z"/><path d="M81.72 182.175c-2.164-1.071-3.728-3.417-5.374-8.062-.578-1.629-.705-2.315-.475-2.546.494-.494 1.046.142 1.732 1.994.862 2.323 1.788 3.843 2.63 4.316.626.351.845.352 1.569.007.676-.323.858-.611.93-1.472.167-2.017 1.276-.966 2.168 2.055.627 2.125.585 2.509-.378 3.471-.995.996-1.23 1.016-2.802.237zM41.18 53.065c0 3.112 2.578 5.753 5.753 5.753a5.727 5.727 0 0 0 3.734-1.385l.75-.536-.116 1.992c-.148 2.617-1.131 4.616-3.564 7.244-2.63 2.84-5.19 4.68-13.54 9.727-11.41 6.894-15.284 9.607-19.392 13.576-5.28 5.1-8.962 11.281-10.575 17.757-2.203 8.842-1.497 17.343 2.242 27.135 1.069 2.8 1.089 2.957 1.25 7.717.429 12.647 3.602 21.348 10.165 27.876 3.333 3.316 6.382 4.894 10.36 5.386.995.123 2.448.173 3.234.107 9.53-.804 13.695-8.69 15.738-29.797.266-2.75.627-5.41.804-5.912.217-.617 2.099-2.533 5.788-5.904 5.805-5.305 6.966-6.814 6.966-9.03.001-1.37-1.167-9.543-1.402-9.808-.103-.115-.763.58-1.465 1.545-1.172 1.612-4.914 5.248-9.807 9.53-3.208 2.808-3.807 4.284-4.895 12.023-1.895 13.49-4.303 20.6-8.342 24.643-3.731 3.735-9.803 4.679-14.577 2.26-4.851-2.459-8.443-9.83-8.878-18.203l-.17-3.287 2.206 2.063c2.937 2.743 5.325 3.938 7.878 3.939 2.407 0 3.199-.234 4.448-1.33 1.839-1.615 2.707-4.2 2.707-8.075 0-7.741-4.155-17.023-8.69-19.4-1.831-.96-4.27-.867-6.021.223-1.69 1.052-3.36 3.362-4.225 5.86-.354 1.023-.771 1.923-.929 2-.528.258-1.026-3.253-1.036-7.288-.007-2.966.148-4.755.59-6.914 1.652-8.066 4.842-13.817 11.147-20.105 4.265-4.254 8.668-7.606 18.533-14.104 7.628-5.023 10.886-7.736 12.693-10.557.796-1.245.96-1.375 1.036-.84.272 1.908-2.032 7.817-7.325 18.793-4.337 8.994-5.695 12.135-7.877 18.167-2.753 7.61-4.46 14.399-5.458 21.705-.64 4.677-.865 14.32-.473 20.463.349 5.469 1.558 14.036 2.045 14.523.196.196.596-.027 1.25-.697l.974-.991-.518-3.144c-1.914-11.592-1.188-23.968 2.153-36.666 2.362-8.98 5.195-16.137 11.924-30.073 5.927-12.277 6.99-16.428 6.708-26.296-.235-8.184-1.32-12.963-3.502-15.39-1.191-1.325-2.453-2.018-4.117-2.018-4.044 0-6.181 2.626-6.181 5.743zm-21.4 77.154a3.623 3.623 0 0 1 1.581.41c1.033.535 2.55 2.807 2.546 3.824-.002.401-.385 1.389-.849 2.197-.658 1.147-1.17 1.632-2.34 2.215a7.392 7.392 0 0 1-6.386.08c-2.19-1.02-2.265-1.21-1.295-3.26 1.612-3.41 4.347-5.532 6.743-5.466z"/><path d="M60.75 155.73c-3.627-3.483-7.244-8.577-9.866-13.898l-1.091-2.213 1.264-1.288c.696-.708 1.41-1.288 1.587-1.288.177 0 .824.74 1.44 1.643 1.376 2.023 6.138 6.984 8.775 9.141 1.739 1.423 1.936 1.685 1.764 2.34-.107.406-.495 2.2-.863 3.987-.368 1.788-.734 3.315-.815 3.396-.08.08-1.067-.739-2.194-1.82zm-38.67-44.665c-1.036-1.081-1.318-2.456-1.009-4.92.178-1.413.564-2.603 1.3-4.004 1.886-3.589 7.824-8.806 7.824-6.875 0 .113-1.207 1.446-2.682 2.962-3.985 4.097-5.292 7.103-3.871 8.908.992 1.262 2.837.899 2.837-.558 0-.809.949-1.987 1.383-1.718.444.274.419 1.221-.076 2.864-1.098 3.65-3.861 5.267-5.707 3.341zm39.57-3.962c-.726-2.614-.505-2.973 6.525-10.554 2.89-3.116 5.62-6.165 6.069-6.774.873-1.188.913-1.162 1.352.867.197.912.15 1.426-.207 2.209-.255.56-2.843 3.613-5.751 6.783-2.908 3.17-5.738 6.38-6.288 7.136-.55.755-1.091 1.38-1.202 1.39-.11.008-.334-.467-.498-1.057zM45.225 62.859a5.752 5.752 0 1 1-11.504 0 5.752 5.752 0 0 1 11.504 0zM67.83 121.54l7.379 3.568-4.124 8.529-7.378-3.568zm24.19 15.473l7.378 3.567-4.124 8.53-7.378-3.568zm-38.022 19.375l6.344 5.189-6.07 7.422-6.343-5.189zm-1.44 12.916l6.344 5.189-6.07 7.422-6.344-5.188z"/></g></svg>