<svg xmlns="http://www.w3.org/2000/svg" width="500.001" height="144.106"><path d="M0 0v144.106h41.95V71.859l45.494 61.177 45.495-61.177v72.247h116.14v-25.83c13.82 16.511 35.516 25.83 59.622 25.83h72.053l10.1-26.025h55.545l10.099 26.025H500L438.63 0h-40.008l-25.49 59.818h-68.509v28.355h27.967v17.479c-8.002 4.164-17.376 5.632-25.637 5.632-19.092 0-34.57-17.092-34.57-38.648 0-21.557 15.478-38.649 34.57-38.649 13.118 0 22.779 2.787 34.23 13.79l22.578-27.725C350.025 7.743 330.908.19 308.7 0H130.414l-42.97 57.778L44.474 0zm174.889 33.987h68.994c-6.361 10.629-10.087 23.45-10.342 38.066-.256 14.65 3.326 27.461 9.71 38.066H174.89V87.396h48.941V56.71H174.89zm243.737 12.527l15.877 40.882h-31.754z" fill="#dc0000"/></svg>