<svg xmlns="http://www.w3.org/2000/svg" width="594.855" height="537.784" viewBox="0.212 -0.509 594.855 537.784"><path fill="#FFF" d="M228.737-.236c-1.805.032-3.634.12-5.432.289-.524.049-1.036.112-1.56.173a70.943 70.943 0 0 0-8.61 1.56c-.207.05-.429.063-.635.116-.347.087-.695.196-1.041.289-.978.263-1.923.562-2.889.867-.523.165-1.041.342-1.561.52-.246.084-.505.144-.751.231-.733.261-1.471.523-2.195.809-.602.236-1.197.498-1.791.751-.43.183-.847.386-1.271.578-.267.12-.545.224-.81.347-.588.276-1.152.574-1.733.867-.738.372-1.471.756-2.195 1.155-.46.254-.934.486-1.387.751-.155.09-.309.197-.462.289-.676.403-1.362.844-2.022 1.271-.688.443-1.354.917-2.022 1.387-.284.2-.587.374-.867.578-.178.129-.344.273-.52.405a61.559 61.559 0 0 0-2.543 2.022 62.23 62.23 0 0 0-2.312 2.021c-.857.79-1.728 1.585-2.542 2.427-18.795 18.861-26.681 46.419-18.259 72.806 1.144 2.596 2.268 5.203 3.409 7.801-19.521-19.068-48.776-25.503-75.291-15.833-20.032 7.484-36.899 26.478-42.297 46.746-7.219 27.044-.146 56.561 21.148 74.366 1.817 1.258 3.667 2.497 5.489 3.756-12.021-1.347-24.45.444-34.727 5.663-14.706 6.09-28.595 21.486-35.017 36.865-10.009 22.406-6.106 53.188 8.147 72.284 14.168 18.313 33.126 28.199 55.298 27.563l213.391.229h29.533-.007l213.39-.229c1.386.039 2.742.043 4.103 0 20.403-.629 37.912-10.396 51.195-27.563 14.254-19.096 18.156-49.878 8.147-72.284-6.422-15.379-20.311-30.775-35.018-36.865-10.275-5.219-22.705-7.01-34.727-5.663 1.822-1.258 3.672-2.498 5.489-3.756 21.296-17.806 28.366-47.322 21.147-74.366-5.396-20.268-22.265-39.262-42.297-46.746-26.514-9.67-55.77-3.236-75.29 15.833 1.141-2.598 2.265-5.205 3.409-7.801 8.422-26.387.535-53.945-18.26-72.806a62.15 62.15 0 0 0-2.369-2.312c-.051-.047-.122-.069-.173-.116a66.117 66.117 0 0 0-1.156-1.04 66.592 66.592 0 0 0-1.155-.982 62.207 62.207 0 0 0-2.542-2.022c-.177-.131-.343-.275-.521-.405a62.19 62.19 0 0 0-2.139-1.502c-.245-.163-.505-.303-.751-.462a67.659 67.659 0 0 0-2.021-1.271c-.322-.191-.657-.392-.982-.578a66.356 66.356 0 0 0-1.907-1.04c-.385-.204-.767-.382-1.154-.578-.581-.293-1.146-.591-1.733-.867-.459-.214-.924-.432-1.387-.635a63.946 63.946 0 0 0-1.618-.693 70.486 70.486 0 0 0-1.618-.636c-.478-.182-.962-.349-1.444-.52a63.89 63.89 0 0 0-1.849-.636c-.423-.137-.847-.275-1.271-.404-.696-.21-1.377-.389-2.08-.578-.346-.093-.694-.201-1.04-.289-.207-.052-.43-.065-.637-.116a70.981 70.981 0 0 0-8.608-1.56c-.155-.018-.309-.041-.463-.058-1.01-.111-1.991-.221-3.004-.289-.077-.005-.155.005-.231 0a73.906 73.906 0 0 0-3.294-.116 70.304 70.304 0 0 0-3.467 0c-2.116.066-4.257.203-6.356.462a66.512 66.512 0 0 0-18.259 4.969c-13.221 5.736-25.708 16.428-33.571 29.469a93.12 93.12 0 0 0-2.195 4.392 86.805 86.805 0 0 0-3.641 9.188c-.513 1.533-1.028 3.05-1.444 4.623a76.214 76.214 0 0 0-1.387-4.623 87.106 87.106 0 0 0-3.641-9.188 96.64 96.64 0 0 0-2.196-4.392c-7.863-13.041-20.351-23.732-33.571-29.469-7.743-3.354-16.151-5.166-24.615-5.432a76.933 76.933 0 0 0-3.464.003z"/><radialGradient id="a" cx="134.841" cy="-30.263" r="160.72" gradientTransform="matrix(0 1.8662 -1.8635 0 242.469 -21.465)" gradientUnits="userSpaceOnUse"><stop offset="0" stop-color="#fff"/><stop offset="1" stop-color="#9caabd"/></radialGradient><path opacity=".5" fill="url(#a)" d="M228.737-.236c-1.805.032-3.634.12-5.432.289-.524.049-1.036.112-1.56.173a70.943 70.943 0 0 0-8.61 1.56c-.207.05-.429.063-.635.116-.347.087-.695.196-1.041.289-.978.263-1.923.562-2.889.867-.523.165-1.041.342-1.561.52-.246.084-.505.144-.751.231-.733.261-1.471.523-2.195.809-.602.236-1.197.498-1.791.751-.43.183-.847.386-1.271.578-.267.12-.545.224-.81.347-.588.276-1.152.574-1.733.867-.738.372-1.471.756-2.195 1.155-.46.254-.934.486-1.387.751-.155.09-.309.197-.462.289-.676.403-1.362.844-2.022 1.271-.688.443-1.354.917-2.022 1.387-.284.2-.587.374-.867.578-.178.129-.344.273-.52.405a61.559 61.559 0 0 0-2.543 2.022 62.23 62.23 0 0 0-2.312 2.021c-.857.79-1.728 1.585-2.542 2.427-18.795 18.861-26.681 46.419-18.259 72.806 1.144 2.596 2.268 5.203 3.409 7.801-19.521-19.068-48.776-25.503-75.291-15.833-20.032 7.484-36.899 26.478-42.297 46.746-7.219 27.044-.146 56.561 21.148 74.366 1.817 1.258 3.667 2.497 5.489 3.756-12.021-1.347-24.45.444-34.727 5.663-14.706 6.09-28.595 21.486-35.017 36.865-10.009 22.406-6.106 53.188 8.147 72.284 14.168 18.313 33.126 28.199 55.298 27.563l213.391.229h29.533-.007l213.39-.229c1.386.039 2.742.043 4.103 0 20.403-.629 37.912-10.396 51.195-27.563 14.254-19.096 18.156-49.878 8.147-72.284-6.422-15.379-20.311-30.775-35.018-36.865-10.275-5.219-22.705-7.01-34.727-5.663 1.822-1.258 3.672-2.498 5.489-3.756 21.296-17.806 28.366-47.322 21.147-74.366-5.396-20.268-22.265-39.262-42.297-46.746-26.514-9.67-55.77-3.236-75.29 15.833 1.141-2.598 2.265-5.205 3.409-7.801 8.422-26.387.535-53.945-18.26-72.806a62.15 62.15 0 0 0-2.369-2.312c-.051-.047-.122-.069-.173-.116a66.117 66.117 0 0 0-1.156-1.04 66.592 66.592 0 0 0-1.155-.982 62.207 62.207 0 0 0-2.542-2.022c-.177-.131-.343-.275-.521-.405a62.19 62.19 0 0 0-2.139-1.502c-.245-.163-.505-.303-.751-.462a67.659 67.659 0 0 0-2.021-1.271c-.322-.191-.657-.392-.982-.578a66.356 66.356 0 0 0-1.907-1.04c-.385-.204-.767-.382-1.154-.578-.581-.293-1.146-.591-1.733-.867-.459-.214-.924-.432-1.387-.635a63.946 63.946 0 0 0-1.618-.693 70.486 70.486 0 0 0-1.618-.636c-.478-.182-.962-.349-1.444-.52a63.89 63.89 0 0 0-1.849-.636c-.423-.137-.847-.275-1.271-.404-.696-.21-1.377-.389-2.08-.578-.346-.093-.694-.201-1.04-.289-.207-.052-.43-.065-.637-.116a70.981 70.981 0 0 0-8.608-1.56c-.155-.018-.309-.041-.463-.058-1.01-.111-1.991-.221-3.004-.289-.077-.005-.155.005-.231 0a73.906 73.906 0 0 0-3.294-.116 70.304 70.304 0 0 0-3.467 0c-2.116.066-4.257.203-6.356.462a66.512 66.512 0 0 0-18.259 4.969c-13.221 5.736-25.708 16.428-33.571 29.469a93.12 93.12 0 0 0-2.195 4.392 86.805 86.805 0 0 0-3.641 9.188c-.513 1.533-1.028 3.05-1.444 4.623a76.214 76.214 0 0 0-1.387-4.623 87.106 87.106 0 0 0-3.641-9.188 96.64 96.64 0 0 0-2.196-4.392c-7.863-13.041-20.351-23.732-33.571-29.469-7.743-3.354-16.151-5.166-24.615-5.432a76.933 76.933 0 0 0-3.464.003z"/><path fill="#FFF" d="M228.762-.257c-1.804.032-3.634.12-5.432.289-.524.049-1.036.113-1.56.173a71.086 71.086 0 0 0-8.609 1.56c-.207.05-.43.063-.636.116-.347.088-.695.196-1.04.289-.979.263-1.924.562-2.89.867-.522.166-1.041.342-1.56.52-.247.084-.506.144-.751.231-.734.261-1.472.523-2.196.809-.601.236-1.197.498-1.791.751-.429.184-.847.386-1.271.578-.266.12-.544.223-.809.347-.589.275-1.153.574-1.733.867-.739.372-1.472.756-2.196 1.156-.459.254-.934.486-1.387.751-.154.09-.308.197-.462.289-.676.403-1.361.843-2.022 1.271-.687.444-1.353.917-2.022 1.387-.283.2-.586.374-.866.578-.178.129-.344.273-.521.405a63.055 63.055 0 0 0-2.542 2.021 59.808 59.808 0 0 0-2.312 2.022c-.858.789-1.729 1.584-2.543 2.427-18.795 18.861-26.681 46.419-18.259 72.806 1.144 2.596 2.268 5.203 3.409 7.801-19.521-19.068-48.776-25.503-75.29-15.833-15.001 5.604-28.208 17.682-36.172 31.896h484.735c-7.964-14.214-21.171-26.292-36.172-31.896-26.515-9.67-55.77-3.236-75.29 15.833 1.142-2.598 2.266-5.205 3.408-7.801 8.423-26.387.535-53.945-18.259-72.806a61.437 61.437 0 0 0-2.369-2.312c-.051-.047-.123-.069-.174-.115a66.525 66.525 0 0 0-1.155-1.041 66.592 66.592 0 0 0-1.155-.982 61.333 61.333 0 0 0-2.542-2.021c-.178-.131-.343-.275-.521-.405a62.15 62.15 0 0 0-2.138-1.502c-.244-.163-.504-.303-.751-.462a60.022 60.022 0 0 0-3.003-1.849 67.67 67.67 0 0 0-1.906-1.04c-.386-.204-.767-.382-1.156-.578-.58-.293-1.145-.591-1.732-.867-.458-.214-.924-.432-1.388-.636a62.359 62.359 0 0 0-1.617-.693 70.41 70.41 0 0 0-1.617-.636c-.479-.182-.963-.349-1.445-.52-.61-.216-1.23-.436-1.849-.636-.423-.137-.847-.275-1.271-.404-.695-.21-1.377-.389-2.08-.578-.345-.093-.692-.201-1.04-.289-.206-.052-.429-.065-.636-.116a71.12 71.12 0 0 0-8.609-1.56c-.153-.018-.308-.041-.462-.058-1.01-.111-1.991-.221-3.005-.289-.076-.005-.154.005-.23 0a72.333 72.333 0 0 0-3.293-.115 69.172 69.172 0 0 0-3.469 0c-2.114.066-4.256.202-6.354.462a66.509 66.509 0 0 0-18.26 4.969c-13.222 5.736-25.708 16.428-33.571 29.469a92.624 92.624 0 0 0-2.194 4.392 86.58 86.58 0 0 0-3.642 9.187c-.513 1.533-1.028 3.05-1.444 4.623a75.505 75.505 0 0 0-1.387-4.623 87.003 87.003 0 0 0-3.641-9.187 97.146 97.146 0 0 0-2.195-4.392c-7.863-13.042-20.351-23.733-33.571-29.469-7.744-3.354-16.152-5.166-24.615-5.431a69.291 69.291 0 0 0-3.472 0z"/><path fill="none" stroke="#9CAABD" stroke-width=".5" d="M228.737-.236c-1.805.032-3.634.12-5.432.289-.524.049-1.036.112-1.56.173a70.943 70.943 0 0 0-8.61 1.56c-.207.05-.429.063-.635.116-.347.087-.695.196-1.041.289-.978.263-1.923.562-2.889.867-.523.165-1.041.342-1.561.52-.246.084-.505.144-.751.231-.733.261-1.471.523-2.195.809-.602.236-1.197.498-1.791.751-.43.183-.847.386-1.271.578-.267.12-.545.224-.81.347-.588.276-1.152.574-1.733.867-.738.372-1.471.756-2.195 1.155-.46.254-.934.486-1.387.751-.155.09-.309.197-.462.289-.676.403-1.362.844-2.022 1.271-.688.443-1.354.917-2.022 1.387-.284.2-.587.374-.867.578-.178.129-.344.273-.52.405a61.559 61.559 0 0 0-2.543 2.022 62.23 62.23 0 0 0-2.312 2.021c-.857.79-1.728 1.585-2.542 2.427-18.795 18.861-26.681 46.419-18.259 72.806 1.144 2.596 2.268 5.203 3.409 7.801-19.521-19.068-48.776-25.503-75.291-15.833-20.032 7.484-36.899 26.478-42.297 46.746-7.219 27.044-.146 56.561 21.148 74.366 1.817 1.258 3.667 2.497 5.489 3.756-12.021-1.347-24.45.444-34.727 5.663-14.706 6.09-28.595 21.486-35.017 36.865-10.009 22.406-6.106 53.188 8.147 72.284 14.168 18.313 33.126 28.199 55.298 27.563l213.391.229h29.533-.007l213.39-.229c1.386.039 2.742.043 4.103 0 20.403-.629 37.912-10.396 51.195-27.563 14.254-19.096 18.156-49.878 8.147-72.284-6.422-15.379-20.311-30.775-35.018-36.865-10.275-5.219-22.705-7.01-34.727-5.663 1.822-1.258 3.672-2.498 5.489-3.756 21.296-17.806 28.366-47.322 21.147-74.366-5.396-20.268-22.265-39.262-42.297-46.746-26.514-9.67-55.77-2.553-75.29 16.515 1.141-2.597 2.265-5.887 3.409-8.483 8.422-26.387.535-53.945-18.26-72.806a62.15 62.15 0 0 0-2.369-2.312c-.051-.047-.122-.069-.173-.116a66.117 66.117 0 0 0-1.156-1.04 66.592 66.592 0 0 0-1.155-.982 62.207 62.207 0 0 0-2.542-2.022c-.177-.131-.343-.275-.521-.405a62.19 62.19 0 0 0-2.139-1.502c-.245-.163-.505-.303-.751-.462a67.659 67.659 0 0 0-2.021-1.271c-.322-.191-.657-.392-.982-.578a66.356 66.356 0 0 0-1.907-1.04c-.385-.204-.767-.382-1.154-.578-.581-.293-1.146-.591-1.733-.867-.459-.214-.924-.432-1.387-.635a63.946 63.946 0 0 0-1.618-.693 70.486 70.486 0 0 0-1.618-.636c-.478-.182-.962-.349-1.444-.52a63.89 63.89 0 0 0-1.849-.636c-.423-.137-.847-.275-1.271-.404-.696-.21-1.377-.389-2.08-.578-.346-.093-.694-.201-1.04-.289-.207-.052-.43-.065-.637-.116a70.981 70.981 0 0 0-8.608-1.56c-.155-.019-.309-.041-.463-.058-1.01-.111-1.991-.221-3.004-.289-.077-.005-.155.005-.231 0a73.906 73.906 0 0 0-3.294-.116 70.304 70.304 0 0 0-3.467 0c-2.116.066-4.257.203-6.356.462a66.512 66.512 0 0 0-18.259 4.969c-13.221 5.736-25.708 16.428-33.571 29.469a93.12 93.12 0 0 0-2.195 4.392 86.805 86.805 0 0 0-3.641 9.188c-.513 1.533-1.028 3.05-1.444 4.623a76.214 76.214 0 0 0-1.387-4.623 87.106 87.106 0 0 0-3.641-9.188 96.123 96.123 0 0 0-2.196-4.392c-7.863-13.041-20.351-23.732-33.571-29.469-7.743-3.354-16.151-5.166-24.615-5.432a76.933 76.933 0 0 0-3.464.003z"/><path fill="none" stroke="#9CAABD" stroke-width=".5" d="M229.156 1.487a72.05 72.05 0 0 0-5.398.286c-.521.049-1.03.111-1.551.171-2.888.334-5.735.86-8.557 1.545-.206.05-.427.063-.632.114-.345.087-.691.194-1.034.286-.973.26-1.912.557-2.871.858-.521.164-1.035.339-1.551.515-.245.083-.503.143-.747.229a68.73 68.73 0 0 0-2.183.801c-.597.234-1.189.493-1.78.744-.426.182-.841.382-1.263.572-.265.119-.542.221-.805.343-.585.273-1.146.568-1.723.858a64.72 64.72 0 0 0-2.183 1.145c-.457.251-.928.481-1.378.744-.154.089-.307.195-.46.286-.671.399-1.354.835-2.01 1.259-.683.439-1.345.907-2.01 1.373-.282.198-.583.37-.862.572-.176.128-.341.271-.517.4a61.425 61.425 0 0 0-2.526 2.002 59.656 59.656 0 0 0-2.298 2.003c-.853.781-1.718 1.569-2.526 2.403-18.681 18.677-26.312 50.845-15.033 76.766 1.137 2.571 2.254 5.152 3.389 7.725-20.995-20.929-51.368-28.789-77.721-19.213-19.911 7.411-36.903 26.673-42.268 46.743-6.72 29.51 3.285 56.803 26.044 74.434 1.806 1.246 3.645 2.475 5.456 3.719-11.949-1.332-27.561-1.014-37.774 3.635-14.617 6.758-29.731 21.314-36.113 36.544-9.948 22.188-6.524 52.214 7.643 71.124 14.082 18.133 32.925 27.922 54.961 27.293l212.093.229h29.355-.007l212.093-.229c1.377.039 2.726.041 4.077 0 20.278-.623 37.682-10.295 50.884-27.293 14.168-18.91 18.046-49.392 8.098-71.579-6.382-15.229-21.225-27.566-34.803-35.362-10.215-4.855-28.066-5.693-40.015-4.361 1.812-1.244 4.104-2.473 5.91-3.719 18.892-13.082 33.467-41.74 26.063-73.523-5.364-20.07-22.356-40.244-42.268-47.653-26.354-9.576-57.592.534-76.993 19.416 1.134-2.572 2.252-6.291 3.389-8.862 9.809-24.69 3.495-56.867-15.76-75.832a61.18 61.18 0 0 0-2.355-2.289c-.05-.046-.121-.068-.172-.114a64.97 64.97 0 0 0-1.147-1.03c-.38-.33-.763-.652-1.148-.973a61.278 61.278 0 0 0-2.527-2.002c-.175-.13-.34-.272-.517-.4A62.24 62.24 0 0 0 403 12.702c-.243-.161-.501-.3-.747-.458a65.038 65.038 0 0 0-2.01-1.259c-.32-.19-.652-.388-.978-.572a64.13 64.13 0 0 0-1.895-1.03c-.384-.202-.762-.378-1.149-.572-.575-.29-1.138-.585-1.723-.858-.455-.212-.918-.428-1.378-.629a71.217 71.217 0 0 0-1.608-.687 63.685 63.685 0 0 0-1.607-.629c-.476-.18-.956-.345-1.437-.515a68.555 68.555 0 0 0-1.838-.629c-.42-.135-.841-.273-1.264-.4-.691-.208-1.368-.385-2.067-.572-.343-.092-.688-.199-1.033-.286-.206-.051-.426-.064-.632-.114a70.811 70.811 0 0 0-8.558-1.545c-.153-.018-.306-.04-.459-.057-1.003-.11-1.98-.219-2.986-.286-.076-.005-.153.005-.229 0a71.457 71.457 0 0 0-3.273-.114 69.414 69.414 0 0 0-3.445 0c-2.104.065-4.23.201-6.316.458a66.249 66.249 0 0 0-18.148 4.921c-13.141 5.68-25.552 20.212-33.366 33.126a94.403 94.403 0 0 0-2.184 4.349 85.763 85.763 0 0 0-3.618 9.097 79.324 79.324 0 0 0-1.436 4.742 74.78 74.78 0 0 0-1.379-4.578 85.678 85.678 0 0 0-3.618-9.097 93.373 93.373 0 0 0-2.182-4.349c-7.815-12.914-20.228-27.447-33.368-33.126-7.696-3.322-16.054-5.28-24.465-5.543a64.979 64.979 0 0 0-3.448-.003z"/><path fill="#FFF" stroke="#9CAABD" stroke-width=".5" d="M285.386 38.316c6.428 12.387 10.255 26.536 7.938 42.098-12.815 71.184-18.783 144.436-32.784 215.039-31.378-67.408-59.928-136.207-89.514-204.454-7.581-24.135-.521-49.312 16.396-66.563 17.112-17.984 45.42-22.889 67.726-13.07 11.899 5.246 23.16 15.022 30.238 26.95"/><path fill="#CE0014" d="M233.617 11.53c-15.924-.499-32.102 5.312-43.279 16.873-16.073 16.13-22.804 39.666-15.602 62.232 28.111 63.812 55.243 128.116 85.056 191.144 13.304-66.014 18.97-134.469 31.145-201.025 2.203-14.551-1.462-27.826-7.569-39.408-6.725-11.153-17.411-20.288-28.718-25.193-6.623-2.869-13.796-4.396-21.033-4.623z"/><path fill="#FFF" stroke="#9CAABD" stroke-width=".5" d="M172.521 118.897l92.259 203.586c-63.125-40.265-127.761-82.241-188.9-124.423-18.937-15.775-25.235-41.932-18.816-65.894 4.799-17.958 19.83-34.742 37.643-41.373 29.248-10.628 62.239.653 77.814 28.104"/><path fill="#FF6714" d="M169.157 121.073l86.777 191.499c-59.374-37.874-120.17-77.357-177.677-117.034-17.811-14.84-23.735-39.442-17.698-61.981 4.514-16.894 18.651-32.679 35.405-38.917 27.513-10 58.543.612 73.193 26.433"/><path fill="#FFF" stroke="#9CAABD" stroke-width=".5" d="M12.07 255.223c-9.639 19.668-5.877 46.675 7.852 63.438 13.646 16.074 31.877 24.783 53.231 24.226l205.525.166L106.51 226.789c-16.793-10.523-42.379-12.443-60.76-3.938-14.163 5.346-27.495 18.872-33.68 32.372m571.602 0c9.64 19.668 5.877 46.675-7.852 63.438-13.646 16.074-31.877 24.783-53.23 24.226l-205.525.166 172.169-116.264c16.793-10.523 42.378-12.443 60.759-3.938 14.163 5.346 27.495 18.872 33.679 32.372"/><linearGradient id="b" gradientUnits="userSpaceOnUse" x1="278.862" y1="410.721" x2="271.912" y2="407.687" gradientTransform="matrix(2.8704 0 0 -2.7863 -584.296 1330.935)"><stop offset="0"/><stop offset="1" stop-opacity="0"/></linearGradient><path fill="url(#b)" d="M169.157 121.073l86.777 191.499c-59.374-37.874-120.17-77.357-177.677-117.034-17.811-14.84-23.735-39.442-17.698-61.981 4.514-16.894 18.651-32.679 35.405-38.917 27.513-10 58.543.612 73.193 26.433"/><path fill="#FABC13" d="M16.011 256.605c-9.082 18.522-5.537 43.96 7.396 59.748 12.856 15.137 30.033 23.34 50.151 22.813l193.637.154-162.207-109.494c-15.822-9.911-39.928-11.719-57.244-3.708-13.345 5.034-25.906 17.773-31.733 30.487"/><path fill="#FFF" stroke="#9CAABD" stroke-width=".5" d="M362.689 6.446c-7.755.243-15.502 1.878-22.598 4.951-12.114 5.254-23.563 15.037-30.771 26.983-5.189 9.837-8.602 23.624-8.661 35.507.739.087 31.808.043 32.504 0 2.751.343 3.411 1.001 4.003 2.253-.2.182-1.135 1.439-1.397 1.619-.614.413-1.013.487-1.546.789-.581.291-1.11.491-1.863.785a47.57 47.57 0 0 0-2.044.743c-13.846 5.262-21.729 15.034-24.171 23.775l-.211.845c-.225.5-.216 1.286-.266 1.883a9.354 9.354 0 0 0 0 1.856l.063.681c.01.06-.013.126 0 .186l.31 1.918 1.176 7.736 8.482 54.646c.209 1.527.412 3.053.619 4.58l17.148 111.584c.406 2.034.753 4.096 1.177 6.127l.063-.125c31.932-67.453 60.97-136.303 91.072-204.599 7.718-24.169.506-49.438-16.717-66.714-11.976-12.382-29.31-18.544-46.372-18.009z"/><path fill="#5A1566" d="M361.835 11.53c-7.238.227-14.469 1.754-21.091 4.623-11.308 4.905-21.993 14.04-28.718 25.193-4.844 9.185-8.149 19.414-8.205 30.509h30.336c4.099.741 8.23 2.686 6.991 5.084-.009.019.008.04 0 .058-.035.064-.072.108-.115.173a2.994 2.994 0 0 1-.578.693c-.188.169-.391.353-.636.52-.417.3-.896.559-1.502.867-.026.013-.031.044-.059.058-.543.271-1.203.534-1.907.809-.65.22-1.273.448-1.906.693-12.857 4.988-21.82 15.059-25.366 22.419l-.115.231c-.209.467-.3 1.002-.347 1.56a8.648 8.648 0 0 0 0 1.733l.058.636c.011.056-.011.117 0 .173l.289 1.791 1.098 7.223 7.916 50.906v.115c.049.346.068.693.116 1.039.146 1.08.315 2.156.462 3.236l.059.348c4.355 31.998 8.752 63.986 14.677 95.457.025.133.032.271.058.403l1.214 7.975c.38 1.899.702 3.825 1.099 5.721l.058-.115c29.802-62.979 56.903-127.263 84.998-191.029 7.202-22.566.473-46.16-15.602-62.29-11.181-11.558-27.359-17.311-43.282-16.812z"/><linearGradient id="c" gradientUnits="userSpaceOnUse" x1="178.384" y1="-81.275" x2="183.384" y2="-82.025" gradientTransform="translate(-18.626 302.37) scale(1.849)"><stop offset="0"/><stop offset="1" stop-opacity="0"/></linearGradient><path fill="url(#c)" d="M361.809 11.552c-7.236.227-14.468 1.754-21.09 4.623-11.307 4.906-21.993 14.04-28.718 25.193-4.844 9.185-8.148 19.414-8.206 30.509h30.336c4.101.741 8.232 2.686 6.992 5.085-.008.019.007.04 0 .058-.035.065-.072.108-.116.174a2.988 2.988 0 0 1-.577.693c-.188.169-.391.353-.636.52-.417.3-.896.559-1.503.867-.025.013-.031.044-.058.058-.542.271-1.203.534-1.906.809-.651.22-1.274.448-1.907.693-12.857 4.988-21.82 15.058-25.366 22.419l-.114.231c-.211.467-.301 1.002-.348 1.56a8.798 8.798 0 0 0 0 1.733l.059.635c.011.056-.013.118 0 .174l.289 1.791 1.098 7.223 7.916 51.022c.194 1.427.385 2.851.578 4.276l16.005 104.182c.38 1.9.703 3.826 1.099 5.72l.059-.114c29.802-62.979 56.901-127.264 84.998-191.029 7.201-22.566.472-46.159-15.603-62.289-11.18-11.562-27.357-17.316-43.281-16.816z"/><linearGradient id="d" gradientUnits="userSpaceOnUse" x1="225.565" y1="-74.108" x2="217.065" y2="-77.858" gradientTransform="translate(-18.626 302.37) scale(1.849)"><stop offset="0"/><stop offset="1" stop-opacity="0"/></linearGradient><path fill="url(#d)" d="M361.809 11.552c-7.236.227-14.468 1.754-21.09 4.623-11.307 4.906-21.993 14.04-28.718 25.193-4.844 9.185-8.148 19.414-8.206 30.509h30.336c4.101.741 8.232 2.686 6.992 5.085-.008.019.007.04 0 .058-.035.065-.072.108-.116.174a2.988 2.988 0 0 1-.577.693c-.188.169-.391.353-.636.52-.417.3-.896.559-1.503.867-.025.013-.031.044-.058.058-.542.271-1.203.534-1.906.809-.651.22-1.274.448-1.907.693-12.857 4.988-21.82 15.058-25.366 22.419l-.114.231c-.211.467-.301 1.002-.348 1.56a8.798 8.798 0 0 0 0 1.733l.059.635c.011.056-.013.118 0 .174l.289 1.791 1.098 7.223 7.916 51.022c.194 1.427.385 2.851.578 4.276l16.005 104.182c.38 1.9.703 3.826 1.099 5.72l.059-.114c29.802-62.979 56.901-127.264 84.998-191.029 7.201-22.566.472-46.159-15.603-62.289-11.18-11.562-27.357-17.316-43.281-16.816z"/><linearGradient id="e" gradientUnits="userSpaceOnUse" x1="160.064" y1="-106.452" x2="163.61" y2="-106.452" gradientTransform="translate(6.534 343.318) scale(1.849)"><stop offset="0" stop-color="#fff"/><stop offset="1" stop-color="#fff" stop-opacity="0"/></linearGradient><path fill="url(#e)" d="M361 14.268c-7.084.222-14.09 1.7-20.57 4.507-11.064 4.801-21.559 13.757-28.141 24.673-4.368 8.285-7.427 17.444-7.916 27.331h30.856c10.537 2.907 9.426 7.38.521 10.921-12.672 3.947-20.38 13.507-26.753 23.979 9.3 57.61 14.96 116.262 26.406 173.058 29.178-61.685 55.752-124.647 83.265-187.099 7.049-22.085.476-45.116-15.255-60.902-10.94-11.314-26.829-16.957-42.413-16.468zm-56.627 61.076c.036 1.129.067 2.262.174 3.409l-.058-3.409h-.116z"/><linearGradient id="f" gradientUnits="userSpaceOnUse" x1="120.668" y1="-186.082" x2="132.176" y2="-85.744" gradientTransform="matrix(-1.849 0 0 1.849 598.158 302.37)"><stop offset="0" stop-color="#fff"/><stop offset="1" stop-color="#fff" stop-opacity="0"/></linearGradient><path opacity=".5" fill="url(#f)" d="M362.561 14.21c-7.442.101-14.862 1.617-21.669 4.565-11.064 4.801-21.501 13.757-28.082 24.673-4.378 8.303-7.424 17.475-7.916 27.389h30.451c14.917 4.708 2.606 10.118-2.196 11.788-2.789.979-5.346 2.331-7.741 3.929 41.031 3.133 72.285.927 93.028-7.049 2.916-18.197-1.491-35.654-14.562-48.768-9.944-10.286-23.962-15.9-38.136-16.468a58.067 58.067 0 0 0-3.177-.059z"/><path fill="#FFF" stroke="#9CAABD" stroke-width=".5" d="M423.978 118.538l-92.267 203.947c62.146-40.267 125.339-84.679 187.526-127.209 18.938-15.777 26.627-39.502 20.208-63.466-4.8-17.96-19.831-34.744-37.646-41.375-29.252-10.632-62.245.65-77.821 28.103"/><path fill="#10578D" d="M426.241 121.073l-86.777 191.825c58.45-37.873 117.882-79.645 176.37-119.648 17.811-14.84 25.042-37.154 19.005-59.693-4.514-16.894-18.651-32.679-35.405-38.917-27.514-10-58.544.612-73.193 26.433"/><path fill="#359E35" d="M579.386 256.605c9.082 18.522 5.537 43.96-7.396 59.748-12.856 15.137-30.033 23.34-50.151 22.813l-193.637.154 162.209-109.496c15.821-9.911 39.927-11.719 57.244-3.708 13.343 5.036 25.905 17.775 31.731 30.489"/><linearGradient id="g" gradientUnits="userSpaceOnUse" x1="337.201" y1="410.273" x2="342.326" y2="407.927" gradientTransform="matrix(2.8704 0 0 -2.7863 -584.296 1330.935)"><stop offset="0"/><stop offset="1" stop-opacity="0"/></linearGradient><path fill="url(#g)" d="M426.241 121.073l-86.777 191.825c58.45-37.873 117.882-79.645 176.37-119.648 17.811-14.84 25.042-37.154 19.005-59.693-4.514-16.894-18.651-32.679-35.405-38.917-27.514-10-58.544.612-73.193 26.433"/><linearGradient id="h" gradientUnits="userSpaceOnUse" x1="252.01" y1="349.616" x2="252.01" y2="361.229" gradientTransform="matrix(2.8704 0 0 -2.7863 -584.296 1330.935)"><stop offset="0"/><stop offset=".5" stop-opacity=".212"/><stop offset="1" stop-opacity="0"/></linearGradient><path fill="url(#h)" d="M16.011 256.605c-9.082 18.522-5.537 43.96 7.396 59.748 12.856 15.137 30.033 23.34 50.151 22.813l193.637.154-162.207-109.494c-15.822-9.911-39.928-11.719-57.244-3.708-13.345 5.034-25.906 17.773-31.733 30.487"/><linearGradient id="i" gradientUnits="userSpaceOnUse" x1="362.536" y1="351.628" x2="362.536" y2="359.84" gradientTransform="matrix(2.8704 0 0 -2.7863 -584.296 1330.935)"><stop offset="0"/><stop offset=".571" stop-opacity=".228"/><stop offset="1" stop-opacity="0"/></linearGradient><path fill="url(#i)" d="M579.386 256.605c9.082 18.522 5.537 43.96-7.396 59.748-12.856 15.137-30.033 23.34-50.151 22.813l-193.637.154 162.209-109.496c15.821-9.911 39.927-11.719 57.244-3.708 13.343 5.036 25.905 17.775 31.731 30.489"/><linearGradient id="j" gradientUnits="userSpaceOnUse" x1="249.017" y1="385.18" x2="255.297" y2="393.973" gradientTransform="matrix(2.8704 0 0 -2.7863 -584.296 1330.935)"><stop offset="0"/><stop offset="1" stop-opacity="0"/></linearGradient><path fill="url(#j)" d="M169.157 121.073l86.777 191.499c-59.374-37.874-120.17-77.357-177.677-117.034-17.811-14.84-23.735-39.442-17.698-61.981 4.514-16.894 18.651-32.679 35.405-38.917 27.513-10 58.543.612 73.193 26.433"/><linearGradient id="k" gradientUnits="userSpaceOnUse" x1="271.313" y1="418.351" x2="277.121" y2="420.814" gradientTransform="matrix(2.8704 0 0 -2.7863 -584.296 1330.935)"><stop offset="0"/><stop offset="1" stop-opacity="0"/></linearGradient><path fill="url(#k)" d="M283.386 41.37c6.106 11.582 9.744 24.811 7.542 39.361-12.176 66.557-17.846 135.047-31.149 201.061-29.813-63.026-56.938-127.352-85.049-191.164-7.203-22.566-.495-46.106 15.579-62.236 16.258-16.815 43.154-21.401 64.346-12.221 11.306 4.906 22.006 14.047 28.731 25.199"/><linearGradient id="l" gradientUnits="userSpaceOnUse" x1="87.605" y1="-106.455" x2="93.858" y2="-106.455" gradientTransform="translate(6.534 343.318) scale(1.849)"><stop offset="0" stop-color="#fff"/><stop offset="1" stop-color="#fff" stop-opacity="0"/></linearGradient><path fill="url(#l)" d="M282.208 43.439c5.977 11.335 9.536 24.282 7.381 38.523-11.916 65.139-17.466 132.17-30.485 196.777-29.178-61.685-55.725-124.64-83.237-187.091-7.049-22.085-.484-45.124 15.247-60.91 15.912-16.457 42.235-20.945 62.976-11.96 11.065 4.8 21.536 13.746 28.118 24.661"/><linearGradient id="m" gradientUnits="userSpaceOnUse" x1="234.155" y1="-80.666" x2="231.92" y2="-80.903" gradientTransform="translate(-18.626 302.37) scale(1.849)"><stop offset="0" stop-color="#fff"/><stop offset="1" stop-color="#fff" stop-opacity="0"/></linearGradient><path fill="url(#m)" d="M361 14.268c-7.084.222-14.09 1.7-20.57 4.507-11.064 4.801-21.559 13.757-28.141 24.673-4.368 8.285-7.427 17.444-7.916 27.331h30.856c10.537 2.907 9.426 7.38.521 10.921-12.672 3.947-20.38 13.507-26.753 23.979 9.3 57.61 14.96 116.262 26.406 173.058 29.178-61.685 55.752-124.647 83.265-187.099 7.049-22.085.476-45.116-15.255-60.902-10.94-11.314-26.829-16.957-42.413-16.468zm-56.627 61.076c.036 1.129.067 2.262.174 3.409l-.058-3.409h-.116z"/><linearGradient id="n" gradientUnits="userSpaceOnUse" x1="304.095" y1="423.199" x2="299.54" y2="423.786" gradientTransform="matrix(2.8704 0 0 -2.7863 -584.296 1330.935)"><stop offset="0"/><stop offset="1" stop-opacity="0"/></linearGradient><path fill="url(#n)" d="M283.386 41.37c6.106 11.582 9.744 24.811 7.542 39.361-12.176 66.557-17.846 135.047-31.149 201.061-29.813-63.026-56.938-127.352-85.049-191.164-7.203-22.566-.495-46.106 15.579-62.236 16.258-16.815 43.154-21.401 64.346-12.221 11.306 4.906 22.006 14.047 28.731 25.199"/><linearGradient id="o" gradientUnits="userSpaceOnUse" x1="305.401" y1="425.099" x2="303.399" y2="425.099" gradientTransform="matrix(2.8704 0 0 -2.7863 -584.296 1330.935)"><stop offset="0" stop-color="#fff"/><stop offset="1" stop-color="#fff" stop-opacity="0"/></linearGradient><path fill="url(#o)" d="M282.208 43.439c5.977 11.335 9.536 24.282 7.381 38.523-11.916 65.139-17.466 132.17-30.485 196.777-29.178-61.685-55.725-124.64-83.237-187.091-7.049-22.085-.484-45.124 15.247-60.91 15.912-16.457 42.235-20.945 62.976-11.96 11.065 4.8 21.536 13.746 28.118 24.661"/><linearGradient id="p" gradientUnits="userSpaceOnUse" x1="129.041" y1="-186.082" x2="140.548" y2="-85.746" gradientTransform="translate(-18.626 302.37) scale(1.849)"><stop offset="0" stop-color="#fff"/><stop offset="1" stop-color="#fff" stop-opacity="0"/></linearGradient><path fill="url(#p)" d="M229.257 14.268c-14.175.568-28.191 6.182-38.137 16.468-13.068 13.114-17.477 30.571-14.562 48.768 23.9 9.19 61.769 10.731 112.444 5.258h.116c.166-.926.293-1.849.462-2.773 2.155-14.241-1.419-27.207-7.396-38.541-6.582-10.916-17.018-19.872-28.083-24.673-7.776-3.369-16.34-4.848-24.844-4.507z"/><linearGradient id="q" gradientUnits="userSpaceOnUse" x1="211.707" y1="339.549" x2="243.592" y2="364.888" gradientTransform="matrix(2.8704 0 0 -2.7863 -584.296 1330.935)"><stop offset="0"/><stop offset=".506" stop-opacity=".192"/><stop offset=".691" stop-opacity=".067"/><stop offset="1" stop-opacity="0"/></linearGradient><path fill="url(#q)" d="M16.011 256.605c-9.082 18.522-5.537 43.96 7.396 59.748 12.856 15.137 30.033 23.34 50.151 22.813l193.637.154-162.207-109.494c-15.822-9.911-39.928-11.719-57.244-3.708-13.345 5.034-25.906 17.773-31.733 30.487"/><linearGradient id="r" gradientUnits="userSpaceOnUse" x1="402.829" y1="339.547" x2="370.944" y2="364.886" gradientTransform="matrix(2.8704 0 0 -2.7863 -584.296 1330.935)"><stop offset="0"/><stop offset=".506" stop-opacity=".192"/><stop offset=".691" stop-opacity=".067"/><stop offset="1" stop-opacity="0"/></linearGradient><path fill="url(#r)" d="M579.358 256.605c9.081 18.522 5.536 43.96-7.396 59.748-12.856 15.137-30.033 23.34-50.151 22.813l-193.637.154 162.208-109.495c15.821-9.911 39.927-11.719 57.244-3.708 13.344 5.035 25.906 17.774 31.732 30.488"/><linearGradient id="s" gradientUnits="userSpaceOnUse" x1="363.386" y1="388.361" x2="358.555" y2="394.997" gradientTransform="matrix(2.8704 0 0 -2.7863 -584.296 1330.935)"><stop offset="0"/><stop offset="1" stop-opacity="0"/></linearGradient><path fill="url(#s)" d="M426.241 121.073l-86.777 191.825c58.45-37.873 117.882-79.645 176.37-119.648 17.811-14.84 25.042-37.154 19.005-59.693-4.514-16.894-18.651-32.679-35.405-38.917-27.514-10-58.544.612-73.193 26.433"/><linearGradient id="t" gradientUnits="userSpaceOnUse" x1="226.002" y1="433.018" x2="228.24" y2="431.804" gradientTransform="matrix(2.8704 0 0 -2.7863 -584.296 1330.935)"><stop offset="0" stop-color="#fff"/><stop offset="1" stop-color="#fff" stop-opacity="0"/></linearGradient><path fill="url(#t)" d="M116.892 93.545c-8.433.008-22.01 2.764-29.311 7.437-16.237 9.158-29.445 28.283-23.271 43.354l-2.754-.008c25.058-.499 63.407-9.65 81.867.999 41.571 33.302 71.257 100.104 98.726 139.159L166.99 123.015c-11.395-20.91-30.21-29.491-49.422-29.469l-.676-.001z"/><linearGradient id="u" gradientUnits="userSpaceOnUse" x1="26.558" y1="-42.459" x2="29.118" y2="-40.357" gradientTransform="matrix(-1.849 0 0 1.849 602.007 303.894)"><stop offset="0" stop-color="#fff"/><stop offset="1" stop-color="#fff" stop-opacity="0"/></linearGradient><path opacity=".69" fill="url(#u)" d="M525.275 225.944c8.416-.104 21.39 1.767 26.177 3.555 14.448 6.267 29.971 26.685 28.34 34.263-29.498-9.348-76.149-8.834-105.48 5.403-45.427 23.422-92.091 47.739-131.107 68.01 45.717-31.688 102.383-69.5 151.968-102.968 8.401-5.264 19.28-8.129 30.102-8.263z"/><linearGradient id="v" gradientUnits="userSpaceOnUse" x1="151.598" y1="7.975" x2="-13.402" y2="-46.025" gradientTransform="matrix(-1.849 0 0 1.849 598.947 302.37)"><stop offset="0" stop-color="#fff" stop-opacity=".75"/><stop offset="1" stop-color="#fff" stop-opacity="0"/></linearGradient><path opacity=".75" fill="url(#v)" d="M522.213 224.424c8.416-.104 16.825 1.428 23.979 4.737 14.273 6.787 23.95 16.771 27.54 25.667.849 1.729.741 5.685 1.358 7.526-30.497-24.538-64.563-14.093-103.843 5.29-45.427 23.422-92.091 47.737-131.108 68.01 45.718-31.689 102.383-69.5 151.968-102.968 8.405-5.264 19.285-8.129 30.106-8.262z"/><linearGradient id="w" gradientUnits="userSpaceOnUse" x1="49.873" y1="-12.287" x2="-8.876" y2="-12.537" gradientTransform="translate(-18.626 302.37) scale(1.849)"><stop offset="0" stop-color="#fff" stop-opacity=".75"/><stop offset="1" stop-color="#fff" stop-opacity="0"/></linearGradient><path opacity=".69" fill="url(#w)" d="M73.591 224.424c-8.416-.104-16.825 1.428-23.979 4.737-15.293 5.929-33.183 24.994-29.692 33.079 29.498-9.347 75.305-8.833 104.636 5.404 45.427 23.422 92.09 47.737 131.108 68.01-45.717-31.689-102.383-69.5-151.968-102.968-8.404-5.264-19.285-8.129-30.105-8.262z"/><linearGradient id="x" gradientUnits="userSpaceOnUse" x1="100.154" y1="-143.23" x2="94.668" y2="-71.184" gradientTransform="translate(-18.626 302.37) scale(1.849)"><stop offset="0" stop-color="#fff"/><stop offset="1" stop-color="#fff" stop-opacity="0"/></linearGradient><path fill="url(#x)" d="M116.754 93.545c-6.403.007-20.319 2.087-27.62 6.761-13.621 9.135-18.427 16.99-23.229 34.265-.856 3.229-1.403 6.485-1.733 9.765l.289-.347c25.058-.499 60.364-9.313 78.825 1.337 41.57 33.303 71.256 100.104 98.725 139.159l-75.159-161.471c-11.394-20.91-30.886-29.491-50.098-29.469z"/><linearGradient id="y" gradientUnits="userSpaceOnUse" x1="216.373" y1="-138.522" x2="98.616" y2="-58.798" gradientTransform="translate(-18.49 302.37) scale(1.849)"><stop offset="0" stop-color="#fff"/><stop offset="1" stop-color="#fff" stop-opacity="0"/></linearGradient><path fill="url(#y)" d="M116.892 93.545c-6.403.008-20.319 2.087-27.62 6.761-13.621 9.135-18.427 16.99-23.229 34.265-.856 3.229-1.403 6.485-1.733 9.765l.289-.347c25.058-.499 60.364-9.313 78.824 1.337 41.571 33.303 71.257 100.104 98.726 139.159L166.99 123.014c-11.395-20.91-30.887-29.491-50.098-29.469z"/><linearGradient id="z" gradientUnits="userSpaceOnUse" x1="91.779" y1="-143.23" x2="86.293" y2="-71.183" gradientTransform="matrix(-1.849 0 0 1.849 598.208 302.37)"><stop offset="0" stop-color="#fff"/><stop offset="1" stop-color="#fff" stop-opacity="0"/></linearGradient><path fill="url(#z)" d="M478.313 93.545c6.403.008 20.319 2.087 27.62 6.761 13.621 9.135 18.428 16.99 23.229 34.265.855 3.229 1.402 6.485 1.732 9.765l-.289-.347c-25.058-.499-60.363-9.313-78.824 1.337-41.57 33.303-71.256 100.104-98.726 139.159l75.159-161.471c11.395-20.91 30.888-29.491 50.099-29.469z"/><linearGradient id="A" gradientUnits="userSpaceOnUse" x1="208.003" y1="-138.524" x2="90.242" y2="-58.797" gradientTransform="matrix(-1.849 0 0 1.849 598.236 302.37)"><stop offset="0" stop-color="#fff"/><stop offset="1" stop-color="#fff" stop-opacity="0"/></linearGradient><path fill="url(#A)" d="M478.34 93.545c6.404.008 20.32 2.087 27.62 6.761 13.622 9.135 18.428 16.99 23.229 34.265.856 3.229 1.403 6.485 1.732 9.765l-.289-.347c-25.057-.499-60.363-9.313-78.824 1.337-41.57 33.303-71.257 100.104-98.725 139.159l75.159-161.471c11.395-20.91 30.887-29.491 50.098-29.469z"/><linearGradient id="B" gradientUnits="userSpaceOnUse" x1="34.933" y1="-42.459" x2="37.493" y2="-40.356" gradientTransform="translate(-22.177 303.894) scale(1.849)"><stop offset="0" stop-color="#fff"/><stop offset="1" stop-color="#fff" stop-opacity="0"/></linearGradient><path opacity=".69" fill="url(#B)" d="M70.041 225.944c-8.417-.104-21.391 1.767-26.178 3.555-14.448 6.267-29.971 26.685-28.34 34.263 29.498-9.348 76.149-8.834 105.481 5.403 45.426 23.422 92.09 47.739 131.108 68.01-45.718-31.688-102.383-69.5-151.968-102.968-8.402-5.264-19.282-8.129-30.103-8.263z"/><linearGradient id="C" gradientUnits="userSpaceOnUse" x1="159.832" y1="8.571" x2="-4.918" y2="-46.179" gradientTransform="translate(-18.626 302.37) scale(1.849)"><stop offset="0" stop-color="#fff" stop-opacity=".75"/><stop offset="1" stop-color="#fff" stop-opacity="0"/></linearGradient><path opacity=".69" fill="url(#C)" d="M73.591 224.424c-8.416-.104-16.825 1.428-23.979 4.737-15.293 5.929-33.183 24.994-29.692 33.079 29.498-9.347 75.305-8.833 104.636 5.404 45.427 23.422 92.09 47.737 131.108 68.01-45.717-31.689-102.383-69.5-151.968-102.968-8.404-5.264-19.285-8.129-30.105-8.262z"/><linearGradient id="D" gradientUnits="userSpaceOnUse" x1="388.461" y1="433.017" x2="386.223" y2="431.803" gradientTransform="matrix(2.8704 0 0 -2.7863 -584.296 1330.935)"><stop offset="0" stop-color="#fff"/><stop offset="1" stop-color="#fff" stop-opacity="0"/></linearGradient><path fill="url(#D)" d="M478.263 93.545c8.433.008 22.011 2.764 29.312 7.437 16.235 9.158 29.444 28.283 23.271 43.354l2.754-.008c-25.058-.499-63.406-9.65-81.867.999-41.571 33.302-71.258 100.104-98.726 139.159l75.159-161.471c11.394-20.91 30.21-29.491 49.421-29.469l.676-.001z"/><linearGradient id="E" gradientUnits="userSpaceOnUse" x1="285.801" y1="367.746" x2="269.267" y2="389.468" gradientTransform="matrix(-2.8704 0 0 -2.7863 1163.943 1330.935)"><stop offset="0" stop-color="#fff"/><stop offset="1" stop-color="#fff" stop-opacity="0"/></linearGradient><path fill="url(#E)" d="M478.241 93.545c6.403.008 20.318 2.087 27.62 6.761 13.621 9.135 18.428 16.99 23.229 34.265.856 3.229 1.403 6.485 1.733 9.765l-.289-.347c-25.059-.499-60.363-9.313-78.824 1.337-41.571 33.303-71.257 100.104-98.726 139.159l75.158-161.471c11.395-20.91 30.888-29.491 50.099-29.469z"/><linearGradient id="F" gradientUnits="userSpaceOnUse" x1="292.015" y1="367.469" x2="274.911" y2="389.66" gradientTransform="matrix(2.8704 0 0 -2.7863 -584.296 1330.935)"><stop offset="0" stop-color="#fff"/><stop offset="1" stop-color="#fff" stop-opacity="0"/></linearGradient><path fill="url(#F)" d="M116.892 93.545c-6.403.008-20.319 2.087-27.62 6.761-13.621 9.135-18.427 16.99-23.229 34.265-.856 3.229-1.403 6.485-1.733 9.765l.289-.347c25.058-.499 60.364-9.313 78.824 1.337 41.571 33.303 71.257 100.104 98.726 139.159L166.99 123.014c-11.395-20.91-30.887-29.491-50.098-29.469z"/><path d="M175.988 375.206v109.088h-.242L84.914 375.206H61.063V532.47h26.982V423.366h.242l90.832 109.104h23.85V375.206zm142.396 157.252c22.648 0 33.01-6.263 40.717-13.483 10.601-10.12 14.458-21.917 14.458-33.471 0-19.269-10.362-35.407-28.679-39.742 11.338-4.569 20.004-17.582 20.004-32.025 0-9.63-3.859-18.059-10.6-24.805-7.717-7.702-20.004-13.731-37.824-13.731h-95.175v157.258h97.099zm.965-70.567a27.24 27.24 0 0 1 19.76 8.434c3.848 4.09 6.257 9.16 6.257 14.938 0 5.778-2.409 11.796-6.505 15.898-4.816 4.817-12.048 7.23-19.512 7.23h-71.082v-46.5h71.082zm-5.783-62.608c7.468 0 13.246 1.688 17.594 6.021 3.367 3.372 5.529 8.19 5.529 13.487 0 5.781-2.409 11.563-6.505 15.659-4.332 4.333-10.114 5.778-16.618 5.778h-65.299v-40.945h65.299zm213.23 87.424c-13.498 14.453-34.459 26.48-59.031 26.48-35.179 0-58.064-26.48-58.064-59.233 0-32.507 22.4-59.488 56.861-59.488 19.275 0 40.955 8.429 54.938 21.676l18.306-18.06c-17.593-16.383-45.05-27.693-73.728-27.693-50.357 0-84.809 37.809-84.809 83.321 0 46.238 34.214 83.565 86.016 83.565 34.213 0 60.709-15.896 77.576-32.752l-18.065-17.816z"/></svg>