<svg xmlns="http://www.w3.org/2000/svg" xmlns:xlink="http://www.w3.org/1999/xlink" width="302" height="302" viewBox="0 0 302 302"><defs><linearGradient id="a"><stop offset="0" stop-color="#63bd2a"/><stop offset=".584" stop-color="#63bd2a"/><stop offset="1" stop-color="#c3db4f"/></linearGradient><linearGradient x1="489.154" y1="293.126" x2="486.936" y2="-1.919" id="b" xlink:href="#a" gradientUnits="userSpaceOnUse" gradientTransform="translate(-323.975 3.328)"/></defs><path fill="url(#b)" stroke="#8ee558" d="M1 1h300v300H1z"/><path d="M300.705 106.589v10.999h-40.351v77.82h-50.905v-77.826H169.13v-10.993z"/><path d="M155.676 156.975l.014-.008c10.488-3.263 18.104-13.045 18.104-24.608 0-14.231-11.535-25.767-25.766-25.767l.094-.003H40.004l.004 88.822h50.919v-37.874h14.823l26.542 37.874 53.146-.005-29.762-38.431zm-48.202-9.553v.011H90.932v-30.724h16.542v-.007c8.482 0 15.36 6.876 15.36 15.359 0 8.484-6.878 15.361-15.36 15.361z"/></svg>