<svg xmlns="http://www.w3.org/2000/svg" width="319" height="350" viewBox="0 0 255.20001 279.99999" fill-rule="evenodd"><title>Telesur logo</title><path d="M133.821 308.358c-1.484 4.154-6.602 4.228-9.495 7.27-1.558-1.41 1.335-2.374 1.112-3.932 2.078-2.744 4.897-3.858 8.383-3.338zm-14.466 25.075c-1.112 3.042-3.116 6.157-5.044 8.309h-.52c0-3.635 4.155-6.084 4.97-8.903l.594.594zm25.595 35.609c-1.336 3.858-1.41 8.013-6.158 9.422h-1.632c-.297-3.56 3.858-8.308 7.79-9.422z" fill="#fff"/><path d="M103.909 55.35a5.335 5.335 0 0 1-5.334 5.336H55.764a5.335 5.335 0 0 1-5.333-5.335V12.544a5.334 5.334 0 0 1 5.333-5.334h42.81a5.334 5.334 0 0 1 5.335 5.334V55.35z" fill="#c15151"/><path d="M162.16 151.411a5.185 5.185 0 0 1-5.186 5.186H115.37a5.184 5.184 0 0 1-5.181-5.186v-41.606a5.182 5.182 0 0 1 5.181-5.183h41.604a5.184 5.184 0 0 1 5.185 5.183v41.606z" fill="#66689e"/><path d="M127.512 195.291a3.482 3.482 0 0 1-3.48 3.484h-27.94a3.482 3.482 0 0 1-3.48-3.484v-27.936a3.48 3.48 0 0 1 3.48-3.482h27.94a3.48 3.48 0 0 1 3.48 3.482v27.936z" fill="#469bd0"/><path d="M141.32 91.333a7.265 7.265 0 0 1-7.264 7.265H75.774a7.264 7.264 0 0 1-7.262-7.265V33.051a7.263 7.263 0 0 1 7.262-7.264h58.282a7.264 7.264 0 0 1 7.264 7.264v58.282z" fill="#edb156"/><path d="M218.398 131.832a7.192 7.192 0 0 1-7.191 7.19h-57.684c-3.965 0-7.181-3.22-7.181-7.19V74.151c0-3.968 3.216-7.188 7.18-7.188h57.685c3.97 0 7.191 3.22 7.191 7.188v57.681z" fill="#00a25d"/><path d="M18.566 217.487v14.788h10.846v5.765H18.566v22.38c0 5.165 1.463 8.096 5.68 8.096 2.068 0 3.273-.175 4.392-.515l.344 5.764c-1.463.515-3.788 1.032-6.714 1.032-3.529 0-6.372-1.205-8.178-3.184-2.066-2.324-2.927-6.028-2.927-10.934V238.04H4.708v-5.765h6.455v-12.462l7.403-2.326zm213.643 40.885l8.944 15.772h12.556l-9.651-17.02c4.38-1.783 6.544-5.547 6.544-11.753 0-8.99-4.471-13.485-13.46-13.485h-17.564v42.408h10.513v-15.922h2.118zm-66.56-22.587c0 2.166.137 4.388.365 6.718-4.653-2.33-8.894-3.628-13.132-3.628-3.919 0-5.901 1.462-5.901 4.166 0 2.924 2.624 3.525 7.973 4.659 8.39 1.786 12.631 5.147 12.631 14.029 0 8.773-4.935 13.812-14.245 13.812-5.3 0-10.189-.759-14.567-2.222-.089-4.115-.229-7.691-.6-10.78 4.89 2.818 9.82 4.171 13.879 4.171 4.284 0 6.313-1.19 6.313-4.115 0-3.36-2.399-3.792-6.73-4.874-4.012-1.03-7.237-1.734-9.678-3.792-2.49-2.114-4.013-5.685-4.013-9.749 0-8.286 5.254-13.54 15.214-13.54 3.548 0 7.79.65 12.539 2.114-.048 1.081-.048 2.165-.048 3.031zm19.957-3.899v24.48c0 6.015 2.03 8.94 7.008 8.94s7.003-2.925 7.003-8.94v-20.754l10.096-3.726v24.696c0 13.218-4.796 18.959-17.516 18.959-12.032 0-17.192-5.362-17.192-18.364v-21.565l10.601-3.726zM39.999 254.482c.173 10.158 6.63 14.376 14.203 14.376 5.424 0 8.78-.947 11.535-2.152l1.378 5.424c-2.668 1.203-7.316 2.667-13.945 2.667-12.74 0-20.486-8.522-20.486-21.004 0-12.565 7.488-22.465 19.626-22.465 13.6 0 17.129 11.966 17.129 19.625 0 1.552-.085 2.667-.257 3.529H39.999zM77.1 214.497h7.574v59.442H77.1v-59.442zm22.898 39.985c.172 10.158 6.628 14.376 14.203 14.376 5.422 0 8.782-.947 11.535-2.152l1.377 5.424c-2.67 1.203-7.317 2.667-13.945 2.667-12.74 0-20.486-8.522-20.486-21.004 0-12.565 7.488-22.465 19.625-22.465 13.6 0 17.13 11.966 17.13 19.625 0 1.552-.084 2.667-.259 3.529h-29.18zm130.093-3.37h3.685c4.517 0 6.73-1.19 6.73-6.28 0-4.604-2.118-5.634-6.497-5.634h-3.918v11.914zm-107.97-2.052c.085-4.819-1.981-12.309-10.416-12.309-7.748 0-11.018 7.059-11.622 12.309h22.038zm-59.997 0c.085-4.819-1.982-12.309-10.417-12.309-7.748 0-11.018 7.059-11.621 12.309h22.038z" fill="#737476"/></svg>