<svg xmlns="http://www.w3.org/2000/svg" xmlns:xlink="http://www.w3.org/1999/xlink" version="1" width="106.99" height="66.04"><defs><linearGradient id="a"><stop offset="0" stop-color="#2dc5fb"/><stop offset="1" stop-color="#0040c0"/></linearGradient><linearGradient x1="582.438" y1="395.657" x2="476.448" y2="330.615" id="b" xlink:href="#a" gradientUnits="userSpaceOnUse" gradientTransform="translate(-475.943 -330.11)"/></defs><path d="M12.594.5C11.78.5 7.53.545 7.53 3.531l-.03 7.031c0 .648-.354 1-1 1H3.531c-.98 0-3.031.977-3.031 5.094 0 4.102 2.013 4.875 3 4.875h3c.503.018.997.568 1 1.032v4.218L7.469 39.97c0 3.062 3.131 13.562 13.281 13.562h2.469c4.658 0 8.274-4.395 8.281-6 .021.022.063.02.063-.468 0-.653-.204-2.455-2.22-3.282-.138-.057-.585-.345-1.655 0-1.06.343-2.325.75-3.97.75-.1 0-2.277-.03-2.312-.031-1.69-.045-3.907-2.521-4-5.563-.001-.041.125-16.406.125-16.406-.002-.478.284-.983 1-.968h5.032c.94 0 3-1.006 3-5 0-3.98-2.07-5.032-3.063-5.032-.775 0-5.031.031-5.031.031-.58 0-1-.198-1-1V3.439C17.469.268 13.429.5 12.594.5zM84.53 11.531c-10.321.07-19 12.969-19 25.5v1.594c0 13.643 7.327 26.862 23.188 26.906 1.15.003 1.165-.002.937 0 8.256-.188 15.906-4.48 15.906-9 0-2.515-1.519-3.781-2.843-3.781-3.86 0-4.978 3.781-11.719 3.781-7.982 0-14.469-6.496-14.469-11v-3c0-.545.438-1 1-1l22-.031c4.02 0 6.969-1.959 6.969-5.969V32.47c0-8.462-6.74-20.938-18.313-20.938H84.53zm-49.969.031c-3.64 0-5.03 1.588-5.03 3.626 0 2.415 2.19 7.561 5 14.75 3.788 9.692 6.491 18.447 7.968 20.437 1.009 1.66 2.511 3.094 5.5 3.094 3.115 0 4.495-1.499 5.5-3.063 1.583-2.027 13.031-32.737 13.031-35.218 0-1.61-1.56-3.626-5.031-3.626h-.938c-2.031 0-3.601 2.008-4.03 3.063-.051.1-8.5 22.5-8.5 22.5l-.782-2.031-7.813-20.438c-.578-1.617-1.935-3.094-3.968-3.094h-.907zm53 7.97c5.162 0 8.094 5.63 7.938 9.062-.03.771 0 3.031 0 3.031 0 .488-.424.906-1 .906H77.562c-.529 0-1.062-.488-1.062-1V30.47c0-6.001 4.745-10.907 9.094-10.907.763 0 .917-.03 1.969-.03z" fill="url(#b)" fill-rule="evenodd"/></svg>