<svg xmlns="http://www.w3.org/2000/svg" width="74" height="91"><defs><clipPath id="a"><path d="M0 792h612V0H0v792z"/></clipPath></defs><g clip-path="url(#a)" transform="matrix(1.24535 0 0 -1.24582 -472.279 538.777)"><path d="M410.864 378.098l-1.735-11.53h-.14l-1.959 11.53h-4.674l-2.014-11.502h-.14l-2.212 11.502h-18.753v-4.2h4.954v-14.411h4.785v14.412h5.091l3.056-14.412h5.121l2.323 9.823h.112l2.24-9.823h5.036l3.722 18.61h-4.813zm6.437-4.2h4.702v-14.412h-4.702v14.412zm21.326 4.2v-4.2h-5.15v-14.411h-4.786v14.412h-4.953v4.199h14.889z" fill="#231f20"/><path d="M419.652 380.225c1.483 0 2.49-1.035 2.49-2.323 0-1.343-1.007-2.323-2.49-2.323-1.539 0-2.49.98-2.49 2.323 0 1.288.951 2.323 2.49 2.323" fill="#dd2127"/><path d="M432.076 408.665c0 13.132-10.645 23.776-23.775 23.776-13.13 0-23.776-10.644-23.776-23.776 0-13.131 10.645-23.776 23.776-23.776 13.13 0 23.775 10.645 23.775 23.776" fill="#34aad2"/><path d="M413.068 416.28a2.14 2.14 0 0 1-2.137-2.138c0-1.179.96-2.14 2.137-2.14a2.139 2.139 0 0 1 0 4.277" fill="#dd1f25"/><path d="M406.166 410.05v5.815h-4.275v-5.814h-6.959c1.187 6.496 6.865 11.426 13.703 11.426 6.84 0 12.517-4.93 13.705-11.426h-16.174zm20.766-2.518c0 10.107-8.192 18.298-18.297 18.298-10.104 0-18.297-8.191-18.297-18.298 0-.592.033-1.177.088-1.756h11.465v-10.272h4.275v10.272h4.766v-10.272h4.275v10.272h11.637c.054.579.088 1.164.088 1.756" fill="#221f1f"/></g></svg>