<svg xmlns="http://www.w3.org/2000/svg" width="1000" height="1101.831"><path d="M174.578 1092.72l-1.579 3.077c-6.125 3.529-14.076 5.506-23.14 5.506-9.53 0-17.015-2.197-23.14-6.605-5.218-3.969-9.984-9.929-14.53-17.633H56.106L47.7 1098.68H.5l62.855-143.33h41.295l44.014 93.713c5.219 11.234 8.844 13.459 12.47 13.459 2.046 0 4.326-.88 4.985-1.552l2.719 1.552 5.74 30.198zm-107.116-44.33h32.23l-15.655-42.558-16.575 42.559zm239.638-14.117v64.394h-44.48v-61.29c0-8.61-4.765-15.216-14.75-15.216-9.763 0-14.748 6.605-14.748 15.216v61.29H188.64v-68.13c0-4.627-1.827-7.058-4.985-7.058-1.36 0-2.5.453-3.186 1.099l-2.72-1.552-4.765-28.674 1.58-3.077c6.578-3.749 14.529-5.506 21.78-5.506 10.45 0 19.734 3.749 25.42 11.686 9.53-7.058 22.013-11.686 36.31-11.686 28.825 0 49.026 18.731 49.026 48.504zm112.336 54.465l-1.14 3.076c-8.624 6.18-20.201 9.476-31.764 9.476-23.374 0-46.98-13.665-46.98-45.635v-36.378H319.57v-30.872h19.982v-30.871l40.635-4.848 3.406 1.978v33.728h32.231v30.871H383.58v31.091c0 10.149 5.219 14.557 11.344 14.557 3.186 0 6.811-1.318 9.983-3.53l2.72 1.553 11.81 25.804zm49.48-35.047c1.826 12.127 13.39 17.208 26.326 17.208 10.89 0 20.42-3.53 27.246-9.915h3.186l18.608 17.866v3.076c-13.39 14.557-34.044 19.405-51.746 19.405-35.17 0-66.275-19.405-66.275-57.54 0-33.949 24.747-57.995 62.636-57.995 36.996 0 61.73 23.14 61.73 57.994 0 3.31-.22 6.606-.907 9.929h-80.79v-.028h-.014zm-.22-19.844h39.496c-.22-11.467-8.171-19.184-19.762-19.184-11.59 0-19.514 7.704-19.734 19.184zm223.53.426v64.394h-44.48v-61.29c0-8.61-4.766-15.216-14.75-15.216-9.75 0-14.749 6.605-14.749 15.216v61.29h-44.48v-68.13c0-4.627-1.813-7.058-4.986-7.058-1.36 0-2.5.453-3.186 1.099l-2.719-1.552-4.765-28.674 1.579-3.077c6.592-3.749 14.53-5.506 21.78-5.506 10.451 0 19.735 3.749 25.42 11.686 9.53-7.058 22.014-11.686 36.31-11.686 28.825 0 49.026 18.731 49.026 48.504zm146.16 58.447l-1.58 3.077c-6.578 3.749-13.829 5.506-21.093 5.506-10.451 0-19.735-3.749-25.64-11.467-9.31 6.826-21.78 11.467-36.53 11.467-25.886 0-47.2-13.884-47.2-36.158 0-23.374 23.608-34.62 51.527-34.62 8.624 0 15.435 1.098 21.78 2.87v-3.53c0-8.377-7.265-14.763-19.515-14.763-10.45 0-19.06 4.628-23.606 8.83h-3.186l-18.375-17.633v-3.076c11.81-10.355 28.825-17.413 50.386-17.413 27.919 0 57.431 12.126 57.431 42.997v27.796c0 4.628 1.826 7.059 4.985 7.059 1.36 0 2.5-.454 3.186-1.1l2.72 1.553 4.71 28.605zm-58.791-29.773v-6.825c-2.939-1.098-8.171-2.65-14.076-2.65-10.67 0-15.656 4.847-15.656 11.233 0 7.059 6.578 11.261 14.063 11.261 9.764-.013 15.669-7.292 15.669-13.019zm218.999-5.3c0 27.342-25.42 43.656-61.51 43.656-22.48 0-48.12-9.036-59.917-24.911v-3.09l20.874-20.943h3.186c5.686 6.4 18.622 15.89 32.904 15.89 11.344 0 18.842-5.082 18.842-13.24 0-10.587-9.53-15.01-24.06-15.01h-15.89v-28.674h19.296c10.67 0 17.935-5.506 17.935-13.238 0-9.929-9.064-12.36-17.935-12.36-9.984 0-19.982 3.97-27 9.256h-3.185l-17.015-22.055v-3.076c14.749-11.687 32.684-17.193 53.778-17.193 29.965 0 55.151 12.785 55.151 41.899 0 11.686-7.045 22.04-17.249 29.32 13.39 6.646 21.795 17.907 21.795 33.769zm-782.91-588.099c72.264-119.999 140.137-242.695 220.25-357.861 15.993-22.985 32.723-45.6 45.404-70.67 7.457-14.742 5.593-26.173-4.685-33.753-10.106-7.457-23.5-7.187-32.305-6.353-220.815 17.76-440.649 165.5-442.685 378.05.54 77.635 43.933 171.608 79.329 196.383 26.516 18.593 50.138 16.116 76.606-16.092 22.714-27.669 39.688-59.19 58.086-89.704zm627.882 89.704c26.467 32.208 50.065 34.685 76.606 16.092 35.371-24.8 78.764-118.772 79.328-196.384C997.44 166.412 777.606 18.67 556.791.911c-8.806-.834-22.199-1.104-32.305 6.353-10.254 7.58-12.142 19.01-4.685 33.753 12.681 25.07 29.41 47.685 45.404 70.67 80.138 115.166 147.986 237.862 220.25 357.86 18.398 30.516 35.372 62.036 58.11 89.705zM542.049 378.004c-20.826-3.14-36.868-3.435-41.48-3.46-4.611.025-20.653.344-41.479 3.46-121.347 18.225-205.73 86.515-257.83 195.181-26.639 55.56-14.816 93.752 33.287 131.65 2.82 2.232 5.666 4.39 8.512 6.574 8.855 5.936 17.587 11.651 26.074 17.195 125.812 82.125 171.83 111.266 190.399 119.802 7.726 3.533 21.316 10.131 40.007 10.597v.025c.344 0 .663-.025 1.006-.025.343 0 .662.025 1.006.025v-.05c18.691-.441 32.28-7.04 40.007-10.596 18.57-8.512 64.587-37.678 190.399-119.802 8.511-5.569 17.268-11.309 26.148-17.245 2.82-2.158 5.642-4.317 8.438-6.5 48.103-37.898 59.926-76.115 33.287-131.65-52.052-108.666-136.433-176.98-257.781-195.181z" fill="#ff7328"/></svg>