<svg xmlns="http://www.w3.org/2000/svg" width="537.08mm" height="968.995" viewBox="0 0 53708 25638" shape-rendering="geometricPrecision" text-rendering="geometricPrecision" image-rendering="optimizeQuality" fill-rule="evenodd" clip-rule="evenodd"><defs><style>.fil150,.fil151{fill:#016bfd}.fil148{fill:#016cfc}.fil149{fill:#016cfd}.fil146{fill:#016dfb}.fil147{fill:#016dfc}.fil145{fill:#016efb}.fil143{fill:#016ffa}.fil144{fill:#016ffb}.fil141{fill:#0170f9}.fil142{fill:#0170fa}.fil140{fill:#0171f9}.fil138{fill:#0172f8}.fil136{fill:#0173f7}.fil137{fill:#0173f8}.fil135{fill:#0174f7}.fil134{fill:#0175f6}.fil133{fill:#0176f6}.fil131{fill:#0177f5}.fil130{fill:#0178f4}.fil129{fill:#0179f4}.fil127{fill:#017af3}.fil126{fill:#017bf2}.fil125{fill:#017cf2}.fil123{fill:#017df1}.fil121{fill:#027ef0}.fil119{fill:#027fef}.fil118{fill:#0280ef}.fil117{fill:#0281ee}.fil114{fill:#0283ed}.fil113{fill:#0284ec}.fil109{fill:#0287ea}.fil105{fill:#028ae8}.fil102{fill:#028de6}.fil45{fill:#04deaf}.fil38{fill:#04e4ab}.fil33{fill:#04e8a8}.fil25{fill:#05eda5}.fil24{fill:#05eea4}.fil22{fill:#05efa3}.fil21{fill:#05f0a3}.fil20{fill:#05f1a2}.fil18{fill:#05f2a1}.fil17{fill:#05f3a1}.fil15{fill:#05f4a0}.fil14{fill:#05f5a0}.fil12{fill:#05f69f}.fil11{fill:#05f79e}.fil9{fill:#05f89d}.fil8{fill:#05f99d}.fil6{fill:#05fa9c}.fil4{fill:#05fb9b}.fil3{fill:#05fc9b}.fil1{fill:#05fd9a}</style><clipPath id="id0"><path d="M20100 16431c-1625 0-2338-1135-2338-2089 0-946 713-2081 2338-2081 826 0 1393 438 1393 438l688-1375s-791-654-2330-654c-2012 0-3843 1651-3843 3689 0 2029 1840 3662 3843 3662 1539 0 2330-653 2330-653l-688-1376s-567 439-1393 439zM5504 7678l3361 3361c1183 1183 3731 1293 4915 111L24929 0l747 746-10943 10943c-1183 1183-1245 3972-63 5155l8048 8048-747 746-8006-8006c-1183-1183-3861-1313-5044-131l-4774 4774-747-746 4842-4842c1183-1183 1275-3502 93-4685L4757 8424l747-746zm-1411 8753c-1625 0-2339-1135-2339-2089 0-946 714-2081 2339-2081 825 0 1392 438 1392 438l688-1375s-791-654-2330-654C1831 10670 0 12321 0 14359c0 2029 1840 3662 3843 3662 1539 0 2330-653 2330-653l-688-1376s-567 439-1392 439z"/></clipPath></defs><g id="Capa_x0020_1"><g id="_403091864"><g clip-path="url(#id0)"><path fill="#05fd9a" d="M0 0h50v25638H0z"/><path id="1" class="fil1" d="M0 0h150v25638H0z"/><path id="2" class="fil1" d="M100 0h151v25638H100z"/><path id="3" fill="#05fc9a" d="M201 0h150v25638H201z"/><path id="4" class="fil3" d="M301 0h150v25638H301z"/><path id="5" class="fil3" d="M401 0h151v25638H401z"/><path id="6" class="fil3" d="M501 0h151v25638H501z"/><path id="7" class="fil4" d="M602 0h150v25638H602z"/><path id="8" class="fil4" d="M702 0h151v25638H702z"/><path id="9" class="fil4" d="M802 0h151v25638H802z"/><path id="10" fill="#05fb9c" d="M903 0h150v25638H903z"/><path id="11" class="fil6" d="M1003 0h150v25638h-150z"/><path id="12" class="fil6" d="M1103 0h151v25638h-151z"/><path id="13" class="fil6" d="M1204 0h150v25638h-150z"/><path id="14" class="fil6" d="M1304 0h150v25638h-150z"/><path id="15" fill="#05f99c" d="M1404 0h151v25638h-151z"/><path id="16" class="fil8" d="M1504 0h151v25638h-151z"/><path id="17" class="fil8" d="M1605 0h150v25638h-150z"/><path id="18" class="fil8" d="M1705 0h150v25638h-150z"/><path id="19" class="fil9" d="M1805 0h151v25638h-151z"/><path id="20" class="fil9" d="M1906 0h150v25638h-150z"/><path id="21" fill="#05f89e" d="M2006 0h150v25638h-150z"/><path id="22" class="fil11" d="M2106 0h151v25638h-151z"/><path id="23" class="fil11" d="M2207 0h150v25638h-150z"/><path id="24" class="fil11" d="M2307 0h150v25638h-150z"/><path id="25" class="fil11" d="M2407 0h151v25638h-151z"/><path id="26" class="fil12" d="M2507 0h151v25638h-151z"/><path id="27" class="fil12" d="M2608 0h150v25638h-150z"/><path id="28" class="fil12" d="M2708 0h150v25638h-150z"/><path id="29" fill="#05f59f" d="M2808 0h151v25638h-151z"/><path id="30" class="fil14" d="M2909 0h150v25638h-150z"/><path id="31" class="fil14" d="M3009 0h150v25638h-150z"/><path id="32" class="fil15" d="M3109 0h151v25638h-151z"/><path id="33" class="fil15" d="M3209 0h151v25638h-151z"/><path id="34" fill="#05f3a0" d="M3310 0h150v25638h-150z"/><path id="35" class="fil17" d="M3410 0h151v25638h-151z"/><path id="36" class="fil17" d="M3510 0h151v25638h-151z"/><path id="37" class="fil18" d="M3611 0h150v25638h-150z"/><path id="38" class="fil18" d="M3711 0h150v25638h-150z"/><path id="39" fill="#05f2a2" d="M3811 0h151v25638h-151z"/><path id="40" class="fil20" d="M3912 0h150v25638h-150z"/><path id="41" class="fil20" d="M4012 0h150v25638h-150z"/><path id="42" class="fil21" d="M4112 0h151v25638h-151z"/><path id="43" class="fil21" d="M4212 0h151v25638h-151z"/><path id="44" class="fil22" d="M4313 0h150v25638h-150z"/><path id="45" class="fil22" d="M4413 0h150v25638h-150z"/><path id="46" fill="#05efa4" d="M4513 0h151v25638h-151z"/><path id="47" class="fil24" d="M4614 0h150v25638h-150z"/><path id="48" class="fil24" d="M4714 0h150v25638h-150z"/><path id="49" class="fil25" d="M4814 0h151v25638h-151z"/><path id="50" class="fil25" d="M4915 0h150v25638h-150z"/><path id="51" fill="#05eca5" d="M5015 0h150v25638h-150z"/><path id="52" fill="#05eca6" d="M5115 0h151v25638h-151z"/><path id="53" fill="#05eba6" d="M5215 0h151v25638h-151z"/><path id="54" fill="#04eba6" d="M5316 0h150v25638h-150z"/><path id="55" fill="#04eaa7" d="M5416 0h150v25638h-150z"/><path id="56" fill="#04e9a7" d="M5516 0h151v25638h-151z"/><path id="57" fill="#04e9a8" d="M5617 0h150v25638h-150z"/><path id="58" class="fil33" d="M5717 0h150v25638h-150z"/><path id="59" class="fil33" d="M5817 0h151v25638h-151z"/><path id="60" fill="#04e7a9" d="M5917 0h151v25638h-151z"/><path id="61" fill="#04e6a9" d="M6018 0h150v25638h-150z"/><path id="62" fill="#04e6aa" d="M6118 0h151v25638h-151z"/><path id="63" fill="#04e5aa" d="M6218 0h151v25638h-151z"/><path id="64" class="fil38" d="M6319 0h150v25638h-150z"/><path id="65" class="fil38" d="M6419 0h150v25638h-150z"/><path id="66" fill="#04e3ac" d="M6519 0h151v25638h-151z"/><path id="67" fill="#04e2ac" d="M6620 0h150v25638h-150z"/><path id="68" fill="#04e2ad" d="M6720 0h150v25638h-150z"/><path id="69" fill="#04e1ad" d="M6820 0h151v25638h-151z"/><path id="70" fill="#04e0ae" d="M6920 0h151v25638h-151z"/><path id="71" fill="#04dfae" d="M7021 0h150v25638h-150z"/><path id="72" class="fil45" d="M7121 0h150v25638h-150z"/><path id="73" class="fil45" d="M7221 0h151v25638h-151z"/><path id="74" fill="#04ddb0" d="M7322 0h150v25638h-150z"/><path id="75" fill="#04dcb1" d="M7422 0h150v25638h-150z"/><path id="76" fill="#04dbb1" d="M7522 0h151v25638h-151z"/><path id="77" fill="#04dab2" d="M7623 0h150v25638h-150z"/><path id="78" fill="#04d9b2" d="M7723 0h150v25638h-150z"/><path id="79" fill="#04d8b3" d="M7823 0h151v25638h-151z"/><path id="80" fill="#04d7b4" d="M7923 0h151v25638h-151z"/><path id="81" fill="#04d6b5" d="M8024 0h150v25638h-150z"/><path id="82" fill="#04d5b5" d="M8124 0h150v25638h-150z"/><path id="83" fill="#04d4b6" d="M8224 0h151v25638h-151z"/><path id="84" fill="#04d2b7" d="M8325 0h150v25638h-150z"/><path id="85" fill="#04d1b8" d="M8425 0h150v25638h-150z"/><path id="86" fill="#04d0b9" d="M8525 0h151v25638h-151z"/><path id="87" fill="#04cfb9" d="M8625 0h151v25638h-151z"/><path id="88" fill="#04cdba" d="M8726 0h150v25638h-150z"/><path id="89" fill="#04ccbb" d="M8826 0h151v25638h-151z"/><path id="90" fill="#04cabc" d="M8926 0h151v25638h-151z"/><path id="91" fill="#04c9bd" d="M9027 0h150v25638h-150z"/><path id="92" fill="#04c7be" d="M9127 0h150v25638h-150z"/><path id="93" fill="#03c6bf" d="M9227 0h151v25638h-151z"/><path id="94" fill="#03c4c1" d="M9328 0h150v25638h-150z"/><path id="95" fill="#03c2c2" d="M9428 0h150v25638h-150z"/><path id="96" fill="#03c1c3" d="M9528 0h151v25638h-151z"/><path id="97" fill="#03bfc4" d="M9628 0h151v25638h-151z"/><path id="98" fill="#03bdc6" d="M9729 0h150v25638h-150z"/><path id="99" fill="#03bbc7" d="M9829 0h150v25638h-150z"/><path id="100" fill="#03b9c8" d="M9929 0h151v25638h-151z"/><path id="101" fill="#03b6ca" d="M10030 0h150v25638h-150z"/><path id="102" fill="#03b4cc" d="M10130 0h150v25638h-150z"/><path id="103" fill="#03b2cd" d="M10230 0h151v25638h-151z"/><path id="104" fill="#03afcf" d="M10331 0h150v25638h-150z"/><path id="105" fill="#03add0" d="M10431 0h150v25638h-150z"/><path id="106" fill="#03abd1" d="M10531 0h151v25638h-151z"/><path id="107" fill="#03a9d3" d="M10631 0h151v25638h-151z"/><path id="108" fill="#03a8d4" d="M10732 0h150v25638h-150z"/><path id="109" fill="#03a6d5" d="M10832 0h150v25638h-150z"/><path id="110" fill="#03a4d6" d="M10932 0h151v25638h-151z"/><path id="111" fill="#03a3d7" d="M11033 0h150v25638h-150z"/><path id="112" fill="#02a1d8" d="M11133 0h150v25638h-150z"/><path id="113" fill="#02a0d9" d="M11233 0h151v25638h-151z"/><path id="114" fill="#029eda" d="M11333 0h151v25638h-151z"/><path id="115" fill="#029ddb" d="M11434 0h150v25638h-150z"/><path id="116" fill="#029cdc" d="M11534 0h151v25638h-151z"/><path id="117" fill="#029add" d="M11634 0h151v25638h-151z"/><path id="118" fill="#0299de" d="M11735 0h150v25638h-150z"/><path id="119" fill="#0298df" d="M11835 0h150v25638h-150z"/><path id="120" fill="#0297df" d="M11935 0h151v25638h-151z"/><path id="121" fill="#0296e0" d="M12036 0h150v25638h-150z"/><path id="122" fill="#0295e1" d="M12136 0h150v25638h-150z"/><path id="123" fill="#0294e1" d="M12236 0h151v25638h-151z"/><path id="124" fill="#0293e2" d="M12336 0h151v25638h-151z"/><path id="125" fill="#0292e3" d="M12437 0h150v25638h-150z"/><path id="126" fill="#0291e3" d="M12537 0h150v25638h-150z"/><path id="127" fill="#0290e4" d="M12637 0h151v25638h-151z"/><path id="128" fill="#028fe5" d="M12738 0h150v25638h-150z"/><path id="129" fill="#028ee5" d="M12838 0h150v25638h-150z"/><path id="130" class="fil102" d="M12938 0h151v25638h-151z"/><path id="131" class="fil102" d="M13039 0h150v25638h-150z"/><path id="132" fill="#028ce7" d="M13139 0h150v25638h-150z"/><path id="133" fill="#028be7" d="M13239 0h151v25638h-151z"/><path id="134" class="fil105" d="M13339 0h151v25638h-151z"/><path id="135" class="fil105" d="M13440 0h150v25638h-150z"/><path id="136" fill="#0289e9" d="M13540 0h150v25638h-150z"/><path id="137" fill="#0288e9" d="M13640 0h151v25638h-151z"/><path id="138" fill="#0288ea" d="M13741 0h150v25638h-150z"/><path id="139" class="fil109" d="M13841 0h150v25638h-150z"/><path id="140" class="fil109" d="M13941 0h151v25638h-151z"/><path id="141" fill="#0286eb" d="M14041 0h151v25638h-151z"/><path id="142" fill="#0285eb" d="M14142 0h150v25638h-150z"/><path id="143" fill="#0285ec" d="M14242 0h151v25638h-151z"/><path id="144" class="fil113" d="M14342 0h151v25638h-151z"/><path id="145" class="fil113" d="M14443 0h150v25638h-150z"/><path id="146" class="fil114" d="M14543 0h150v25638h-150z"/><path id="147" class="fil114" d="M14643 0h151v25638h-151z"/><path id="148" fill="#0282ed" d="M14744 0h150v25638h-150z"/><path id="149" fill="#0282ee" d="M14844 0h150v25638h-150z"/><path id="150" class="fil117" d="M14944 0h151v25638h-151z"/><path id="151" class="fil117" d="M15044 0h151v25638h-151z"/><path id="152" class="fil118" d="M15145 0h150v25638h-150z"/><path id="153" class="fil118" d="M15245 0h150v25638h-150z"/><path id="154" class="fil119" d="M15345 0h151v25638h-151z"/><path id="155" class="fil119" d="M15446 0h150v25638h-150z"/><path id="156" fill="#027ff0" d="M15546 0h150v25638h-150z"/><path id="157" class="fil121" d="M15646 0h151v25638h-151z"/><path id="158" class="fil121" d="M15747 0h150v25638h-150z"/><path id="159" fill="#027df1" d="M15847 0h150v25638h-150z"/><path id="160" class="fil123" d="M15947 0h151v25638h-151z"/><path id="161" class="fil123" d="M16047 0h151v25638h-151z"/><path id="162" fill="#017cf1" d="M16148 0h150v25638h-150z"/><path id="163" class="fil125" d="M16248 0h150v25638h-150z"/><path id="164" class="fil125" d="M16348 0h151v25638h-151z"/><path id="165" class="fil126" d="M16449 0h150v25638h-150z"/><path id="166" class="fil126" d="M16549 0h150v25638h-150z"/><path id="167" class="fil126" d="M16649 0h151v25638h-151z"/><path id="168" class="fil127" d="M16749 0h151v25638h-151z"/><path id="169" class="fil127" d="M16850 0h150v25638h-150z"/><path id="170" class="fil127" d="M16950 0h150v25638h-150z"/><path id="171" fill="#0179f3" d="M17050 0h151v25638h-151z"/><path id="172" class="fil129" d="M17151 0h150v25638h-150z"/><path id="173" class="fil129" d="M17251 0h150v25638h-150z"/><path id="174" class="fil130" d="M17351 0h151v25638h-151z"/><path id="175" class="fil130" d="M17452 0h150v25638h-150z"/><path id="176" class="fil130" d="M17552 0h150v25638h-150z"/><path id="177" class="fil130" d="M17652 0h151v25638h-151z"/><path id="178" class="fil131" d="M17752 0h151v25638h-151z"/><path id="179" class="fil131" d="M17853 0h150v25638h-150z"/><path id="180" class="fil131" d="M17953 0h150v25638h-150z"/><path id="181" class="fil131" d="M18053 0h151v25638h-151z"/><path id="182" fill="#0176f5" d="M18154 0h150v25638h-150z"/><path id="183" class="fil133" d="M18254 0h150v25638h-150z"/><path id="184" class="fil133" d="M18354 0h151v25638h-151z"/><path id="185" class="fil133" d="M18454 0h151v25638h-151z"/><path id="186" class="fil134" d="M18555 0h150v25638h-150z"/><path id="187" class="fil134" d="M18655 0h151v25638h-151z"/><path id="188" class="fil134" d="M18755 0h151v25638h-151z"/><path id="189" class="fil134" d="M18856 0h150v25638h-150z"/><path id="190" class="fil135" d="M18956 0h150v25638h-150z"/><path id="191" class="fil135" d="M19056 0h151v25638h-151z"/><path id="192" class="fil135" d="M19157 0h150v25638h-150z"/><path id="193" class="fil135" d="M19257 0h150v25638h-150z"/><path id="194" class="fil135" d="M19357 0h151v25638h-151z"/><path id="195" class="fil136" d="M19457 0h151v25638h-151z"/><path id="196" class="fil136" d="M19558 0h150v25638h-150z"/><path id="197" class="fil137" d="M19658 0h150v25638h-150z"/><path id="198" class="fil137" d="M19758 0h151v25638h-151z"/><path id="199" class="fil137" d="M19859 0h150v25638h-150z"/><path id="200" class="fil138" d="M19959 0h150v25638h-150z"/><path id="201" class="fil138" d="M20059 0h151v25638h-151z"/><path id="202" class="fil138" d="M20160 0h150v25638h-150z"/><path id="203" class="fil138" d="M20260 0h150v25638h-150z"/><path id="204" fill="#0172f9" d="M20360 0h151v25638h-151z"/><path id="205" class="fil140" d="M20460 0h151v25638h-151z"/><path id="206" class="fil140" d="M20561 0h150v25638h-150z"/><path id="207" class="fil140" d="M20661 0h150v25638h-150z"/><path id="208" class="fil140" d="M20761 0h151v25638h-151z"/><path id="209" class="fil140" d="M20862 0h150v25638h-150z"/><path id="210" class="fil140" d="M20962 0h150v25638h-150z"/><path id="211" class="fil141" d="M21062 0h151v25638h-151z"/><path id="212" class="fil141" d="M21162 0h151v25638h-151z"/><path id="213" class="fil142" d="M21263 0h150v25638h-150z"/><path id="214" class="fil142" d="M21363 0h151v25638h-151z"/><path id="215" class="fil142" d="M21463 0h151v25638h-151z"/><path id="216" class="fil142" d="M21564 0h150v25638h-150z"/><path id="217" class="fil142" d="M21664 0h150v25638h-150z"/><path id="218" class="fil143" d="M21764 0h151v25638h-151z"/><path id="219" class="fil143" d="M21865 0h150v25638h-150z"/><path id="220" class="fil143" d="M21965 0h150v25638h-150z"/><path id="221" class="fil143" d="M22065 0h151v25638h-151z"/><path id="222" class="fil143" d="M22165 0h151v25638h-151z"/><path id="223" class="fil144" d="M22266 0h150v25638h-150z"/><path id="224" class="fil144" d="M22366 0h150v25638h-150z"/><path id="225" class="fil145" d="M22466 0h151v25638h-151z"/><path id="226" class="fil145" d="M22567 0h150v25638h-150z"/><path id="227" class="fil145" d="M22667 0h150v25638h-150z"/><path id="228" class="fil145" d="M22767 0h151v25638h-151z"/><path id="229" class="fil145" d="M22868 0h150v25638h-150z"/><path id="230" class="fil145" d="M22968 0h150v25638h-150z"/><path id="231" class="fil145" d="M23068 0h151v25638h-151z"/><path id="232" class="fil146" d="M23168 0h151v25638h-151z"/><path id="233" class="fil146" d="M23269 0h150v25638h-150z"/><path id="234" class="fil146" d="M23369 0h150v25638h-150z"/><path id="235" class="fil147" d="M23469 0h151v25638h-151z"/><path id="236" class="fil147" d="M23570 0h150v25638h-150z"/><path id="237" class="fil147" d="M23670 0h150v25638h-150z"/><path id="238" class="fil147" d="M23770 0h151v25638h-151z"/><path id="239" class="fil147" d="M23870 0h151v25638h-151z"/><path id="240" class="fil147" d="M23971 0h150v25638h-150z"/><path id="241" class="fil148" d="M24071 0h151v25638h-151z"/><path id="242" class="fil148" d="M24171 0h151v25638h-151z"/><path id="243" class="fil148" d="M24272 0h150v25638h-150z"/><path id="244" class="fil148" d="M24372 0h150v25638h-150z"/><path id="245" class="fil148" d="M24472 0h151v25638h-151z"/><path id="246" class="fil148" d="M24573 0h150v25638h-150z"/><path id="247" class="fil148" d="M24673 0h150v25638h-150z"/><path id="248" class="fil149" d="M24773 0h151v25638h-151z"/><path id="249" class="fil149" d="M24873 0h151v25638h-151z"/><path id="250" class="fil150" d="M24974 0h150v25638h-150z"/><path id="251" class="fil150" d="M25074 0h150v25638h-150z"/><path id="252" class="fil150" d="M25174 0h151v25638h-151z"/><path id="253" class="fil150" d="M25275 0h150v25638h-150z"/><path id="254" class="fil150" d="M25375 0h150v25638h-150z"/><path id="255" class="fil151" d="M25475 0h201v25638h-201z"/></g><path class="fil151" d="M29247 9793c414 0 671 187 671 187l469-944s-453-375-1343-375c-1163 0-2217 953-2217 2131 0 1171 1062 2107 2217 2107 890 0 1343-359 1343-359l-469-960s-257 188-671 188c-523 0-952-437-952-991 0-547 429-984 952-984zm2841 991c0-554 414-944 937-944 515 0 928 390 928 944 0 547-390 937-928 937-562 0-937-390-937-937zm-1467 0c0 1171 819 2115 1990 2115 546 0 1015-241 1311-569h16v452h1366V8778h-1382v383c-328-320-772-500-1311-500-1171 0-1990 953-1990 2123zm5619 1998h1382v-2263c0-398 406-781 819-781 445 0 718 383 718 781v2263h1382v-2638c0-1116-1023-1483-1756-1483-437 0-835 227-1148 539h-15v-422h-1382v4004zm6338-1998c0-554 414-944 937-944 515 0 928 390 928 944 0 547-390 937-928 937-562 0-937-390-937-937zm-1467 0c0 1171 819 2115 1990 2115 546 0 1015-241 1311-569h16v452h1366V8778h-1382v383c-328-320-772-500-1311-500-1171 0-1990 953-1990 2123zm5619 1998h1382V7027h-1382v5755zm-17483 3997c414 0 671 188 671 188l469-945s-453-374-1343-374c-1163 0-2217 952-2217 2130 0 1171 1062 2108 2217 2108 890 0 1343-359 1343-359l-469-960s-257 187-671 187c-523 0-952-437-952-991 0-547 429-984 952-984zm2841 992c0-555 414-945 937-945 515 0 928 390 928 945 0 546-390 936-928 936-562 0-937-390-937-936zm-1467 0c0 1170 819 2115 1990 2115 546 0 1015-242 1311-570h16v453h1366v-4004h-1382v382c-328-320-772-499-1311-499-1171 0-1990 952-1990 2123zm8835-8c0 554-414 944-937 944-515 0-928-390-928-944 0-547 390-937 928-937 562 0 937 390 937 937zm1467 0c0-1171-819-2115-1990-2115-546 0-1015 242-1311 569h-16v-452h-1366v6033h1382v-2412c328 320 773 500 1311 500 1171 0 1990-952 1990-2123zm648-1998h1382v4004h-1382v-4004zm710-2474c-452 0-819 366-819 819s367 820 819 820c453 0 820-367 820-820s-367-819-820-819zm1881 2474h-577v1053h577v1538c0 710 266 1530 1366 1530 570 0 1015-250 1015-250l-343-1116s-164 125-344 125c-218 0-312-180-312-554v-1273h843v-1053h-843v-1491h-1382v1491zm4012 2006c0-555 414-945 937-945 515 0 929 390 929 945 0 546-391 936-929 936-562 0-937-390-937-936zm-1467 0c0 1170 819 2115 1990 2115 547 0 1015-242 1311-570h16v453h1366v-4004h-1382v382c-327-320-772-499-1311-499-1171 0-1990 952-1990 2123zm5620 1990h1381v-5753h-1381v5753z"/></g></g></svg>