<svg xmlns="http://www.w3.org/2000/svg" width="1000" height="649.938"><defs><clipPath id="a"><path d="M15 15h612v630H15V15z"/></clipPath></defs><path d="M150.29 3.255a149.79 149.79 0 1 0 0 299.579 149.79 149.79 0 0 0 0-299.58zm0 62.912a155.033 155.033 0 0 1 139.246 86.877 155.032 155.032 0 0 1-278.493 0A155.032 155.032 0 0 1 150.29 66.167zm0 7.489a79.388 79.388 0 1 0 0 158.776 79.388 79.388 0 0 0 0-158.776z"/><g clip-path="url(#a)" transform="matrix(8.2647 0 0 -8.2647 -495.6 4959.325)"><path d="M105.976 581.577c0 13.253 3.808 17.986 8.294 17.986 6.348 0 9.82-9.552 10.918-13.253v12.823c-1.099-.861-1.608-1.291-2.792-1.291-1.186 0-2.962.602-3.809 1.119-.846.516-2.539.947-4.232.947-5.587 0-15.32-7.487-15.32-18.331 0-12.822 8.633-18.33 15.32-18.33 1.693 0 3.555.689 4.401 1.205.845.517 2.454 1.205 3.64 1.205 1.184 0 1.693-.431 2.792-1.291v12.908c-.93-4.99-4.57-13.682-10.918-13.682-1.819 0-4.317.86-5.459 2.065-.352.37-2.835 2.152-2.835 15.92m40.509 1.364c6.996 1.49 8.25 4.552 8.25 7.79 0 4.333-4.934 8.577-12.02 8.577h-16.686v-.35h5.562v-34.923h-5.562v-.35h17.494c5.292 0 13.008 3.326 13.008 10.153s-7.357 8.753-10.046 9.103m2.24 7.878c0-7.353-2.466-7.702-4.798-7.702h-5.192v15.841h3.89c3.14 0 6.1-.788 6.1-8.139m-5.383-26.784h-5.111v.083h.504v18.648h4.877c3.588-.087 6.46-1.838 6.46-9.453 0-7.615-2.603-9.278-6.73-9.278m34.168 22.343h.46l-.058 13.334h-.402s-1.15-1.264-2.76-1.264c-1.608 0-4.08 1.552-6.723 1.552-2.644 0-9.6-2.816-9.6-10.806 0-7.99 5.346-9.368 7.875-10.403 2.53-1.035 10.46-2.702 10.46-7.99s-3.736-7.127-6.896-7.127c-3.162 0-7.012 2.299-9.14 7.07-2.125 4.77-2.184 7.012-2.184 7.012h-.517v-13.622h.402s.92 1.265 2.243 1.265c1.32 0 5.805-2.357 9.368-2.357 3.563 0 10.864 3.679 10.864 11.725 0 8.047-6.094 8.967-8.22 9.714-2.127.747-10.518 2.184-10.518 8.162 0 5.978 6.149 8.105 9.77 5.518 3.622-2.587 5.46-9.83 5.576-11.783m-4.828-42.886c-2.127.747-10.519 2.183-10.519 8.16 0 5.979 6.15 8.106 9.771 5.518 3.622-2.586 5.46-9.828 5.576-11.782h.46l-.058 13.335h-.402s-1.15-1.265-2.76-1.265c-1.609 0-4.08 1.552-6.724 1.552s-9.599-2.817-9.599-10.805c0-7.99 5.346-9.37 7.875-10.404 2.53-1.034 10.461-2.701 10.461-7.99 0-5.287-3.737-7.126-6.897-7.126-3.162 0-7.013 2.299-9.139 7.069-2.127 4.77-2.185 7.013-2.185 7.013h-.517v-13.622h.402s.921 1.264 2.242 1.264c1.322 0 5.805-2.357 9.37-2.357 3.562 0 10.862 3.679 10.862 11.725 0 8.047-6.093 8.968-8.219 9.715m-12.166 15.087h-8.118v-1.032h3.603l-7.884-25.635-7.608 25.635h3.92v1.032h-13.04v-1.032h2.287l3.371-10.825-4.526-14.908-7.484 25.733h3.007v1.032h-46.87v-1.032h4.015v-22.56L70.823 558.58h-10.48v-1.032h3.985v-33.851h-3.985v-.885H69.2v.885h-3.788v30.543l18.991-31.38h1.476v34.688h7.134v-33.851h-3.986v-.885h27.702v11.217h-.69s-1.328-6.298-4.133-8.315a14.061 14.061 0 0 0-4.062-2.017h-8.435v17.713h2.657c1.427 0 2.706-.346 3.936-1.575 1.23-1.23 2.264-5.66 2.264-5.66h.787v15.45h-.787s-.54-2.017-1.28-4.231c-.738-2.213-3.543-3.1-4.87-3.1-.949 0-2.113-.024-2.707-.038v15.292h7.676c1.564-.452 3.711-1.284 4.821-2.658 1.87-2.312 2.362-5.117 2.362-5.117h.787v7.775h3.05l10.825-36.066h1.328L137.54 545l7.036-23.52h1.377l11.258 36.066h3.306v1.032z"/></g></svg>