<?xml version="1.0" encoding="utf-8"?>
<!-- Generator: Adobe Illustrator 16.0.0, SVG Export Plug-In . SVG Version: 6.00 Build 0)  -->
<!DOCTYPE svg PUBLIC "-//W3C//DTD SVG 1.1//EN" "http://www.w3.org/Graphics/SVG/1.1/DTD/svg11.dtd">
<svg version="1.1" id="Calque_1" xmlns="http://www.w3.org/2000/svg" xmlns:xlink="http://www.w3.org/1999/xlink" x="0px" y="0px"
	 width="1000px" height="118.707px" viewBox="-194 336.647 1000 118.707" enable-background="new -194 336.647 1000 118.707"
	 xml:space="preserve">
<g>
	<g>
		<path fill="#003865" d="M-100.976,422.319c-8.258,11.808-21.525,18.864-35.591,18.864c-20.467,0-38.5-14.997-42.876-35.657
			l-0.16-0.751h75.864h21.214h2.966c0.599-4.061,0.429-8.49,0.429-8.49l-0.003,0.008c0-0.126,0.009-0.26,0.009-0.391
			c0-32.647-25.771-59.214-57.444-59.214c-31.665,0-57.433,26.566-57.433,59.214c0,32.662,25.768,59.225,57.433,59.225
			c21.574,0,41.142-12.303,51.076-32.106l1.419-2.885h-15.475C-100.086,421.02-100.603,421.787-100.976,422.319 M-180.103,390.136
			c2.821-22.527,21.536-39.505,43.536-39.505c22.007,0,40.725,16.978,43.534,39.505l0.089,0.689h-87.242L-180.103,390.136z"/>
		<path fill="#003865" d="M-14.693,455.156c-6.373,0-12.471-1.141-18.123-3.391c-5.61-2.24-10.569-5.486-14.75-9.645
			c-4.265-4.23-7.585-9.266-9.867-14.96c-2.366-5.946-3.32-12.429-3.289-19.275l-0.001-68.902h13.29l-0.002,67.782
			c-0.02,5.302,0.627,10.262,2.37,14.744c1.652,4.267,4.049,8.041,7.125,11.218c2.991,3.088,6.517,5.491,10.478,7.144
			c4.019,1.676,8.307,2.526,12.74,2.526c4.534-0.005,8.839-0.858,12.852-2.538c3.98-1.668,7.519-4.078,10.518-7.17
			c3.077-3.16,5.491-6.93,7.178-11.207c1.777-4.506,2.861-9.466,2.871-14.729v-67.769h13.264l-0.002,68.914
			c-0.021,6.863-1.42,13.339-3.816,19.243c-2.316,5.698-5.654,10.729-9.925,14.957c-4.217,4.166-9.187,7.41-14.781,9.646
			c-5.651,2.259-11.751,3.406-18.128,3.414L-14.693,455.156L-14.693,455.156z"/>
		<path fill="#003865" d="M50.938,452.076v-65.223c0.006-4.851,0.582-9.598,1.712-14.111c1.556-6.257,4.134-11.838,7.665-16.587
			c4.392-5.911,10.265-10.553,17.455-13.795c8.329-3.743,18.531-5.638,30.323-5.638h2.229v14.176l-2.174-0.001
			c-8.6,0-15.977,1.131-21.969,3.359c-5.271,1.956-9.609,4.796-12.889,8.441c-2.857,3.182-4.982,7.044-6.315,11.471
			c-1.141,3.794-1.728,8.066-1.742,12.697v65.21H50.938V452.076z"/>
		<path fill="#003865" d="M323.916,452.073v-59.584c0.02-4.615-0.471-8.902-1.959-12.741c-1.373-3.567-3.358-6.708-5.898-9.34
			c-2.438-2.525-5.313-4.492-8.541-5.843c-3.309-1.382-6.847-2.083-10.516-2.083c-3.733,0.002-7.307,0.707-10.616,2.096
			c-3.247,1.366-6.138,3.344-8.594,5.878c-2.546,2.625-4.548,5.77-5.956,9.352c-1.518,3.865-2.49,8.146-2.496,12.727l-0.002,59.542
			h-26.299l-0.002-60.732c0.024-7.844,1.623-15.263,4.371-22.055c2.69-6.633,6.569-12.494,11.533-17.426
			c4.909-4.866,10.689-8.656,17.182-11.261c6.518-2.61,13.527-3.94,20.839-3.952c7.323,0,14.337,1.321,20.851,3.926
			c6.524,2.611,12.302,6.405,17.174,11.273c4.957,4.938,8.816,10.807,11.469,17.443c2.717,6.848,3.816,14.282,3.781,22.105v60.678
			H323.916z"/>
		<path fill="#003865" d="M420.518,455.086c-31.674,0-57.428-26.561-57.428-59.211c0-32.66,25.754-59.228,57.428-59.228
			c31.663,0,57.422,26.568,57.422,59.228c0,3.018-0.225,6.054-0.67,9.037l-0.135,0.894h-89.678l0.383,1.216
			c4.65,14.542,17.789,24.316,32.678,24.316c8.092,0,15.711-2.861,21.987-8.267c0,0,1.677-1.444,1.888-1.646h27.951L471.556,423
			C461.637,442.787,442.074,455.086,420.518,455.086 M420.518,360.394c-14.889,0-28.025,9.771-32.678,24.323l-0.383,1.214h66.105
			l-0.383-1.214C448.532,370.165,435.409,360.394,420.518,360.394"/>
		<path fill="#003865" d="M486.895,339.657v-0.673h28.484c3.48,27.272,12.42,70.514,20.148,90.063
			c8.18-19.549,17.723-62.792,21.213-90.063h23.628c3.638,27.272,13.033,68.703,21.362,90.063
			c7.729-21.361,16.513-62.792,20.151-90.063h28.33v0.674c-6.512,42.578-18.937,86.358-29.544,112.416h-35.447
			c-5.907-14.241-13.03-36.058-16.668-55.603c-3.484,19.545-11.207,42.575-16.513,55.603h-35.453
			C504.155,423.595,490.65,375.825,486.895,339.657"/>
		<path fill="#003865" d="M661.917,447.111v-21.599h1.188c6.406,1.939,20.26,4.623,30.238,4.623h5.814
			c9.228,0,16.231-2.832,16.231-12.218c0-6.998-6.108-9.824-12.812-11.615l-17.427-4.615c-12.808-3.276-23.234-12.218-23.234-31.432
			c0-22.635,18.62-32.021,41.252-32.021h5.813c6.996,0,21.001,1.792,27.402,4.172v21.448h-1.19
			c-5.81-1.641-19.807-3.424-26.214-3.424h-5.213c-8.189,0-15.193,1.633-15.193,9.825c0,6.41,4.767,8.938,10.58,10.427l17.426,4.766
			c16.824,4.468,25.61,14.448,25.61,32.469c0,25.024-18.016,34.407-43.038,34.407h-5.812
			C684.551,452.325,669.959,449.944,661.917,447.111"/>
		<path fill="#003865" d="M806,428.477c0,13.184-10.687,23.868-23.869,23.868c-13.181,0-23.865-10.687-23.865-23.868
			s10.687-23.866,23.865-23.866C795.313,404.61,806,415.297,806,428.477"/>
		<path fill="#003865" d="M172.297,336.917c-31.912,0-57.783,26.512-57.783,59.218c0,32.707,25.871,59.219,57.783,59.219
			s57.783-26.513,57.783-59.219C230.08,363.431,204.209,336.917,172.297,336.917 M172.297,439.203
			c-22.264,0-40.377-19.32-40.377-43.07c0-23.747,18.113-43.069,40.377-43.069c22.263,0,40.378,19.322,40.378,43.069
			C212.675,419.883,194.56,439.203,172.297,439.203"/>
	</g>
</g>
</svg>
