<?xml version="1.0" encoding="UTF-8" standalone="no"?>
<!-- Created with Inkscape (http://www.inkscape.org/) -->

<svg xmlns:dc="http://purl.org/dc/elements/1.1/" xmlns:cc="http://creativecommons.org/ns#" xmlns:rdf="http://www.w3.org/1999/02/22-rdf-syntax-ns#" xmlns:svg="http://www.w3.org/2000/svg" xmlns="http://www.w3.org/2000/svg" xmlns:xlink="http://www.w3.org/1999/xlink" xmlns:sodipodi="http://sodipodi.sourceforge.net/DTD/sodipodi-0.dtd" xmlns:inkscape="http://www.inkscape.org/namespaces/inkscape" id="svg2985" version="1.1" inkscape:version="0.48.5 r10040" width="346" height="326.99625" sodipodi:docname="Fox News Channel logo.svg">
  <metadata id="metadata2991">
    <rdf:RDF>
      <cc:Work rdf:about="">
        <dc:format>image/svg+xml</dc:format>
        <dc:type rdf:resource="http://purl.org/dc/dcmitype/StillImage" />
        <dc:title></dc:title>
      </cc:Work>
    </rdf:RDF>
  </metadata>
  <defs id="defs2989" />
  <sodipodi:namedview pagecolor="#ffffff" bordercolor="#666666" borderopacity="1" objecttolerance="10" gridtolerance="10" guidetolerance="10" inkscape:pageopacity="0" inkscape:pageshadow="2" inkscape:window-width="1366" inkscape:window-height="706" id="namedview2987" showgrid="false" fit-margin-top="0" fit-margin-left="0" fit-margin-right="0" fit-margin-bottom="0" inkscape:zoom="0.79189492" inkscape:cx="691.96933" inkscape:cy="72.418556" inkscape:window-x="-8" inkscape:window-y="-8" inkscape:window-maximized="1" inkscape:current-layer="svg2985" />
  <use height="1052.3622" width="744.09448" y="0" x="0" xlink:href="#id38" id="use3772" transform="matrix(5.0401,0,0,-4.9633,243.89779,160.5712)" />
  <g transform="matrix(1.3799211,2.5984191,2.1999288,-1.1683016,-167.8358,177.87205)" id="g9528">
    <use height="1052.3622" width="744.09448" y="0" x="0" xlink:href="#id125" id="use9530" />
  </g>
  <g transform="matrix(1.7703471,3.3335992,2.5904548,-1.3757001,-168.22618,180.63303)" id="g9538">
    <use height="1052.3622" width="744.09448" y="0" x="0" xlink:href="#id128" id="use9540" />
  </g>
  <g transform="matrix(2.8488866,5.3645107,3.7219009,-1.9765751,-165.84127,178.64123)" id="g9548">
    <use height="1052.3622" width="744.09448" y="0" x="0" xlink:href="#id131" id="use9550" />
  </g>
  <g transform="matrix(3.0479643,0,0,-0.5770467,-164.82442,177.88743)" id="g9558">
    <use height="1052.3622" width="744.09448" y="0" x="0" xlink:href="#id134" id="use9560" />
  </g>
  <g transform="matrix(0,-0.6862497,-3.4428596,0,-163.33392,180.55017)" id="g9576">
    <use height="1052.3622" width="744.09448" y="0" x="0" xlink:href="#id140" id="use9578" />
  </g>
  <g transform="matrix(-1.3589099,-6.0987591,-2.7884874,0.62132874,-165.49314,183.07386)" id="g9586">
    <use height="1052.3622" width="744.09448" y="0" x="0" xlink:href="#id143" id="use9588" />
  </g>
  <g transform="matrix(3.0424187,0,0,-0.57715968,-168.35584,177.88744)" id="g9596">
    <use height="1052.3622" width="744.09448" y="0" x="0" xlink:href="#id146" id="use9598" />
  </g>
  <g transform="matrix(3.0422399,0,0,-0.57675442,-168.35585,183.35996)" id="g9606">
    <use height="1052.3622" width="744.09448" y="0" x="0" xlink:href="#id149" id="use9608" />
  </g>
  <g transform="matrix(-2.0220345,-2.0220345,-2.0220243,2.0220243,-162.05713,178.58719)" id="g9616">
    <use height="1052.3622" width="744.09448" y="0" x="0" xlink:href="#id152" id="use9618" />
  </g>
  <g transform="matrix(-2.4922147,-2.4922147,-2.4922124,2.4922124,-161.58598,181.61189)" id="g9626">
    <use height="1052.3622" width="744.09448" y="0" x="0" xlink:href="#id155" id="use9628" />
  </g>
  <g transform="matrix(3.045991,0,0,-0.58145755,-164.82245,183.36)" id="g9636">
    <use height="1052.3622" width="744.09448" y="0" x="0" xlink:href="#id158" id="use9638" />
  </g>
  <use height="1052.3622" width="744.09448" y="0" x="0" xlink:href="#id191" id="use10134" transform="matrix(5.0395,0,0,-4.8479,-13.93301,286.5019)" />
  <g transform="matrix(40.0893,0,0,-20.0998,57.53399,138.5085)" id="g10498">
    <use height="1052.3622" width="744.09448" y="0" x="0" xlink:href="#id226" id="use10500" />
  </g>
  <g id="g3589">
    <path inkscape:connector-curvature="0" id="path10598" d="m 345.93733,276.36098 0.047,-276.29866164 -345.95300054,0 0,276.32999164 345.90600054,-0.0313" style="fill:#013686;fill-opacity:1;fill-rule:nonzero;stroke:none" />
    <path inkscape:connector-curvature="0" id="path10600" d="M 0.03132946,38.148168 C 24.267779,29.766461 50.008236,24.659103 76.892366,23.405764 196.91528,17.812737 302.58745,90.287086 345.96866,196.61726 l 0,-6.00036 C 300.77011,86.182399 195.5836,15.541059 76.39103,21.102753 49.710568,22.356092 24.126779,27.338116 0.03132946,35.547489 l 0,2.600679" style="fill:white;fill-rule:nonzero;stroke:none" />
    <path inkscape:connector-curvature="0" id="path10602" d="m 345.99999,326.99589 -0.10966,-43.58488 -345.81200031,0.12534 0,43.45954 345.92166031,0" style="fill:#bc0400;fill-opacity:1;fill-rule:nonzero;stroke:none" />
    <g transform="matrix(21.073279,0,0,-19.043196,-2559.928,15862.097)" id="g3148">
      <path style="fill:white;fill-rule:nonzero;stroke:none" d="m 123.211,816.002 c -0.605,0 -1.002,0.282 -1.002,0.704 0,0.46 0.404,0.737 1.037,0.737 0.556,0 0.914,-0.198 0.956,-0.526 l -0.667,0 c -0.038,0.124 -0.137,0.188 -0.293,0.188 -0.229,0 -0.351,-0.132 -0.351,-0.386 0,-0.247 0.111,-0.369 0.343,-0.369 0.172,0 0.274,0.064 0.313,0.196 l 0.651,0 c -0.065,-0.343 -0.43,-0.544 -0.987,-0.544" id="path10604" inkscape:connector-curvature="0" />
      <path style="fill:white;fill-rule:nonzero;stroke:none" d="m 128.19861,816.045 c -0.015,0.044 -0.026,0.089 -0.034,0.14 -0.187,-0.124 -0.392,-0.183 -0.644,-0.183 -0.396,0 -0.632,0.158 -0.632,0.396 0,0.227 0.179,0.364 0.537,0.42 0.469,0.073 0.72,0.053 0.72,0.157 l 0,0.033 c 0,0.079 -0.091,0.12 -0.263,0.12 -0.19,0 -0.301,-0.053 -0.327,-0.153 l -0.61,0 c 0.065,0.308 0.377,0.453 0.952,0.453 0.355,0 0.602,-0.056 0.743,-0.176 0.126,-0.109 0.133,-0.246 0.133,-0.432 l 0,-0.51 c 0,-0.12 0.031,-0.191 0.1,-0.214 l 0,-0.051 -0.675,0 z m -0.464,0.554 c -0.149,-0.028 -0.217,-0.068 -0.217,-0.15 0,-0.094 0.095,-0.16 0.243,-0.16 0.225,0 0.385,0.094 0.385,0.237 l 0,0.155 c -0.114,-0.049 -0.263,-0.054 -0.411,-0.082" id="path10606" inkscape:connector-curvature="0" />
      <path style="fill:white;fill-rule:nonzero;stroke:none" d="m 129.34507,817.394 0.647,0 0,-0.185 c 0.138,0.147 0.335,0.219 0.613,0.219 0.492,0 0.675,-0.16 0.675,-0.506 l 0,-0.877 -0.663,0 0,0.679 c 0,0.249 -0.015,0.368 -0.278,0.368 -0.24,0 -0.335,-0.104 -0.335,-0.325 l 0,-0.722 -0.659,0 0,1.349" id="path10608" inkscape:connector-curvature="0" />
      <path style="fill:white;fill-rule:nonzero;stroke:none" d="m 124.58715,817.872 0.663,0 0,-0.653 c 0.152,0.145 0.346,0.211 0.62,0.211 0.423,0 0.652,-0.158 0.652,-0.457 l 0,-0.928 -0.663,0 0,0.679 c 0,0.249 -0.015,0.368 -0.278,0.368 -0.24,0 -0.335,-0.104 -0.335,-0.325 l 0,-0.722 -0.659,0 0,1.827" id="path10610" inkscape:connector-curvature="0" />
      <path style="fill:white;fill-rule:nonzero;stroke:none" d="m 131.73153,817.394 0.648,0 0,-0.185 c 0.137,0.147 0.335,0.219 0.613,0.219 0.491,0 0.675,-0.16 0.675,-0.506 l 0,-0.877 -0.663,0 0,0.679 c 0,0.249 -0.016,0.368 -0.278,0.368 -0.241,0 -0.336,-0.104 -0.336,-0.325 l 0,-0.722 -0.659,0 0,1.349" id="path10612" inkscape:connector-curvature="0" />
      <path style="fill:white;fill-rule:nonzero;stroke:none" d="m 136.09099,816.47 c -0.118,-0.295 -0.48,-0.465 -0.998,-0.465 -0.625,0 -1.017,0.269 -1.017,0.709 0,0.452 0.4,0.726 1.017,0.726 0.636,0 1.032,-0.277 1.032,-0.747 0,-0.025 0,-0.053 -0.003,-0.078 l -1.368,0 c 0,-0.191 0.126,-0.293 0.362,-0.293 0.179,0 0.293,0.051 0.339,0.148 l 0.636,0 z m -0.602,0.393 c -0.003,0.176 -0.148,0.277 -0.377,0.277 -0.213,0 -0.35,-0.096 -0.377,-0.277 l 0.754,0" id="path10614" inkscape:connector-curvature="0" />
      <path style="fill:white;fill-rule:nonzero;stroke:none" d="m 136.49435,817.872 0.663,0 0,-1.827 -0.663,0 0,1.827 z" id="path10616" inkscape:connector-curvature="0" />
    </g>
    <path inkscape:connector-curvature="0" id="path10618" d="m -4.0240001e-6,276.42365 0.3760018040001,0 L 96.287792,-3.48612e-4 l -39.182521,0 L -4.0240001e-6,271.89596 l 0,4.52769" style="fill:white;fill-rule:nonzero;stroke:none" />
    <path inkscape:connector-curvature="0" id="path10620" d="M 2.2403401,276.42365 177.04985,0.03098487 l -44.11755,0 L 0.72066611,276.42365 l 1.51967399,0" style="fill:white;fill-rule:nonzero;stroke:none" />
    <path inkscape:connector-curvature="0" id="path10622" stroke-miterlimit="3.864" d="m 117.78256,166.99145 0,-89.049757 55.5856,0 1.70768,24.346117 -31.11415,0 0,11.62472 25.36445,0 0,24.29912 -25.56812,0 -0.0157,28.7798 -25.95979,0 z" style="fill:#013686;fill-opacity:1;fill-rule:nonzero;stroke:#013686;stroke-width:6.799366;stroke-linecap:butt;stroke-linejoin:miter;stroke-miterlimit:3.86400008" />
    <path inkscape:connector-curvature="0" id="path10624" stroke-miterlimit="4" d="m 334.67294,166.86612 -27.62047,-46.21689 24.86312,-42.582203 -28.56047,0 -10.71605,18.502422 -11.04505,-18.502422 -28.63881,0 25.59946,42.879873 -26.55513,45.91922 28.09047,-0.0313 12.78406,-21.88644 13.06606,21.91777 28.73281,0 z" style="fill:#013686;fill-opacity:1;fill-rule:nonzero;stroke:#013686;stroke-width:6.799366;stroke-linecap:butt;stroke-linejoin:miter;stroke-miterlimit:4" />
    <path inkscape:connector-curvature="0" id="path10626" stroke-miterlimit="3.864" d="m 227.32442,141.251 0.17234,-37.85085 c 0,-4.324022 -3.83836,-8.193707 -8.22504,-8.193707 -4.38669,0 -7.92737,3.869685 -7.92737,8.193707 l -0.0157,37.74118 c 0,4.32402 3.55635,7.8177 7.94304,7.8177 4.38668,0 8.0527,-3.38401 8.0527,-7.70803 z m -53.53326,-18.28309 c 0,-24.800453 20.41377,-44.900883 45.62156,-44.900883 25.19212,0 45.60588,20.10043 45.60588,44.900883 0,24.80045 -20.41376,44.90088 -45.60588,44.90088 -25.20779,0 -45.62156,-20.10043 -45.62156,-44.90088 z" style="fill:#013686;fill-opacity:1;fill-rule:nonzero;stroke:#013686;stroke-width:6.799366;stroke-linecap:butt;stroke-linejoin:miter;stroke-miterlimit:3.86400008" />
    <path inkscape:connector-curvature="0" id="path10628" stroke-miterlimit="4" d="m 126.85361,181.76519 52.71858,0 0,18.98809 -32.25782,0 0,11.95373 26.50813,0 0,17.57808 -26.50813,0 0,13.8494 32.66516,0 0,18.98809 -53.12592,0 0,-81.35739 z" style="fill:#013686;fill-opacity:1;fill-rule:nonzero;stroke:#013686;stroke-width:6.799366;stroke-linecap:butt;stroke-linejoin:miter;stroke-miterlimit:4" />
    <path inkscape:connector-curvature="0" id="path10630" stroke-miterlimit="4" d="m 183.55155,181.76519 20.89943,0 9.83871,47.47023 9.43138,-47.47023 17.51542,0 9.94838,47.00023 10.13638,-47.00023 16.90442,0 -19.05076,81.35739 -18.64342,0 -9.63505,-46.31089 -9.32171,46.31089 -19.06643,0 -18.95675,-81.35739 z" style="fill:#013686;fill-opacity:1;fill-rule:nonzero;stroke:#013686;stroke-width:6.799366;stroke-linecap:butt;stroke-linejoin:miter;stroke-miterlimit:4" />
    <path inkscape:connector-curvature="0" id="path10632" stroke-miterlimit="4" d="m 293.93941,234.67178 c 1.51967,6.79937 5.85936,10.19905 13.44206,10.19905 4.95069,0 7.88038,-2.45968 7.88038,-5.62436 0,-5.96903 -4.9507,-5.7497 -14.24107,-8.55404 -15.87041,-4.68436 -23.54712,-11.24872 -23.54712,-24.61245 0,-15.47875 11.42106,-26.96247 30.11148,-26.96247 13.73973,0 23.34345,7.14404 27.7928,20.3981 l -17.89142,5.96903 c -2.11501,-5.85936 -5.56169,-8.19371 -11.31139,-8.19371 -4.24568,0 -7.17536,2.69468 -7.17536,5.8437 0,4.80969 4.54335,5.04469 12.83106,7.3947 6.8777,1.98968 13.2384,3.27435 18.69042,8.31904 4.44936,4.10469 6.76803,10.08938 6.76803,17.34308 0,6.81504 -2.41267,13.25407 -6.86203,18.06376 -5.76536,6.21969 -13.8494,9.61938 -23.45311,9.61938 -17.78175,0 -29.40648,-9.14938 -32.74349,-24.86312 l 19.70876,-4.33969 z" style="fill:#013686;fill-opacity:1;fill-rule:nonzero;stroke:#013686;stroke-width:6.799366;stroke-linecap:butt;stroke-linejoin:miter;stroke-miterlimit:4" />
    <path inkscape:connector-curvature="0" id="path10634" stroke-miterlimit="4" d="m 101.37948,182.07853 0,40.87453 -24.455781,-40.82753 -23.56278,0 -0.203667,80.93439 20.836766,-0.047 0,-46.89056 27.918132,46.93756 19.72443,0 0,-80.93439 -20.2571,-0.047 z" style="fill:#013686;fill-opacity:1;fill-rule:nonzero;stroke:#013686;stroke-width:6.799366;stroke-linecap:butt;stroke-linejoin:miter;stroke-miterlimit:4" />
    <path inkscape:connector-curvature="0" id="path10636" d="m 117.73556,166.85045 0,-89.065425 55.60127,0 1.70767,24.346115 -31.11415,0 0,11.62473 25.34879,0 0,24.29911 -25.56812,0 -0.0157,28.79547 -25.95979,0" style="fill:white;fill-rule:nonzero;stroke:none" />
    <path inkscape:connector-curvature="0" id="path10638" d="m 334.64161,166.72512 -27.63614,-46.21689 24.86312,-42.597871 -28.56047,0 -10.70038,18.502423 -11.06072,-18.502423 -28.63881,0 25.59946,42.895541 -26.55513,45.91922 28.10614,-0.0313 12.76839,-21.88644 13.08173,21.91777 28.73281,0" style="fill:white;fill-rule:nonzero;stroke:none" />
    <path inkscape:connector-curvature="0" id="path10640" d="m 227.27742,141.11 0.17234,-37.86652 c 0,-4.308353 -3.82269,-8.178038 -8.20938,-8.178038 -4.40235,0 -7.94303,3.869685 -7.94303,8.178038 l -0.0157,37.75685 c 0,4.30835 3.55635,7.8177 7.9587,7.8177 4.38669,0 8.03704,-3.39968 8.03704,-7.70803 z m -53.51759,-18.29876 c 0,-24.784784 20.41377,-44.900881 45.60589,-44.900881 25.19212,0 45.62155,20.116097 45.62155,44.900881 0,24.80045 -20.42943,44.90088 -45.62155,44.90088 -25.19212,0 -45.60589,-20.10043 -45.60589,-44.90088" style="fill:white;fill-rule:nonzero;stroke:none" />
    <path inkscape:connector-curvature="0" id="path10642" d="m 126.80661,181.78086 52.71858,0 0,18.98809 -32.25782,0 0,11.95372 26.52379,0 0,17.57809 -26.52379,0 0,13.83373 32.66516,0 0,18.98809 -53.12592,0 0,-81.34172" style="fill:white;fill-rule:nonzero;stroke:none" />
    <path inkscape:connector-curvature="0" id="path10644" d="m 183.50455,181.78086 20.9151,0 9.83871,47.47023 9.41571,-47.47023 17.51542,0 9.94838,47.00022 10.13638,-47.00022 16.92008,0 -19.06642,81.34172 -18.64342,0 -9.63505,-46.29522 -9.32171,46.29522 -19.06643,0 -18.95675,-81.34172" style="fill:white;fill-rule:nonzero;stroke:none" />
    <path inkscape:connector-curvature="0" id="path10646" d="m 293.89241,234.68745 c 1.51967,6.79936 5.87503,10.19905 13.44206,10.19905 4.95069,0 7.88038,-2.45968 7.88038,-5.62436 0,-5.96903 -4.9507,-5.7497 -14.24107,-8.55405 -15.87041,-4.68435 -23.54712,-11.26438 -23.54712,-24.61245 0,-15.47874 11.42106,-26.96246 30.11148,-26.96246 13.73973,0 23.34345,7.14403 27.7928,20.38243 l -17.89142,5.9847 c -2.11501,-5.85937 -5.54602,-8.20938 -11.31139,-8.20938 -4.24568,0 -7.17536,2.69468 -7.17536,5.85936 0,4.80969 4.54335,5.0447 12.83106,7.39471 6.8777,1.98967 13.2384,3.27435 18.69042,8.31904 4.44936,4.10468 6.7837,10.08938 6.7837,17.34308 0,6.79937 -2.42834,13.25406 -6.8777,18.06375 -5.76536,6.20403 -13.8494,9.60372 -23.45311,9.60372 -17.78175,0 -29.40648,-9.13371 -32.74349,-24.84746 l 19.70876,-4.33968" style="fill:white;fill-rule:nonzero;stroke:none" />
    <path inkscape:connector-curvature="0" id="path10648" d="m 101.34815,181.98453 0,40.89019 -24.455784,-40.85886 -23.56278,0 -0.203668,80.95006 20.836767,-0.047 0,-46.89056 27.918135,46.93756 19.72443,0 0,-80.95006 -20.2571,-0.0313" style="fill:white;fill-rule:nonzero;stroke:none" />
  </g>
  <use id="use10732" xlink:href="#id243" x="0" y="0" width="744.09448" height="1052.3622" transform="matrix(8.3998,0,0,-8.3914,144.78089,258.0643)" />
  <g transform="matrix(-9.4640448,-13.510404,-15.702466,10.990371,143.38534,286.44946)" id="g11256">
    <use height="1052.3622" width="744.09448" y="0" x="0" xlink:href="#id292" id="use11258" />
  </g>
  <g transform="matrix(10.845806,10.93664,10.845803,-10.936636,-89.952949,313.38942)" id="g11328">
    <use height="1052.3622" width="744.09448" y="0" x="0" xlink:href="#id301" id="use11330" />
  </g>
  <g transform="matrix(-11.977024,3.2361169,3.3831025,12.731658,-74.279861,302.93648)" id="g11338">
    <use height="1052.3622" width="744.09448" y="0" x="0" xlink:href="#id304" id="use11340" />
  </g>
  <g transform="matrix(13.992072,13.992072,13.992065,-13.992065,-120.16882,264.02673)" id="g12376">
    <use height="1052.3622" width="744.09448" y="0" x="0" xlink:href="#id351" id="use12378" />
  </g>
  <g transform="matrix(0,-5.9017641,-6.0248522,0,-115.08628,265.48937)" id="g12386">
    <use height="1052.3622" width="744.09448" y="0" x="0" xlink:href="#id354" id="use12388" />
  </g>
  <g transform="matrix(0,-5.9017641,-6.0248976,0,-91.247101,265.48935)" id="g12396">
    <use height="1052.3622" width="744.09448" y="0" x="0" xlink:href="#id357" id="use12398" />
  </g>
  <use height="1052.3622" width="744.09448" y="0" x="0" xlink:href="#id399" id="use14232" transform="matrix(21.8228,0,0,-14.534,24.903984,88.84258)" />
  <use id="use14246" xlink:href="#id404" x="0" y="0" width="744.09448" height="1052.3622" transform="matrix(5.761,0,0,-8.0655,-140.31471,88.1414)" />
  <g transform="matrix(29.7555,0,0,-24.7666,-113.54601,91.2553)" id="g14294">
    <use height="1052.3622" width="744.09448" y="0" x="0" xlink:href="#id411" id="use14296" />
  </g>
  <g transform="matrix(30.4652,0,0,-18.219,-71.49601,89.4877)" id="g14304">
    <use height="1052.3622" width="744.09448" y="0" x="0" xlink:href="#id415" id="use14306" />
  </g>
  <use height="1052.3622" width="744.09448" y="0" x="0" xlink:href="#id416" id="use14358" transform="matrix(38.1582,0,0,-10.6474,102.62398,87.18598)" />
</svg>
