<svg xmlns="http://www.w3.org/2000/svg" xmlns:xlink="http://www.w3.org/1999/xlink" width="346" height="326.996"><use height="1052.362" width="744.094" xlink:href="#id38" transform="matrix(5.0401 0 0 -4.9633 243.898 160.571)"/><use height="1052.362" width="744.094" xlink:href="#id125" transform="matrix(1.37992 2.59842 2.19993 -1.1683 -167.836 177.872)"/><use height="1052.362" width="744.094" xlink:href="#id128" transform="matrix(1.77035 3.3336 2.59045 -1.3757 -168.226 180.633)"/><use height="1052.362" width="744.094" xlink:href="#id131" transform="matrix(2.84889 5.36451 3.7219 -1.97658 -165.841 178.641)"/><use height="1052.362" width="744.094" xlink:href="#id134" transform="matrix(3.04796 0 0 -.57705 -164.824 177.887)"/><use height="1052.362" width="744.094" xlink:href="#id140" transform="matrix(0 -.68625 -3.44286 0 -163.334 180.55)"/><use height="1052.362" width="744.094" xlink:href="#id143" transform="matrix(-1.35891 -6.09876 -2.78849 .62133 -165.493 183.074)"/><use height="1052.362" width="744.094" xlink:href="#id146" transform="matrix(3.04242 0 0 -.57716 -168.356 177.887)"/><use height="1052.362" width="744.094" xlink:href="#id149" transform="matrix(3.04224 0 0 -.57675 -168.356 183.36)"/><use height="1052.362" width="744.094" xlink:href="#id152" transform="rotate(-135 -44.042 122.857) scale(2.8596 -2.85956)"/><use height="1052.362" width="744.094" xlink:href="#id155" transform="scale(-3.52452 3.52452) rotate(45 -85.123 29.577)"/><use height="1052.362" width="744.094" xlink:href="#id158" transform="matrix(3.046 0 0 -.58146 -164.822 183.36)"/><use height="1052.362" width="744.094" xlink:href="#id191" transform="matrix(5.0395 0 0 -4.8479 -13.933 286.502)"/><use height="1052.362" width="744.094" xlink:href="#id226" transform="matrix(40.0893 0 0 -20.0998 57.534 138.508)"/><path d="M345.937 276.361L345.984.062H.031v276.33l345.906-.031" fill="#013686"/><path d="M.031 38.148c24.237-8.382 49.977-13.489 76.861-14.742 120.023-5.593 225.695 66.881 269.077 173.211v-6C300.77 86.182 195.584 15.54 76.39 21.103 49.71 22.356 24.126 27.338.03 35.547v2.601" fill="#fff"/><path d="M346 326.996l-.11-43.585-345.812.125v43.46H346" fill="#bc0400"/><path d="M36.532 322.811c-12.75 0-21.116-5.37-21.116-13.406 0-8.76 8.514-14.035 21.853-14.035 11.717 0 19.261 3.77 20.146 10.016H43.36c-.801-2.36-2.888-3.58-6.175-3.58-4.826 0-7.397 2.514-7.397 7.351 0 4.704 2.34 7.027 7.228 7.027 3.625 0 5.775-1.219 6.596-3.733h13.72c-1.37 6.532-9.062 10.36-20.8 10.36m105.105-.819a14.373 14.373 0 0 1-.716-2.666c-3.941 2.361-8.261 3.485-13.572 3.485-8.345 0-13.318-3.009-13.318-7.541 0-4.323 3.772-6.932 11.316-7.998 9.884-1.39 15.173-1.01 15.173-2.99v-.628c0-1.505-1.917-2.286-5.542-2.286-4.004 0-6.343 1.01-6.891 2.914h-12.855c1.37-5.865 7.945-8.627 20.062-8.627 7.481 0 12.686 1.067 15.657 3.352 2.656 2.076 2.803 4.685 2.803 8.227v9.712c0 2.285.653 3.637 2.108 4.075v.971h-14.225zm-9.778-10.55c-3.14.533-4.573 1.295-4.573 2.857 0 1.79 2.002 3.047 5.121 3.047 4.741 0 8.113-1.79 8.113-4.514v-2.951c-2.402.933-5.542 1.028-8.66 1.561m33.937-15.139h13.634v3.523c2.908-2.8 7.06-4.17 12.918-4.17 10.368 0 14.225 3.046 14.225 9.635v16.701h-13.972v-12.93c0-4.742-.316-7.008-5.858-7.008-5.058 0-7.06 1.98-7.06 6.189v13.75h-13.887v-25.69M65.532 287.2h13.971v12.435c3.203-2.76 7.292-4.018 13.066-4.018 8.914 0 13.74 3.01 13.74 8.703v17.672H92.337v-12.93c0-4.742-.316-7.008-5.858-7.008-5.058 0-7.06 1.98-7.06 6.189v13.75H65.532V287.2m150.555 9.103h13.656v3.523c2.887-2.8 7.06-4.17 12.918-4.17 10.347 0 14.224 3.046 14.224 9.635v16.701h-13.971v-12.93c0-4.742-.338-7.008-5.859-7.008-5.078 0-7.08 1.98-7.08 6.189v13.75h-13.888v-25.69m91.868 17.596c-2.486 5.618-10.115 8.855-21.03 8.855-13.172 0-21.432-5.123-21.432-13.502 0-8.607 8.43-13.825 21.431-13.825 13.403 0 21.748 5.275 21.748 14.225 0 .476 0 1.01-.063 1.485H279.78c0 3.638 2.656 5.58 7.629 5.58 3.772 0 6.174-.971 7.144-2.818h13.402zm-12.686-7.484c-.063-3.352-3.119-5.275-7.944-5.275-4.489 0-7.376 1.828-7.945 5.275h15.89m21.186-19.215h13.971v34.792h-13.971V287.2zM0 276.424h.376L96.288 0H57.105L0 271.896v4.528m2.24 0L177.05.03h-44.118L.721 276.424h1.52" fill="#fff"/><path stroke-miterlimit="3.864" d="M117.783 166.991v-89.05h55.585l1.708 24.347h-31.114v11.625h25.364v24.299h-25.568l-.016 28.78h-25.96z" fill="#013686" stroke="#013686" stroke-width="6.799"/><path d="M334.673 166.866l-27.62-46.217 24.863-42.582h-28.56l-10.717 18.502-11.045-18.502h-28.639l25.6 42.88L252 166.867l28.09-.032 12.784-21.887 13.066 21.918h28.733z" fill="#013686" stroke="#013686" stroke-width="6.799"/><path stroke-miterlimit="3.864" d="M227.324 141.251l.173-37.85c0-4.325-3.839-8.195-8.225-8.195-4.387 0-7.928 3.87-7.928 8.194l-.015 37.741c0 4.324 3.556 7.818 7.943 7.818 4.386 0 8.052-3.384 8.052-7.708zm-53.533-18.283c0-24.8 20.414-44.901 45.622-44.901 25.192 0 45.606 20.1 45.606 44.9 0 24.801-20.414 44.902-45.606 44.902-25.208 0-45.622-20.1-45.622-44.901z" fill="#013686" stroke="#013686" stroke-width="6.799"/><path d="M126.854 181.765h52.718v18.988h-32.258v11.954h26.509v17.578h-26.509v13.85h32.666v18.988h-53.126v-81.358zm56.698 0h20.899l9.839 47.47 9.431-47.47h17.515l9.949 47 10.136-47h16.905l-19.051 81.358H240.53l-9.635-46.311-9.321 46.31h-19.067l-18.956-81.357zm110.388 52.907c1.52 6.8 5.859 10.199 13.441 10.199 4.951 0 7.88-2.46 7.88-5.625 0-5.969-4.95-5.75-14.24-8.554-15.87-4.684-23.547-11.248-23.547-24.612 0-15.479 11.42-26.962 30.111-26.962 13.74 0 23.344 7.144 27.793 20.398l-17.891 5.969c-2.115-5.86-5.562-8.194-11.312-8.194-4.246 0-7.175 2.695-7.175 5.844 0 4.81 4.543 5.044 12.83 7.394 6.879 1.99 13.24 3.275 18.691 8.32 4.45 4.104 6.768 10.089 6.768 17.342 0 6.815-2.412 13.255-6.862 18.064-5.765 6.22-13.85 9.62-23.453 9.62-17.782 0-29.406-9.15-32.743-24.864l19.708-4.34zm-192.56-52.593v40.874l-24.456-40.827H53.36l-.204 80.934 20.837-.047v-46.89l27.918 46.937h19.725v-80.934l-20.258-.047z" fill="#013686" stroke="#013686" stroke-width="6.799"/><path d="M117.736 166.85V77.785h55.6l1.709 24.346H143.93v11.625h25.35v24.299h-25.57l-.016 28.795h-25.96m216.908-.125l-27.637-46.217L331.87 77.91h-28.56l-10.701 18.503-11.061-18.503h-28.639l25.6 42.896-26.555 45.92 28.106-.032 12.768-21.887 13.082 21.918h28.733" fill="#fff"/><path d="M227.277 141.11l.173-37.867c0-4.308-3.823-8.178-8.21-8.178-4.402 0-7.943 3.87-7.943 8.178L211.282 141c0 4.309 3.556 7.818 7.958 7.818 4.387 0 8.037-3.4 8.037-7.708zm-53.517-18.299c0-24.785 20.414-44.9 45.606-44.9s45.621 20.115 45.621 44.9c0 24.8-20.43 44.901-45.621 44.901-25.192 0-45.606-20.1-45.606-44.9m-46.953 58.968h52.718v18.989h-32.258v11.954h26.524V230.3h-26.524v13.833h32.666v18.989h-53.126V181.78m56.698 0h20.915l9.838 47.471 9.416-47.47h17.515l9.949 47 10.136-47h16.92l-19.066 81.342h-18.644l-9.635-46.296-9.321 46.296H202.46l-18.956-81.342m110.388 52.906c1.52 6.8 5.875 10.2 13.442 10.2 4.951 0 7.88-2.46 7.88-5.625 0-5.969-4.95-5.75-14.24-8.554-15.87-4.684-23.547-11.264-23.547-24.612 0-15.48 11.42-26.963 30.111-26.963 13.74 0 23.344 7.144 27.793 20.383L317.44 205.5c-2.115-5.86-5.546-8.21-11.312-8.21-4.246 0-7.175 2.696-7.175 5.86 0 4.81 4.543 5.045 12.83 7.395 6.879 1.99 13.24 3.274 18.691 8.319 4.45 4.105 6.784 10.09 6.784 17.343 0 6.8-2.428 13.254-6.878 18.064-5.765 6.204-13.85 9.604-23.453 9.604-17.782 0-29.406-9.134-32.743-24.848l19.708-4.34m-192.544-52.702v40.89l-24.456-40.86H53.33l-.204 80.95 20.837-.046v-46.89l27.918 46.937h19.724v-80.95l-20.257-.031" fill="#fff"/><use xlink:href="#id243" width="744.094" height="1052.362" transform="matrix(8.3998 0 0 -8.3914 144.78 258.064)"/><use height="1052.362" width="744.094" xlink:href="#id292" transform="matrix(-9.46404 -13.5104 -15.70247 10.99037 143.385 286.45)"/><use height="1052.362" width="744.094" xlink:href="#id301" transform="matrix(10.8458 10.93664 10.8458 -10.93664 -89.948 313.38)"/><use height="1052.362" width="744.094" xlink:href="#id304" transform="matrix(-11.97702 3.23612 3.3831 12.73166 -74.28 302.936)"/><use height="1052.362" width="744.094" xlink:href="#id351" transform="scale(19.78778 -19.78778) rotate(45 -19.143 .66)"/><use height="1052.362" width="744.094" xlink:href="#id354" transform="matrix(0 -5.90176 -6.02485 0 -115.086 265.49)"/><use height="1052.362" width="744.094" xlink:href="#id357" transform="matrix(0 -5.90176 -6.0249 0 -91.247 265.49)"/><use height="1052.362" width="744.094" xlink:href="#id399" transform="matrix(21.8228 0 0 -14.534 24.904 88.843)"/><use xlink:href="#id404" width="744.094" height="1052.362" transform="matrix(5.761 0 0 -8.0655 -140.315 88.141)"/><use height="1052.362" width="744.094" xlink:href="#id411" transform="matrix(29.7555 0 0 -24.7666 -113.546 91.255)"/><use height="1052.362" width="744.094" xlink:href="#id415" transform="matrix(30.4652 0 0 -18.219 -71.496 89.488)"/><use height="1052.362" width="744.094" xlink:href="#id416" transform="matrix(38.1582 0 0 -10.6474 102.624 87.186)"/></svg>