<svg xmlns="http://www.w3.org/2000/svg" width="1000" height="1437.123"><path d="M.5 1430.935v-31.09h21.505v-155.457H.5v-31.09h62.182v186.546H83.41v31.091zm162.986-163.37c-45.783 0-60.314 24.557-63.397 51.98h40.321c1.634-17.29 10.786-24.128 23.319-24.128 16.998 0 22.219 18.829 22.265 27.934l.082 11.011s-8.194-.486-14.17-.486c-46.737 0-78.375 18.089-78.375 52.71 0 34.25 22.663 49.956 50.199 49.956 33.997 0 45.908-25.99 45.908-25.99v20.403h54.41v-31.09H223.32v-79.591c0-30.459-16.395-52.71-59.834-52.71zm9.959 88.658c3.828.013 7.978.326 12.388.89v12.47c.03 22.107-10.18 35.544-27.53 35.544-14.188 0-24.29-10.411-24.29-22.266 0-14.066 12.633-26.723 39.432-26.638zm94.698 74.712v-77.21h33.439c0 25.572 18.277 48.394 43.572 48.394 19.913 0 30.89-12.819 30.89-27.986 0-47.659-106.619-27.531-106.619-102.708 0-33.638 22.628-60.562 65.325-60.562 34.105 0 45.321 24.457 45.321 24.457v-20.727h32.387v73.323H378.12c0-18.985-12.453-44.782-39.182-44.782-16.122 0-28.822 9.173-28.822 23.238 0 45.713 106.995 24.39 106.995 104.12 0 37.988-27.84 63.31-68.073 63.31-33.356 0-47.989-23.12-47.989-23.12v20.253zm650.795-163.37c-45.783 0-60.313 24.557-63.397 51.98h40.322c1.633-17.29 10.785-24.128 23.318-24.128 16.998 0 22.219 18.829 22.266 27.934l.08 11.011s-8.192-.486-14.168-.486c-46.738 0-78.376 18.09-78.376 52.71 0 34.25 22.664 49.956 50.2 49.956 33.997 0 45.907-25.99 45.907-25.99v20.403h54.41v-31.09h-20.727v-79.591c0-30.459-16.395-52.71-59.835-52.71zm9.96 88.658c3.828.013 7.977.326 12.387.89v12.47c.032 22.107-10.179 35.544-27.529 35.544-14.189 0-24.29-10.411-24.29-22.266 0-14.066 12.632-26.723 39.431-26.638zm-428.348-88.577c-41 0-72.06 27.6-72.06 85.662 0 53.6 26.068 83.315 74.003 83.315 38.01 0 68.788-25.959 69.712-57h-40.564c-1.66 15.507-12.482 27.366-30.443 27.366-25.81 0-32.306-25.563-32.306-49.875h104.204v-11.74c0-51.625-30.303-77.728-72.546-77.728zm1.457 28.5c15.036 0 30.119 14.833 30.039 35.058h-62.02c0-18.922 15.798-35.058 31.981-35.058zm81.453 134.789v-31.09h12.758l33.878-51.84-31.09-45.32h-11.66v-31.092h66.069v31.091H640.46l20.728 31.091 20.727-31.09H668.96v-31.092h61.664v31.091h-12.436l-31.091 45.524 35.235 51.636h12.697v31.091h-68.66v-31.09h12.955l-23.318-36.408-22.622 36.407h14.849v31.091zm183.956-128.251h-20.728v-31.091h22.023v-36.89l38.864-9.747v46.637h31.091v31.091h-31.09v80.32c0 15.526 8.592 21.744 28.758 17.054v29.582s-12.904 1.945-25.572 1.945c-28.63 0-43.4-8.9-43.4-37.652z" fill="#20303a"/><path d="M651.22 726.783l-76.356-126.079H251.677V298.826L425.7.5h351.6L600.85 298.826h148.037l250.381 427.957-232.623 129.63z" fill="#44dd3a"/><path d="M251.677 1154.739V856.412h323.187l76.357-129.63h348.047l-250.38 427.957z" fill="#3bb33b"/><path d="M251.677 1154.739L1.72 726.883l249.956-428.057L425.7 600.704l-75.536 126.18L425.7 856.411z" fill="#338a3b"/></svg>