<?xml version="1.0" encoding="UTF-8" standalone="no"?>
<!-- Created with Inkscape (http://www.inkscape.org/) -->

<svg
   xmlns:dc="http://purl.org/dc/elements/1.1/"
   xmlns:cc="http://creativecommons.org/ns#"
   xmlns:rdf="http://www.w3.org/1999/02/22-rdf-syntax-ns#"
   xmlns:svg="http://www.w3.org/2000/svg"
   xmlns="http://www.w3.org/2000/svg"
   xmlns:sodipodi="http://sodipodi.sourceforge.net/DTD/sodipodi-0.dtd"
   xmlns:inkscape="http://www.inkscape.org/namespaces/inkscape"
   width="704.29504"
   height="704.29498"
   id="svg2"
   version="1.1"
   inkscape:version="0.48.4 r9939"
   sodipodi:docname="USA Print.svg">
  <defs
     id="defs4">
    <clipPath
       id="clipPath3701">
      <path
         inkscape:connector-curvature="0"
         id="path3703"
         d="m 0.5697,0.0455 0.43,0 0,0.3541 -0.43,0 0,-0.3541 z" />
    </clipPath>
    <clipPath
       id="clipPath3689">
      <path
         inkscape:connector-curvature="0"
         id="path3691"
         d="m 4e-4,0.0455 0.43,0 0,0.3541 -0.43,0 0,-0.3541 z" />
    </clipPath>
    <clipPath
       id="clipPath3681">
      <path
         inkscape:connector-curvature="0"
         id="path3683"
         d="M 0,0 1,0 1,1 0,1 0,0 z" />
    </clipPath>
    <clipPath
       id="clipPath3673">
      <path
         inkscape:connector-curvature="0"
         id="path3675"
         d="m -0.18812,-0.80017 2.3455,0 0,2.06795 -2.3455,0 0,-2.06795 z" />
    </clipPath>
    <clipPath
       id="clipPath3663">
      <path
         inkscape:connector-curvature="0"
         id="path3665"
         d="M 0,0 792,0 792,612 0,612 0,0 z" />
    </clipPath>
    <clipPath
       id="clipPath3655">
      <path
         inkscape:connector-curvature="0"
         id="path3657"
         d="m 36,114.857 396,0 0,428.7061 -396,0 0,-428.7061 z" />
    </clipPath>
    <clipPath
       id="clipPath3523">
      <path
         inkscape:connector-curvature="0"
         id="path3525"
         d="m -0.3148,-0.9542 1.5554,0 0,1.9542 -1.5554,0 0,-1.9542 z" />
    </clipPath>
    <clipPath
       id="clipPath3515">
      <path
         inkscape:connector-curvature="0"
         id="path3517"
         d="m -0.6,-0.53105 13.9753,0 0,13.00385 -13.9753,0 0,-13.00385 z" />
    </clipPath>
    <clipPath
       id="clipPath3505">
      <path
         inkscape:connector-curvature="0"
         id="path3507"
         d="M 0,0 792,0 792,612 0,612 0,0 z" />
    </clipPath>
    <clipPath
       id="clipPath3497">
      <path
         inkscape:connector-curvature="0"
         id="path3499"
         d="m 34,25 56.663,0 0,50.087 L 34,75.087 34,25 z" />
    </clipPath>
  </defs>
  <sodipodi:namedview
     id="base"
     pagecolor="#ffffff"
     bordercolor="#666666"
     borderopacity="1.0"
     inkscape:pageopacity="0.0"
     inkscape:pageshadow="2"
     inkscape:zoom="0.24748737"
     inkscape:cx="622.64085"
     inkscape:cy="697.17811"
     inkscape:document-units="px"
     inkscape:current-layer="layer1"
     showgrid="false"
     inkscape:window-width="1366"
     inkscape:window-height="706"
     inkscape:window-x="-8"
     inkscape:window-y="-8"
     inkscape:window-maximized="1"
     fit-margin-top="0"
     fit-margin-left="0"
     fit-margin-right="0"
     fit-margin-bottom="0" />
  <metadata
     id="metadata7">
    <rdf:RDF>
      <cc:Work
         rdf:about="">
        <dc:format>image/svg+xml</dc:format>
        <dc:type
           rdf:resource="http://purl.org/dc/dcmitype/StillImage" />
        <dc:title></dc:title>
      </cc:Work>
    </rdf:RDF>
  </metadata>
  <g
     inkscape:label="Layer 1"
     inkscape:groupmode="layer"
     id="layer1"
     transform="translate(69.933766,-575.61518)">
    <g
       transform="matrix(2.5053117,0,0,2.5053117,-1496.4711,-70.951308)"
       id="layer1-5"
       inkscape:label="Layer 1">
      <path
         style="fill:#244aa5;fill-opacity:1;fill-rule:nonzero;stroke:none"
         id="path47312"
         d="m 569.40513,258.07826 281.12072,0 0,281.12071 -281.12072,0 z"
         inkscape:connector-curvature="0" />
      <path
         style="fill:#ffffff;fill-rule:evenodd;stroke:none"
         id="path47318"
         d="m 623.41794,464.42122 c -2.69674,-2.33718 -7.55088,-3.8953 -12.40502,-3.8953 -7.97039,0 -14.98192,4.25487 -18.81729,11.38626 -2.21733,4.25486 -3.29603,9.10901 -3.29603,15.22163 0,7.19132 1.97762,13.12416 5.93284,17.55881 4.01516,4.67436 9.22886,6.77182 16.06062,6.77182 5.57327,0 9.70828,-1.37833 13.54365,-4.5545 l -4.43464,-6.17255 c -2.93646,2.27725 -5.57328,3.11624 -8.44981,3.11624 -4.19493,0 -7.49096,-1.85776 -9.46857,-5.51335 -1.49819,-2.63681 -2.03754,-6.41226 -2.03754,-13.06423 0,-5.75306 0.83899,-9.82814 2.75667,-12.64474 1.73791,-2.63682 5.03393,-4.25486 8.32995,-4.25486 2.75667,0 5.33356,0.89891 7.85053,2.75667 l 4.43464,-6.7119"
         inkscape:connector-curvature="0" />
      <path
         style="fill:#ffffff;fill-rule:evenodd;stroke:none"
         id="path47322"
         d="m 629.10508,460.60982 c 0.41949,1.49819 0.71913,4.85414 0.71913,8.27002 l 0,41.76959 9.58843,0 0,-25.88876 c 2.09747,-1.91768 5.15378,-3.35595 7.49096,-3.35595 2.69674,0 3.65559,1.31841 3.65559,4.974 l 0,24.27071 9.28879,0 0,-25.28948 c 0,-3.41588 -0.23971,-4.67436 -0.95885,-6.7119 -1.13862,-3.11624 -4.79421,-5.15378 -9.40864,-5.15378 -3.65559,0 -7.73067,1.55812 -10.24763,3.8953 0,-0.41949 0.17978,-1.85776 0.17978,-2.99638 l 0,-7.25125 c 0,-3.41588 -0.23971,-6.83176 -0.65921,-8.80937 l -9.64835,2.27725"
         inkscape:connector-curvature="0" />
      <path
         style="fill:#ffffff;fill-rule:evenodd;stroke:none"
         id="path47326"
         d="m 685.55095,494.84051 -0.11985,7.73067 c -1.43826,1.61804 -3.17617,2.51696 -4.974,2.51696 -2.3971,0 -4.13501,-1.91769 -4.13501,-4.73429 0,-4.31479 2.27725,-5.51334 8.80937,-5.51334 z m -18.57757,-16.06062 4.01515,6.83176 c 3.95523,-2.63682 7.43103,-4.07509 10.48734,-4.07509 3.41588,0 4.19494,1.25848 4.19494,5.33357 l 0,1.49819 c -0.77906,-0.11986 -1.37834,-0.11986 -2.09747,-0.11986 -11.50611,0 -17.37902,3.95523 -17.37902,12.46496 0,7.13139 4.43464,11.2664 12.46495,11.2664 2.93646,0 5.45342,-0.71913 7.25125,-1.97761 0.65921,-0.53935 1.49819,-1.19856 2.1574,-1.91769 0.89891,1.85776 2.87653,3.41588 5.09385,4.37472 l 5.03392,-5.75305 c -2.75667,-2.03754 -3.41587,-3.53574 -3.41587,-7.43104 l 0,-0.6592 0.23971,-12.10539 c 0.0599,-3.8953 -0.11986,-4.974 -0.59928,-6.47219 -1.43826,-4.07508 -5.6332,-6.35233 -11.6859,-6.35233 -3.35595,0 -6.35233,0.6592 -9.88806,2.15739 -2.51696,1.01878 -3.95523,1.73791 -5.87291,2.93646"
         inkscape:connector-curvature="0" />
      <path
         style="fill:#ffffff;fill-rule:evenodd;stroke:none"
         id="path47330"
         d="m 702.28276,475.99325 c 0.83899,2.39711 1.25848,5.33357 1.25848,8.44981 l 0,26.18839 9.46857,0 0,-25.52919 c 2.21733,-1.97761 4.67436,-3.29602 6.59205,-3.29602 2.45703,0 3.17617,1.25848 3.17617,5.33356 l 0,23.49165 9.22886,0 0,-26.36818 c 0,-2.27725 -0.17979,-3.83537 -0.59928,-5.15378 -1.19855,-3.11624 -4.67436,-5.2137 -8.68951,-5.2137 -2.1574,0 -4.67436,0.53934 -6.53212,1.55811 -1.55812,0.77906 -2.75667,1.67798 -4.19494,2.69675 0,-1.55812 -0.47942,-3.05631 -1.3184,-4.5545 l -8.38988,2.3971"
         inkscape:connector-curvature="0" />
      <path
         style="fill:#ffffff;fill-rule:evenodd;stroke:none"
         id="path47334"
         d="m 739.1203,475.99325 c 0.83899,2.39711 1.25848,5.33357 1.25848,8.44981 l 0,26.18839 9.46858,0 0,-25.52919 c 2.15739,-1.97761 4.67435,-3.29602 6.53211,-3.29602 2.45704,0 3.17617,1.25848 3.17617,5.33356 l 0,23.49165 9.34872,0 0,-26.36818 c 0,-2.27725 -0.17979,-3.83537 -0.71914,-5.15378 -1.13862,-3.11624 -4.67436,-5.2137 -8.68951,-5.2137 -2.09747,0 -4.5545,0.53934 -6.47219,1.55811 -1.55812,0.77906 -2.75667,1.67798 -4.19494,2.69675 0,-1.55812 -0.47942,-3.05631 -1.3184,-4.5545 l -8.38988,2.3971"
         inkscape:connector-curvature="0" />
      <path
         style="fill:#ffffff;fill-rule:evenodd;stroke:none"
         id="path47338"
         d="m 785.82793,488.61402 0,-0.11985 c 0,-5.03393 2.03754,-7.85053 5.6332,-7.85053 1.91769,0 3.2361,0.71913 4.19494,2.1574 0.83899,1.31841 1.0787,2.69674 1.0787,5.39349 l 0,0.41949 z m 16.65989,12.3451 c -2.87653,2.39711 -5.93284,3.65559 -9.16893,3.65559 -4.85414,0 -7.61082,-3.23609 -7.61082,-8.74944 l 0,-0.29964 20.85483,0 0,-2.21732 c 0,-7.55089 -1.49819,-12.40503 -4.79421,-15.82091 -2.33718,-2.3971 -6.2924,-3.77544 -10.42741,-3.77544 -4.79422,0 -8.44981,1.55812 -11.38626,4.85414 -3.17617,3.53573 -4.49458,7.85053 -4.49458,14.32271 0,11.38626 6.7119,18.69744 17.01946,18.69744 5.09385,0 9.5285,-1.61805 13.66351,-4.974 l -3.65559,-5.69313"
         inkscape:connector-curvature="0" />
      <path
         style="fill:#ffffff;fill-rule:evenodd;stroke:none"
         id="path47342"
         d="m 822.47969,458.42246 -9.64835,2.1574 c 0.29964,3.29602 0.47942,6.23247 0.47942,10.90683 l 0,26.90753 c 0,5.21371 0.17978,6.35233 0.83899,8.15016 1.13862,3.05631 4.43465,4.91407 8.38987,4.91407 2.09747,0 4.07508,-0.29964 5.69313,-0.89891 l -1.61805,-5.69313 c -0.53934,0.11985 -0.71913,0.11985 -1.07869,0.11985 -0.77906,0 -1.55812,-0.35956 -1.85776,-0.95884 -0.59928,-1.01877 -0.65921,-1.85776 -0.65921,-8.03031 l 0,-28.22593 c 0,-5.03393 -0.11985,-7.37111 -0.53935,-9.34872"
         inkscape:connector-curvature="0" />
      <path
         style="fill:#ffffff;fill-rule:evenodd;stroke:none"
         id="path47346"
         d="m 587.06582,395.54035 11.74582,49.50026 11.20648,0 4.07508,-20.19562 c 1.49819,-7.1314 2.33718,-14.08301 2.33718,-14.08301 0.11985,1.37834 0.83898,7.67074 2.33718,14.26279 l 4.37472,20.01584 10.78698,0 11.86568,-49.50026 -10.36749,0 -4.07508,18.57758 c -0.95885,4.85414 -2.51697,14.80214 -2.63682,16.36026 0,0 -1.19855,-8.38988 -2.1574,-13.00431 l -4.49457,-21.93353 -10.78698,0 -4.37472,19.83606 c -1.4982,6.77183 -2.33718,13.78337 -2.51697,15.64113 0,0 -0.6592,-6.95161 -2.63681,-16.12055 l -4.25487,-19.35664 -10.42741,0"
         inkscape:connector-curvature="0" />
      <path
         style="fill:#ffffff;fill-rule:evenodd;stroke:none"
         id="path47350"
         d="m 655.66502,422.56773 0,-0.11985 c 0,-5.03393 2.03755,-7.85053 5.63321,-7.85053 1.91768,0 3.23609,0.71914 4.19493,2.1574 0.77906,1.31841 1.0787,2.69674 1.0787,5.39349 l 0,0.41949 z m 16.6599,12.3451 c -2.87653,2.39711 -5.93284,3.59566 -9.16894,3.59566 -4.85414,0 -7.61081,-3.17616 -7.61081,-8.68951 l 0,-0.29964 20.85483,0 0,-2.21732 c 0,-7.55089 -1.49819,-12.40503 -4.79421,-15.82091 -2.27726,-2.3971 -6.29241,-3.83537 -10.42742,-3.83537 -4.79421,0 -8.4498,1.61805 -11.32633,4.91407 -3.23609,3.53573 -4.5545,7.85053 -4.5545,14.32272 0,11.38625 6.7119,18.69743 17.07938,18.69743 5.09386,0 9.46858,-1.61805 13.60359,-5.03392 l -3.65559,-5.63321"
         inkscape:connector-curvature="0" />
      <path
         style="fill:#ffffff;fill-rule:evenodd;stroke:none"
         id="path47354"
         d="m 700.04147,428.79422 -0.11986,7.73067 c -1.43826,1.61805 -3.17617,2.45703 -4.974,2.45703 -2.3971,0 -4.13501,-1.85775 -4.13501,-4.67436 0,-4.31479 2.27726,-5.51334 8.80937,-5.51334 z m -18.57758,-16.06062 4.01515,6.83176 c 3.8953,-2.63682 7.43103,-4.07508 10.48734,-4.07508 3.47581,0 4.19494,1.25848 4.19494,5.33356 l 0,1.49819 c -0.71913,-0.11986 -1.37834,-0.11986 -2.09747,-0.11986 -11.50611,0 -17.37902,3.95523 -17.37902,12.40503 0,7.25125 4.37472,11.32633 12.40503,11.32633 2.99638,0 5.51334,-0.71913 7.31117,-1.97761 0.65921,-0.47942 1.49819,-1.19855 2.1574,-1.91769 0.89891,1.85776 2.93645,3.47581 5.09385,4.37472 l 5.03393,-5.75305 c -2.75668,-2.03754 -3.41588,-3.53573 -3.41588,-7.43103 l 0,-0.65921 0.23971,-12.16532 c 0.0599,-3.83537 -0.11986,-4.91406 -0.59928,-6.47218 -1.43826,-4.01516 -5.6332,-6.29241 -11.68589,-6.29241 -3.35595,0 -6.35234,0.6592 -9.88807,2.1574 -2.51696,1.01877 -3.95523,1.7379 -5.87291,2.93645"
         inkscape:connector-curvature="0" />
      <path
         style="fill:#ffffff;fill-rule:evenodd;stroke:none"
         id="path47358"
         d="m 736.04002,408.46675 -8.4498,0 c 0,-3.71551 0.17978,-7.61081 0.53935,-10.90683 l -9.58843,2.3971 c -0.35957,2.63682 -0.35957,4.974 -0.35957,8.50973 l -3.59566,0 0,6.47219 3.59566,0 0,19.59635 c 0,3.35595 0.0599,4.07508 0.59928,5.6332 1.13863,3.17617 4.974,5.27364 9.76821,5.27364 2.45703,0 4.91407,-0.47943 7.73067,-1.61805 l -1.25848,-5.6332 c -1.67798,0.47942 -2.51696,0.6592 -3.35595,0.6592 -3.2361,0 -4.07508,-1.19855 -4.07508,-5.75305 l 0,-18.15809 6.05269,0 2.39711,-6.47219"
         inkscape:connector-curvature="0" />
      <path
         style="fill:#ffffff;fill-rule:evenodd;stroke:none"
         id="path47362"
         d="m 740.12709,394.55754 c 0.41949,1.49819 0.71913,4.85414 0.71913,8.21009 l 0,41.82952 9.58843,0 0,-25.88876 c 2.15739,-1.91768 5.15378,-3.29602 7.49096,-3.29602 2.69674,0 3.65558,1.31841 3.65558,4.91407 l 0,24.27071 9.28879,0 0,-25.22955 c 0,-3.47581 -0.29964,-4.67436 -0.95884,-6.77183 -1.13863,-3.11624 -4.79421,-5.15378 -9.40864,-5.15378 -3.65559,0 -7.73067,1.55812 -10.24764,3.95523 0,-0.47943 0.17979,-1.91769 0.17979,-3.05632 l 0,-7.19132 c 0,-3.4758 -0.17979,-6.83175 -0.65921,-8.86929 l -9.64835,2.27725"
         inkscape:connector-curvature="0" />
      <path
         style="fill:#ffffff;fill-rule:evenodd;stroke:none"
         id="path47366"
         d="m 786.03768,422.56773 0,-0.11985 c 0,-5.03393 2.03754,-7.85053 5.6332,-7.85053 1.97761,0 3.23609,0.71914 4.19494,2.1574 0.83898,1.31841 1.07869,2.69674 1.07869,5.39349 l 0,0.41949 z m 16.65989,12.3451 c -2.87653,2.39711 -5.93284,3.59566 -9.16893,3.59566 -4.85415,0 -7.61082,-3.17616 -7.61082,-8.68951 l 0,-0.29964 20.91476,0 0,-2.21732 c 0,-7.55089 -1.49819,-12.40503 -4.85414,-15.82091 -2.27725,-2.3971 -6.29241,-3.83537 -10.42742,-3.83537 -4.79421,0 -8.38987,1.61805 -11.32633,4.91407 -3.17616,3.53573 -4.5545,7.85053 -4.5545,14.32272 0,11.38625 6.7119,18.69743 17.07939,18.69743 5.09385,0 9.46857,-1.61805 13.60358,-5.03392 l -3.65559,-5.63321"
         inkscape:connector-curvature="0" />
      <path
         style="fill:#ffffff;fill-rule:evenodd;stroke:none"
         id="path47370"
         d="m 811.99834,409.86307 c 0.77906,2.03754 1.31841,5.69313 1.31841,10.60719 l 0,24.09093 9.46858,0 0,-25.52919 c 1.79783,-2.03754 3.71551,-2.99638 5.81298,-2.99638 1.01877,0 1.79783,0.17978 2.75667,0.71913 l 2.57689,-8.38988 c -1.43826,-0.6592 -2.09747,-0.77905 -3.53573,-0.77905 -1.01877,0 -2.33718,0.23971 -3.05631,0.59927 -1.79783,0.77906 -4.01516,2.69675 -5.39349,4.61443 -0.11986,-2.09747 -0.59928,-3.65559 -1.49819,-5.2137 l -8.44981,2.27725"
         inkscape:connector-curvature="0" />
      <path
         style="fill:#ffffff;fill-rule:evenodd;stroke:none"
         id="path47374"
         d="m 587.43138,330.60273 0,8.21009 11.98553,0 0,40.87067 10.00792,0 0,-40.87067 11.74583,0 1.61804,-8.21009 z"
         inkscape:connector-curvature="0" />
      <path
         style="fill:#ffffff;fill-rule:evenodd;stroke:none"
         id="path47378"
         d="m 627.00162,329.61392 c 0.41949,1.49819 0.71913,4.85414 0.71913,8.21009 l 0,41.82952 9.58843,0 0,-25.88876 c 2.09747,-1.91768 5.15378,-3.29602 7.49096,-3.29602 2.69674,0 3.65559,1.25848 3.65559,4.91407 l 0,24.27071 9.28878,0 0,-25.28948 c 0,-3.41588 -0.29963,-4.67436 -0.95884,-6.7119 -1.13862,-3.11624 -4.79421,-5.15378 -9.40864,-5.15378 -3.65559,0 -7.73067,1.55812 -10.24764,3.8953 0,-0.4195 0.17979,-1.85776 0.17979,-2.99639 l 0,-7.25124 c 0,-3.41588 -0.23971,-6.83176 -0.65921,-8.80937 l -9.64835,2.27725"
         inkscape:connector-curvature="0" />
      <path
         style="fill:#ffffff;fill-rule:evenodd;stroke:none"
         id="path47382"
         d="m 674.33249,357.63011 0,-0.17979 c 0,-4.97399 2.03755,-7.79059 5.69313,-7.79059 1.85776,0 3.17617,0.71913 4.13501,2.09747 0.83899,1.37833 1.0787,2.75667 1.0787,5.45341 l 0,0.4195 z m 16.6599,12.3451 c -2.87653,2.3971 -5.93284,3.59566 -9.16894,3.59566 -4.85414,0 -7.61081,-3.17617 -7.61081,-8.74944 l 0,-0.23971 20.85483,0 0,-2.21733 c 0,-7.55088 -1.49819,-12.46495 -4.79421,-15.8209 -2.27726,-2.39711 -6.29241,-3.83537 -10.42742,-3.83537 -4.79421,0 -8.38987,1.61804 -11.32633,4.91407 -3.17617,3.53573 -4.5545,7.85052 -4.5545,14.26278 0,11.44619 6.7119,18.75736 17.07938,18.75736 5.03393,0 9.46858,-1.61804 13.66351,-5.03392 l -3.71551,-5.6332"
         inkscape:connector-curvature="0" />
    </g>
  </g>
</svg>
