<svg xmlns="http://www.w3.org/2000/svg" width="704.295" height="704.295"><path d="M0 0h704.295v704.295H0z" fill="#244aa5"/><path d="M135.319 516.953c-6.756-5.855-18.917-9.759-31.079-9.759-19.968 0-37.534 10.66-47.143 28.527-5.555 10.66-8.257 22.82-8.257 38.135 0 18.016 4.954 32.88 14.863 43.99 10.06 11.71 23.122 16.965 40.237 16.965 13.963 0 24.322-3.453 33.931-11.41l-11.11-15.464c-7.357 5.705-13.963 7.807-21.17 7.807-10.509 0-18.766-4.654-23.721-13.813-3.753-6.606-5.105-16.064-5.105-32.73 0-14.413 2.102-24.622 6.907-31.679 4.354-6.606 12.611-10.66 20.869-10.66 6.906 0 13.362 2.253 19.668 6.907l11.11-16.816m14.248-9.548c1.05 3.753 1.802 12.16 1.802 20.719V632.77h24.022v-64.86c5.254-4.804 12.911-8.408 18.767-8.408 6.756 0 9.158 3.303 9.158 12.462v60.806h23.272v-63.36c0-8.557-.601-11.71-2.403-16.815-2.852-7.807-12.01-12.912-23.571-12.912-9.159 0-19.368 3.904-25.674 9.76 0-1.052.45-4.655.45-7.508V523.77c0-8.558-.6-17.116-1.65-22.07l-24.173 5.705m141.414 85.758l-.3 19.368c-3.603 4.054-7.957 6.306-12.461 6.306-6.006 0-10.36-4.805-10.36-11.861 0-10.81 5.706-13.813 22.07-13.813zm-46.542-40.237l10.06 17.116c9.908-6.606 18.616-10.21 26.273-10.21 8.558 0 10.51 3.154 10.51 13.363v3.753c-1.952-.3-3.453-.3-5.255-.3-28.826 0-43.54 9.91-43.54 31.229 0 17.866 11.11 28.226 31.229 28.226 7.356 0 13.662-1.802 18.166-4.955 1.652-1.351 3.754-3.003 5.405-4.804 2.252 4.654 7.207 8.557 12.762 10.96l12.611-14.414c-6.906-5.104-8.557-8.858-8.557-18.617v-1.651l.6-30.328c.15-9.759-.3-12.461-1.501-16.215-3.603-10.21-14.113-15.914-29.277-15.914-8.408 0-15.915 1.651-24.773 5.405-6.305 2.552-9.909 4.354-14.713 7.356m88.461-6.981c2.102 6.005 3.153 13.362 3.153 21.17v65.61h23.721v-63.96c5.556-4.954 11.711-8.257 16.516-8.257 6.155 0 7.957 3.153 7.957 13.363v58.853h23.121v-66.06c0-5.705-.45-9.609-1.501-12.912-3.003-7.807-11.711-13.062-21.77-13.062-5.405 0-11.711 1.351-16.365 3.904-3.904 1.952-6.907 4.204-10.51 6.756 0-3.904-1.2-7.657-3.303-11.41l-21.02 6.005m92.291 0c2.101 6.005 3.152 13.362 3.152 21.17v65.61h23.722v-63.96c5.405-4.954 11.71-8.257 16.365-8.257 6.156 0 7.957 3.153 7.957 13.363v58.853h23.422v-66.06c0-5.705-.45-9.609-1.802-12.912-2.853-7.807-11.71-13.062-21.77-13.062-5.255 0-11.41 1.351-16.215 3.904-3.903 1.952-6.906 4.204-10.51 6.756 0-3.904-1.2-7.657-3.302-11.41l-21.02 6.005m117.018 31.619v-.3c0-12.612 5.104-19.668 14.112-19.668 4.805 0 8.108 1.801 10.51 5.405 2.102 3.303 2.703 6.756 2.703 13.512v1.05zm41.738 30.928c-7.207 6.006-14.864 9.159-22.971 9.159-12.161 0-19.068-8.108-19.068-21.92v-.751h52.248v-5.555c0-18.918-3.753-31.079-12.01-39.637-5.856-6.005-15.765-9.458-26.125-9.458-12.01 0-21.17 3.903-28.526 12.161-7.957 8.858-11.26 19.668-11.26 35.883 0 28.526 16.815 46.843 42.639 46.843 12.762 0 23.872-4.054 34.231-12.462l-9.158-14.263m50.085-106.567l-24.171 5.405c.75 8.257 1.2 15.614 1.2 27.325v67.411c0 13.062.451 15.915 2.103 20.42 2.852 7.656 11.11 12.31 21.019 12.31 5.255 0 10.21-.75 14.263-2.252l-4.054-14.263c-1.351.3-1.801.3-2.702.3-1.952 0-3.904-.9-4.655-2.402-1.501-2.552-1.651-4.654-1.651-20.118v-70.715c0-12.611-.3-18.467-1.351-23.421M44.246 344.385L73.672 468.4h28.076l10.21-50.596c3.753-17.867 5.855-35.283 5.855-35.283.3 3.453 2.102 19.218 5.855 35.733l10.96 50.146h27.025l29.727-124.014h-25.974l-10.209 46.543c-2.402 12.161-6.306 37.084-6.606 40.988 0 0-3.003-21.02-5.405-32.58l-11.26-54.95H104.9l-10.96 49.695c-3.753 16.965-5.855 34.532-6.306 39.186 0 0-1.651-17.416-6.606-40.387l-10.66-48.495H44.246m171.862 67.711v-.3c0-12.611 5.105-19.668 14.113-19.668 4.804 0 8.107 1.802 10.51 5.405 1.951 3.303 2.702 6.756 2.702 13.512v1.051zm41.738 30.929c-7.206 6.005-14.863 9.008-22.97 9.008-12.162 0-19.068-7.957-19.068-21.77v-.75h52.247v-5.556c0-18.917-3.753-31.078-12.01-39.636-5.706-6.006-15.765-9.609-26.124-9.609-12.011 0-21.17 4.054-28.376 12.311-8.108 8.859-11.41 19.668-11.41 35.883 0 28.526 16.815 46.843 42.788 46.843 12.762 0 23.722-4.054 34.082-12.611l-9.159-14.113m69.439-15.329l-.3 19.367c-3.604 4.054-7.958 6.156-12.462 6.156-6.005 0-10.36-4.654-10.36-11.71 0-10.81 5.706-13.813 22.07-13.813zm-46.543-40.237l10.06 17.116c9.758-6.607 18.616-10.21 26.273-10.21 8.708 0 10.51 3.153 10.51 13.362v3.754c-1.802-.3-3.453-.3-5.255-.3-28.826 0-43.54 9.909-43.54 31.078 0 18.167 10.96 28.376 31.079 28.376 7.507 0 13.812-1.802 18.317-4.955 1.651-1.2 3.753-3.002 5.405-4.804 2.252 4.654 7.356 8.708 12.761 10.96l12.612-14.413c-6.907-5.105-8.558-8.858-8.558-18.617v-1.652l.6-30.478c.15-9.608-.3-12.31-1.5-16.214-3.604-10.06-14.114-15.765-29.278-15.765-8.407 0-15.914 1.652-24.772 5.405-6.306 2.552-9.91 4.354-14.714 7.357m136.73-10.69h-21.169c0-9.308.45-19.067 1.351-27.325l-24.022 6.006c-.9 6.606-.9 12.46-.9 21.319h-9.009v16.215h9.008v49.095c0 8.408.15 10.21 1.502 14.113 2.852 7.957 12.461 13.212 24.472 13.212 6.156 0 12.311-1.201 19.368-4.054l-3.153-14.113c-4.204 1.201-6.306 1.652-8.408 1.652-8.107 0-10.209-3.003-10.209-14.413v-45.492h15.164l6.005-16.215m10.24-34.847c1.05 3.754 1.801 12.161 1.801 20.569v104.796h24.022v-64.86c5.405-4.804 12.912-8.257 18.768-8.257 6.756 0 9.158 3.303 9.158 12.311v60.806h23.271V404.08c0-8.708-.75-11.71-2.402-16.965-2.853-7.808-12.01-12.912-23.572-12.912-9.158 0-19.367 3.903-25.673 9.909 0-1.201.45-4.805.45-7.657v-18.017c0-8.708-.45-17.115-1.651-22.22l-24.172 5.705m115.02 70.174v-.3c0-12.611 5.105-19.668 14.113-19.668 4.955 0 8.107 1.802 10.51 5.405 2.102 3.303 2.702 6.756 2.702 13.512v1.051zm41.738 30.929c-7.206 6.005-14.863 9.008-22.97 9.008-12.162 0-19.068-7.957-19.068-21.77v-.75h52.398v-5.556c0-18.917-3.754-31.078-12.161-39.636-5.706-6.006-15.765-9.609-26.124-9.609-12.011 0-21.02 4.054-28.376 12.311-7.958 8.859-11.41 19.668-11.41 35.883 0 28.526 16.815 46.843 42.788 46.843 12.762 0 23.722-4.054 34.082-12.611l-9.159-14.113m23.302-62.758c1.951 5.105 3.303 14.263 3.303 26.575v60.355h23.721v-63.959c4.505-5.104 9.309-7.507 14.564-7.507 2.552 0 4.504.45 6.906 1.802l6.456-21.02c-3.603-1.65-5.255-1.951-8.858-1.951-2.553 0-5.856.6-7.657 1.501-4.504 1.952-10.06 6.757-13.513 11.561-.3-5.255-1.5-9.158-3.753-13.062l-21.17 5.705M45.161 181.696v20.57H75.19v102.393h25.073V202.265h29.427l4.053-20.569zm99.136-2.476c1.051 3.753 1.802 12.16 1.802 20.568v104.796h24.022v-64.86c5.255-4.804 12.912-8.257 18.767-8.257 6.756 0 9.158 3.153 9.158 12.311v60.806h23.272v-63.358c0-8.558-.751-11.71-2.403-16.815-2.852-7.808-12.01-12.912-23.571-12.912-9.158 0-19.368 3.903-25.674 9.759 0-1.051.45-4.655.45-7.507v-18.167c0-8.558-.6-17.116-1.65-22.07l-24.173 5.705m118.579 70.189v-.45c0-12.461 5.104-19.518 14.263-19.518 4.654 0 7.957 1.802 10.36 5.255 2.101 3.453 2.702 6.906 2.702 13.662v1.051zm41.738 30.929c-7.207 6.005-14.864 9.008-22.971 9.008-12.161 0-19.068-7.957-19.068-21.92v-.6h52.248v-5.556c0-18.917-3.753-31.228-12.01-39.636-5.706-6.006-15.765-9.609-26.125-9.609-12.01 0-21.019 4.054-28.376 12.311-7.957 8.859-11.41 19.668-11.41 35.733 0 28.676 16.815 46.993 42.79 46.993 12.61 0 23.72-4.053 34.23-12.611l-9.308-14.113" fill="#fff" fill-rule="evenodd"/></svg>