<?xml version="1.0" encoding="UTF-8" standalone="no"?>
<!-- Created with Inkscape (http://www.inkscape.org/) -->

<svg xmlns:dc="http://purl.org/dc/elements/1.1/" xmlns:cc="http://creativecommons.org/ns#" xmlns:rdf="http://www.w3.org/1999/02/22-rdf-syntax-ns#" xmlns:svg="http://www.w3.org/2000/svg" xmlns="http://www.w3.org/2000/svg" xmlns:sodipodi="http://sodipodi.sourceforge.net/DTD/sodipodi-0.dtd" xmlns:inkscape="http://www.inkscape.org/namespaces/inkscape" id="svg2985" version="1.1" inkscape:version="0.48.5 r10040" width="1000" height="312.29361" sodipodi:docname="Bloomberg_tv_2016.png">
  <metadata id="metadata2991">
    <rdf:RDF>
      <cc:Work rdf:about="">
        <dc:format>image/svg+xml</dc:format>
        <dc:type rdf:resource="http://purl.org/dc/dcmitype/StillImage" />
        <dc:title></dc:title>
      </cc:Work>
    </rdf:RDF>
  </metadata>
  <defs id="defs2989" />
  <sodipodi:namedview pagecolor="#ffffff" bordercolor="#666666" borderopacity="1" objecttolerance="10" gridtolerance="10" guidetolerance="10" inkscape:pageopacity="0" inkscape:pageshadow="2" inkscape:window-width="1366" inkscape:window-height="706" id="namedview2987" showgrid="false" fit-margin-top="0" fit-margin-left="0" fit-margin-right="0" fit-margin-bottom="0" inkscape:zoom="0.78822055" inkscape:cx="539.04623" inkscape:cy="10.483939" inkscape:window-x="-8" inkscape:window-y="-8" inkscape:window-maximized="1" inkscape:current-layer="svg2985" />
  <g id="g3085" style="fill:black" transform="matrix(1.2523183,0,0,1.2523183,0.59981373,-0.1960673)">
    <g transform="matrix(6.0778099,0,0,6.5776139,-11.440759,-46.965145)" style="font-size:25.04999924px;font-style:normal;font-weight:bold;text-align:start;text-anchor:start;fill:black;font-family:Helvetica Black" id="text3001">
      <path d="m 9.5940262,17.662438 c 0.9576178,-0.0287 1.7352008,0.05376 2.3327508,0.247366 0.597527,0.19362 0.905429,0.670607 0.923707,1.430962 -0.01567,0.660691 -0.259903,1.105322 -0.732703,1.333895 -0.472825,0.228583 -1.080279,0.335044 -1.822364,0.319384 l -2.5801166,0 0,-3.331607 z m 0.2003974,-6.287469 c 0.6481504,-0.02817 1.2055044,0.03446 1.6720664,0.187872 0.466538,0.153443 0.710772,0.566763 0.732703,1.23996 -0.01097,0.526055 -0.201975,0.920587 -0.573012,1.183597 -0.371059,0.263032 -0.856397,0.394543 -1.456012,0.394532 l -2.4548686,0 0,-3.005961 z m 0.8015894,13.827422 c 2.372922,0.02557 4.25269,-0.376267 5.639309,-1.205517 1.386586,-0.829246 2.095282,-2.239333 2.126091,-4.230263 -0.0031,-0.995719 -0.259908,-1.866194 -0.770278,-2.61143 -0.510404,-0.745219 -1.255631,-1.252474 -2.235683,-1.521767 0.60222,-0.365819 1.1387,-0.880381 1.609441,-1.543686 0.470708,-0.663283 0.719117,-1.459654 0.745228,-2.389113 C 17.660004,9.9445434 16.952352,8.7411163 15.587161,8.0903301 14.22194,7.4395781 12.499776,7.1316762 10.420666,7.1666234 l -8.6170893,0 0,18.0357676 z" style="font-size:25.04999924px;font-style:normal;font-weight:bold;text-align:start;text-anchor:start;fill:black;font-family:Helvetica Black" id="path3019" inkscape:connector-curvature="0" />
      <path d="m 24.317056,25.202391 0,-18.0357676 -5.210333,0 0,18.0357676 z" style="font-size:25.04999924px;font-style:normal;font-weight:bold;text-align:start;text-anchor:start;fill:black;font-family:Helvetica Black" id="path3021" inkscape:connector-curvature="0" />
      <path d="m 32.489966,15.20757 c 0.663362,-0.01565 1.18393,0.284949 1.561707,0.901788 0.377757,0.616857 0.570185,1.418446 0.577285,2.404769 -0.0061,1.23318 -0.200541,2.136011 -0.583361,2.708496 -0.382841,0.572493 -0.917588,0.855345 -1.604244,0.848558 -0.654769,0.0068 -1.180402,-0.276064 -1.576898,-0.848558 -0.39651,-0.572485 -0.600078,-1.475316 -0.610707,-2.708496 -0.01469,-0.784361 0.14229,-1.520194 0.470943,-2.207503 0.32864,-0.687291 0.917065,-1.053642 1.765275,-1.099054 z m -7.292015,3.582103 c 0.04659,2.24456 0.743379,3.936455 2.090377,5.075691 1.346994,1.139238 3.064667,1.710162 5.153025,1.712772 2.088342,0.0063 3.806015,-0.56988 5.153024,-1.728428 1.346983,-1.158545 2.043775,-2.93707 2.090378,-5.335581 -0.02179,-2.070243 -0.670983,-3.716214 -1.947576,-4.937918 -1.276622,-1.22168 -3.049997,-1.846878 -5.320133,-1.875594 -2.183053,0.01045 -3.924019,0.62208 -5.222906,1.834889 -1.298892,1.212832 -1.964287,2.96422 -1.996189,5.254169 z" style="font-size:25.04999924px;font-style:normal;font-weight:bold;text-align:start;text-anchor:start;fill:black;font-family:Helvetica Black" id="path3023" inkscape:connector-curvature="0" />
      <path d="m 47.598476,15.20757 c 0.656603,-0.01565 1.171867,0.284949 1.545794,0.901788 0.373909,0.616857 0.564376,1.418446 0.571403,2.404769 -0.0061,1.23318 -0.198497,2.136011 -0.577417,2.708496 -0.378939,0.572493 -0.908239,0.855345 -1.587899,0.848558 -0.648098,0.0068 -1.168375,-0.276064 -1.560832,-0.848558 -0.392469,-0.572485 -0.593964,-1.475316 -0.604483,-2.708496 -0.01454,-0.784361 0.14084,-1.520194 0.466144,-2.207503 0.325292,-0.687291 0.907721,-1.053642 1.74729,-1.099054 z m -7.217719,3.582103 c 0.04611,2.24456 0.735805,3.936455 2.069079,5.075691 1.333269,1.139238 3.033441,1.710162 5.100521,1.712772 2.067066,0.0063 3.767237,-0.56988 5.100523,-1.728428 1.333258,-1.158545 2.02295,-2.93707 2.069079,-5.335581 -0.02157,-2.070243 -0.664145,-3.716214 -1.927733,-4.937918 -1.263614,-1.22168 -3.018922,-1.846878 -5.265927,-1.875594 -2.160811,0.01045 -3.88404,0.62208 -5.169692,1.834889 -1.285658,1.212832 -1.944274,2.96422 -1.97585,5.254169 z" style="font-size:25.04999924px;font-style:normal;font-weight:bold;text-align:start;text-anchor:start;fill:black;font-family:Helvetica Black" id="path3025" inkscape:connector-curvature="0" />
      <path d="m 55.592651,25.202391 5.058526,0 0,-6.487867 c -0.01875,-0.811498 0.0917,-1.493057 0.331358,-2.04468 0.239645,-0.551606 0.720974,-0.838633 1.443989,-0.861082 0.656121,-0.0078 1.107051,0.201972 1.352791,0.629373 0.245722,0.427419 0.362255,1.119415 0.349598,2.075992 l 0,6.688264 5.058525,0 0,-6.487867 c -0.01876,-0.811498 0.09169,-1.493057 0.331359,-2.04468 0.239637,-0.551606 0.720966,-0.838633 1.44399,-0.861082 0.656111,-0.0078 1.10704,0.201972 1.352789,0.629373 0.245714,0.427419 0.362247,1.119415 0.349599,2.075992 l 0,6.688264 5.058526,0 0,-7.7654 c 0.02885,-1.806177 -0.320742,-3.210001 -1.048794,-4.211477 -0.728097,-1.001452 -2.007927,-1.509752 -3.839493,-1.524899 -0.934305,0.0016 -1.765232,0.205108 -2.492783,0.610586 -0.727584,0.405503 -1.363952,1.003564 -1.909108,1.794183 -0.296411,-0.713904 -0.779768,-1.290046 -1.45007,-1.728428 -0.670327,-0.438356 -1.5732,-0.663803 -2.708621,-0.676341 -0.926696,0.03446 -1.748504,0.297478 -2.465424,0.789064 -0.716935,0.491612 -1.240824,1.00513 -1.571669,1.540556 l 0,-1.953875 -4.645088,0 z" style="font-size:25.04999924px;font-style:normal;font-weight:bold;text-align:start;text-anchor:start;fill:black;font-family:Helvetica Black" id="path3027" inkscape:connector-curvature="0" />
      <path d="m 84.186519,7.1666234 -5.09233,0 0,18.0357676 4.578201,0 0,-1.853676 0.04897,0 c 0.309594,0.640855 0.779859,1.168985 1.410796,1.584391 0.630923,0.415407 1.474543,0.630417 2.530863,0.64503 2.073338,-0.04958 3.563699,-0.733224 4.471085,-2.050942 0.907363,-1.317715 1.351108,-2.972036 1.331228,-4.962968 -0.02756,-2.017534 -0.547803,-3.656199 -1.56075,-4.915999 -1.012965,-1.259778 -2.353373,-1.908981 -4.021221,-1.947612 -0.755393,-0.0042 -1.435798,0.129437 -2.041217,0.400795 -0.605435,0.271384 -1.157308,0.705578 -1.655619,1.302583 z m 2.032035,14.6540606 c -0.818125,-0.04488 -1.385299,-0.399747 -1.701524,-1.064611 -0.316237,-0.664856 -0.467211,-1.370421 -0.452923,-2.116698 -0.0066,-0.712865 0.159639,-1.366243 0.498828,-1.960138 0.339175,-0.593877 0.891048,-0.909085 1.655619,-0.945624 0.807399,0.03758 1.371513,0.36323 1.692343,0.976937 0.32081,0.613725 0.474846,1.290066 0.462105,2.029024 0.01427,0.753061 -0.136704,1.445058 -0.452924,2.075992 -0.31624,0.630943 -0.883414,0.965982 -1.701524,1.005118 z" style="font-size:25.04999924px;font-style:normal;font-weight:bold;text-align:start;text-anchor:start;fill:black;font-family:Helvetica Black" id="path3029" inkscape:connector-curvature="0" />
      <path d="m 99.019271,17.161444 c 0.0039,-0.708688 0.204145,-1.263955 0.600554,-1.665803 0.396375,-0.401829 0.965225,-0.606401 1.706485,-0.613717 0.60104,0.01984 1.11139,0.249463 1.53108,0.688866 0.41968,0.439422 0.6387,0.96964 0.65704,1.590654 z m 9.442209,2.655266 c 0.0144,-2.420418 -0.62087,-4.368028 -1.90569,-5.842838 -1.28484,-1.474787 -3.09142,-2.232538 -5.41975,-2.273257 -2.042442,0.02506 -3.719197,0.663829 -5.030275,1.9163 -1.311097,1.252494 -1.988932,2.968395 -2.033528,5.147709 0.04557,2.212725 0.727388,3.899402 2.045415,5.060034 1.318019,1.160636 2.998737,1.745128 5.042178,1.753478 1.50333,0.02296 2.90856,-0.292246 4.21569,-0.945625 1.30711,-0.653378 2.20099,-1.7827 2.68163,-3.387969 l -4.73299,0 c -0.18433,0.387751 -0.44002,0.676866 -0.76704,0.867344 -0.32702,0.190485 -0.68973,0.285465 -1.0881,0.284941 -0.67438,-0.01043 -1.24619,-0.246319 -1.715414,-0.707654 -0.46924,-0.461327 -0.714021,-1.085481 -0.734335,-1.872463 z" style="font-size:25.04999924px;font-style:normal;font-weight:bold;text-align:start;text-anchor:start;fill:black;font-family:Helvetica Black" id="path3031" inkscape:connector-curvature="0" />
      <path sodipodi:nodetypes="cccsccccccsccccc" d="m 109.46881,25.202391 5.05142,0 0,-5.329616 c 4.9e-4,-1.398079 0.25518,-2.390672 0.76406,-2.97778 0.50887,-0.587094 1.26896,-0.872034 2.28028,-0.85482 0.16747,0.0031 0.50751,-0.0022 0.68095,0.03225 0.17342,0.03445 0.70917,0.08987 0.87665,0.11805 l 0,-4.203749 c -0.10703,-0.04422 -0.6185,-0.08699 -0.72552,-0.08917 -0.13312,-0.0052 -0.34452,0.0096 -0.45154,0.008 -0.9593,-0.0021 -1.75209,0.246335 -2.37839,0.745228 -0.62632,0.498919 -1.10992,1.055912 -1.45082,2.08085 l -0.0476,0 0,-2.414168 -4.59952,0 z" style="font-size:25.04999924px;font-style:normal;font-weight:bold;text-align:start;text-anchor:start;fill:black;font-family:Helvetica Black" id="path3033" inkscape:connector-curvature="0" />
      <path sodipodi:nodetypes="cccccccsccscccccccccscccsccccccccc" d="m 126.14013,15.433017 c 0.79753,0.02715 1.45144,0.317306 1.77721,0.870476 0.32575,0.553189 0.483,1.206567 0.47178,1.960137 0.008,0.731144 -0.15524,1.366779 -0.49016,1.906907 -0.33497,0.540138 -0.98274,0.806291 -1.75883,0.798458 -0.68419,-0.036 -1.19069,-0.302157 -1.51951,-0.798458 -0.32883,-0.496292 -0.49222,-1.081827 -0.49016,-1.756609 -0.0128,-0.87099 0.12916,-1.583862 0.42582,-2.138616 0.29665,-0.554737 0.8246,-0.835501 1.58385,-0.842295 z m -6.72768,9.722421 c 0.10263,1.001463 1.20348,2.596276 2.25888,3.337853 1.05538,0.741571 2.70663,1.130885 4.95375,1.167942 2.07411,-0.01377 3.3867,-0.328588 4.35524,-0.944465 0.96852,-0.615885 1.58576,-1.450255 1.85174,-2.503113 0.26595,-1.05286 0.38214,-2.241636 0.34857,-3.566331 l 0,-10.400482 -4.71908,0 0,1.557946 c -0.46262,-0.646583 -0.81103,-0.986488 -1.48806,-1.36068 -0.67705,-0.374166 -1.36928,-0.582218 -2.15047,-0.590059 -2.08321,0.07568 -3.38147,0.782294 -4.26377,2.119829 -0.8823,1.337559 -1.31119,2.698585 -1.28668,4.389951 0.0107,1.727389 0.49781,3.182356 1.46131,4.364906 0.96347,1.182555 2.33901,1.798359 4.12659,1.847414 0.91139,-0.01253 1.66196,-0.15656 2.2517,-0.432108 0.58973,-0.275545 0.82974,-0.607452 1.18972,-0.995724 l 0,1.077136 c 0.007,1.03711 -0.28366,1.311826 -0.60837,1.704793 -0.32475,0.392965 -0.7473,0.43931 -1.47642,0.428352 -0.25735,-0.001 -0.69971,-0.01822 -0.88351,-0.07561 -0.18382,-0.05741 -0.43524,-0.221115 -0.54553,-0.322355 -0.10979,-0.102288 -0.36005,-0.337178 -0.41161,-0.439463 -0.0515,-0.102287 -0.16843,-0.288487 -0.16793,-0.365723 z" style="font-size:25.04999924px;font-style:normal;font-weight:bold;text-align:start;text-anchor:start;fill:black;font-family:Helvetica Black" id="path3035" inkscape:connector-curvature="0" />
    </g>
    <g transform="matrix(5.8739021,0,0,6.609139,-4.1056762,-124.77173)" style="font-size:25.04999924px;font-style:normal;font-weight:bold;text-align:start;text-anchor:start;fill:black;font-family:Helvetica Black" id="text3005">
      <path sodipodi:nodetypes="ccccccccc" d="m 0.77653998,42.474062 5.31053142,0 0,13.781275 5.9117236,0 0,-13.781275 5.310532,0 0,-4.254492 -16.53278702,0 z" style="font-size:25.04999924px;font-style:normal;font-weight:bold;text-align:start;text-anchor:start;fill:black;font-family:Helvetica Black" id="path3039" inkscape:connector-curvature="0" />
      <path d="m 19.726935,48.214391 c 0.004,-0.708689 0.206556,-1.263956 0.607649,-1.665804 0.401082,-0.401829 0.976644,-0.606401 1.726687,-0.613717 0.608142,0.01984 1.124543,0.249463 1.549205,0.688866 0.424642,0.439422 0.646243,0.96964 0.664805,1.590655 z m 9.553931,2.655265 c 0.01453,-2.420418 -0.628219,-4.368028 -1.928233,-5.842838 -1.300042,-1.474787 -3.128001,-2.232538 -5.483884,-2.273257 -2.066615,0.02506 -3.763219,0.663829 -5.089816,1.9163 -1.326602,1.252494 -2.012463,2.968395 -2.057584,5.147709 0.04612,2.212726 0.735996,3.899402 2.069617,5.060035 1.333616,1.160635 3.03423,1.745127 5.101848,1.753477 1.521119,0.02296 2.942977,-0.292246 4.265578,-0.945625 1.322576,-0.653378 2.22703,-1.7827 2.713364,-3.387969 l -4.788998,0 c -0.186516,0.387751 -0.445218,0.676866 -0.776108,0.867344 -0.330906,0.190485 -0.697902,0.285465 -1.100986,0.284941 -0.68236,-0.01044 -1.260931,-0.246319 -1.735713,-0.707654 -0.474794,-0.461327 -0.722466,-1.085481 -0.743016,-1.872463 z" style="font-size:25.04999924px;font-style:normal;font-weight:bold;text-align:start;text-anchor:start;fill:black;font-family:Helvetica Black" id="path3041" inkscape:connector-curvature="0" />
      <path d="m 35.7381,56.255337 0,-18.035767 -5.005586,0 0,18.035767 z" style="font-size:25.04999924px;font-style:normal;font-weight:bold;text-align:start;text-anchor:start;fill:black;font-family:Helvetica Black" id="path3043" inkscape:connector-curvature="0" />
      <path d="m 42.105193,48.389034 c 0.0041,-0.693986 0.212683,-1.237733 0.625676,-1.631244 0.412983,-0.393492 1.00562,-0.59382 1.777917,-0.600984 0.626185,0.01943 1.157906,0.244287 1.595168,0.674574 0.43724,0.430306 0.665417,0.949523 0.684529,1.557654 z m 9.837386,2.600177 c 0.01496,-2.370202 -0.646859,-4.277405 -1.985443,-5.721618 -1.338612,-1.44419 -3.220805,-2.18622 -5.646585,-2.226094 -2.127929,0.02454 -3.874869,0.650056 -5.240825,1.876543 -1.365961,1.226509 -2.07217,2.90681 -2.11863,5.040911 0.04749,2.166819 0.757832,3.818502 2.13102,4.955055 1.373184,1.136556 3.124252,1.708921 5.253214,1.717098 1.566249,0.02248 3.030292,-0.286183 4.392133,-0.926006 1.361816,-0.639823 2.293104,-1.745715 2.793867,-3.31768 l -4.931081,0 c -0.192051,0.379707 -0.458428,0.662823 -0.799135,0.84935 -0.340724,0.186533 -0.718609,0.279542 -1.133652,0.279029 -0.702605,-0.01022 -1.29834,-0.241209 -1.787208,-0.692972 -0.488882,-0.451756 -0.743901,-1.062961 -0.765061,-1.833616 z" style="font-size:25.04999924px;font-style:normal;font-weight:bold;text-align:start;text-anchor:start;fill:black;font-family:Helvetica Black" id="path3045" inkscape:connector-curvature="0" />
      <path sodipodi:nodetypes="cccccccc" d="m 55.658781,56.263029 6.079511,0 4.565011,-12.859263 -4.813064,0 -2.552665,8.105964 -2.51946,-8.105964 -5.139221,0 z" style="font-size:25.04999924px;font-style:normal;font-weight:bold;text-align:start;text-anchor:start;fill:black;font-family:Helvetica Black" id="path3047" inkscape:connector-curvature="0" />
      <path sodipodi:nodetypes="cccccccccc" d="m 71.9806,56.263029 0,-12.859263 -4.967406,0 0,12.859263 z m -4.967406,-13.926607 4.967406,0 0,-3.632005 -4.967406,0 z" style="font-size:25.04999924px;font-style:normal;font-weight:bold;text-align:start;text-anchor:start;fill:black;font-family:Helvetica Black" id="path3049" inkscape:connector-curvature="0" />
      <path sodipodi:nodetypes="cscscccccccccccccccccccccscccccc" d="m 73.064949,52.262914 c 0.199039,1.695859 0.926013,2.856423 2.180919,3.481695 1.254902,0.625273 2.637654,0.920782 4.14826,0.886528 2.304245,-0.01994 4.394694,-0.434061 5.507725,-1.242366 1.113008,-0.808304 1.558517,-1.867161 1.552515,-3.224564 -0.0415,-1.179029 -0.348385,-2.076642 -1.136636,-2.644852 -0.788276,-0.568197 -1.701003,-0.97171 -2.738182,-1.210541 -1.037199,-0.238816 -2.446283,-0.453673 -3.23454,-0.644573 -0.78827,-0.190884 -1.394052,-0.498536 -1.435533,-0.922956 0.005,-0.316974 0.133356,-0.548063 0.385045,-0.693272 0.251677,-0.145188 0.596613,-0.216764 1.034809,-0.214729 0.194019,-5.01e-4 0.854783,0.02506 1.027761,0.07669 0.172961,0.05165 0.326377,0.132426 0.460249,0.242337 0.132852,0.10942 0.240142,0.240303 0.321873,0.39265 0.08171,0.152365 0.134857,0.332329 0.159433,0.539892 l 4.548345,0 c -0.215598,-1.661079 -0.951595,-2.762337 -2.207993,-3.303776 -1.25642,-0.541413 -2.606082,-0.789887 -4.04899,-0.745419 -0.899485,-0.0084 -2.166587,0.114839 -3.075864,0.369926 -0.909286,0.255113 -1.67284,0.692905 -2.290662,1.313375 -0.617827,0.620494 -0.939291,1.474566 -0.964395,2.562219 0.04023,1.218537 0.442575,2.103658 1.207026,2.655366 0.764447,0.551722 2.01232,0.931461 3.01818,1.13922 1.005848,0.20777 1.891,0.404988 2.655457,0.591659 0.764441,0.186678 1.166783,0.524238 1.207026,1.012682 -0.01806,0.445311 -0.186515,0.751046 -0.505371,0.917203 -0.318874,0.166163 -0.851669,0.244897 -1.254755,0.236204 -0.242165,-9.8e-4 -0.467777,-0.03579 -0.676837,-0.104298 -0.209074,-0.06851 -0.392573,-0.164624 -0.550495,-0.288352 -0.169466,-0.134971 -0.29982,-0.300619 -0.391062,-0.496947 -0.09126,-0.196321 -0.137378,-0.42332 -0.138375,-0.681001 z" style="font-size:25.04999924px;font-style:normal;font-weight:bold;text-align:start;text-anchor:start;fill:black;font-family:Helvetica Black" id="path3051" inkscape:connector-curvature="0" />
      <path sodipodi:nodetypes="cccsccccccscscccsc" d="m 101.26649,46.471339 c 0.67161,-0.01533 1.19865,0.279158 1.58112,0.88346 0.38246,0.604321 0.57728,1.389618 0.58446,2.355896 -0.006,1.208117 -0.20303,2.092599 -0.59061,2.653449 -0.3876,0.560858 -0.92899,0.837961 -1.62419,0.831312 -0.6629,0.0067 -1.19507,-0.270453 -1.596495,-0.831311 -0.401437,-0.560851 -0.60754,-1.445333 -0.618308,-2.65345 -0.01483,-0.76842 0.144063,-1.489298 0.476802,-2.162639 0.33272,-0.673323 0.928471,-1.032228 1.787221,-1.076717 z m -7.382669,3.509303 c 0.04714,2.198941 0.752625,3.856451 2.116369,4.972533 1.363744,1.116085 3.102767,1.675405 5.21708,1.677962 2.11431,0.0062 3.85334,-0.558298 5.21709,-1.6933 1.36373,-1.134999 2.06919,-2.877378 2.11637,-5.227142 -0.0221,-2.028168 -0.67932,-3.640687 -1.97179,-4.837562 -1.29249,-1.196851 -3.08792,-1.809343 -5.38627,-1.837475 -2.210204,0.01024 -3.972809,0.609437 -5.287847,1.797597 -1.315038,1.188183 -1.988698,2.903977 -2.021002,5.147387 z" style="font-size:25.04999924px;font-style:normal;font-weight:bold;text-align:start;text-anchor:start;fill:black;font-family:Helvetica Black" id="path3055" inkscape:connector-curvature="0" />
      <path sodipodi:nodetypes="ccccccccccccccccc" d="m 109.56981,56.263029 5.00558,0 0,-6.552334 c -0.0151,-0.829772 0.11731,-1.477028 0.39708,-1.941774 0.27975,-0.464728 0.98806,-0.700931 1.74312,-0.708609 0.69437,0.02046 1.39373,0.261775 1.63991,0.723947 0.24616,0.462189 0.36147,1.022531 0.34594,1.68103 l 0,6.79774 5.08195,0 0,-7.705742 c 0.004,-1.776114 -0.39508,-3.138115 -1.19725,-4.086005 -0.80218,-0.947868 -2.03152,-1.426408 -3.688,-1.435624 -0.93856,0.0025 -1.8593,0.206051 -2.53312,0.610447 -0.67383,0.40442 -1.36386,0.994417 -1.91735,1.769989 l 0,-2.012328 -4.87786,0 z" style="font-size:25.04999924px;font-style:normal;font-weight:bold;text-align:start;text-anchor:start;fill:black;font-family:Helvetica Black" id="path3057" inkscape:connector-curvature="0" />
      <path inkscape:connector-curvature="0" id="path3083" style="font-size:25.04999924px;font-style:normal;font-weight:bold;text-align:start;text-anchor:start;fill:black;font-family:Helvetica Black" d="m 92.522132,56.263029 0,-12.859263 -4.967406,0 0,12.859263 z m -4.967406,-13.926607 4.967406,0 0,-3.632005 -4.967406,0 z" sodipodi:nodetypes="cccccccccc" />
    </g>
  </g>
  <g id="text3003" style="font-size:25.04999924px;font-style:normal;font-weight:bold;text-align:start;text-anchor:start;fill:blue;font-family:Helvetica Black" transform="matrix(6.0778099,0,0,6.5776139,-10.961796,15.799504)" />
  <g id="text3007" style="font-size:25.04999924px;font-style:normal;font-weight:bold;text-align:start;text-anchor:start;fill:blue;font-family:Helvetica Black" transform="matrix(6.0778099,0,0,6.5776139,-10.961796,15.799504)" />
</svg>
