<?xml version="1.0" encoding="UTF-8" standalone="no"?>
<!-- Created with Inkscape (http://www.inkscape.org/) -->

<svg
   xmlns:dc="http://purl.org/dc/elements/1.1/"
   xmlns:cc="http://creativecommons.org/ns#"
   xmlns:rdf="http://www.w3.org/1999/02/22-rdf-syntax-ns#"
   xmlns:svg="http://www.w3.org/2000/svg"
   xmlns="http://www.w3.org/2000/svg"
   xmlns:sodipodi="http://sodipodi.sourceforge.net/DTD/sodipodi-0.dtd"
   xmlns:inkscape="http://www.inkscape.org/namespaces/inkscape"
   id="svg2985"
   version="1.1"
   inkscape:version="0.91 r13725"
   width="1000"
   height="649.93835"
   xml:space="preserve"
   sodipodi:docname="CBS_News_Stacked.svg"><metadata
     id="metadata2991"><rdf:RDF><cc:Work
         rdf:about=""><dc:format>image/svg+xml</dc:format><dc:type
           rdf:resource="http://purl.org/dc/dcmitype/StillImage" /><dc:title /></cc:Work></rdf:RDF></metadata><defs
     id="defs2989"><clipPath
       clipPathUnits="userSpaceOnUse"
       id="clipPath2999"><path
         d="m 15,15 603,0 0,630 -603,0 0,-630 z"
         id="path3001"
         inkscape:connector-curvature="0" /></clipPath><clipPath
       clipPathUnits="userSpaceOnUse"
       id="clipPath3013"><path
         d="m 15,15 612,0 0,630 -612,0 0,-630 z"
         id="path3015"
         inkscape:connector-curvature="0" /></clipPath><clipPath
       clipPathUnits="userSpaceOnUse"
       id="clipPath3021"><path
         d="m 14,14 605,0 0,632 -605,0 0,-632 z"
         id="path3023"
         inkscape:connector-curvature="0" /></clipPath><clipPath
       clipPathUnits="userSpaceOnUse"
       id="clipPath3055"><path
         d="m 15,15 612,0 0,630 -612,0 0,-630 z"
         id="path3057"
         inkscape:connector-curvature="0" /></clipPath><clipPath
       clipPathUnits="userSpaceOnUse"
       id="clipPath3087"><path
         d="M 0,0 642,0 642,660 0,660 0,0 z"
         id="path3089"
         inkscape:connector-curvature="0" /></clipPath></defs><sodipodi:namedview
     pagecolor="#ffffff"
     bordercolor="#666666"
     borderopacity="1"
     objecttolerance="10"
     gridtolerance="10"
     guidetolerance="10"
     inkscape:pageopacity="0"
     inkscape:pageshadow="2"
     inkscape:window-width="1366"
     inkscape:window-height="705"
     id="namedview2987"
     showgrid="false"
     fit-margin-left="0.5"
     fit-margin-bottom="0.5"
     fit-margin-top="0.5"
     fit-margin-right="0.5"
     inkscape:zoom="0.35950949"
     inkscape:cx="851.39592"
     inkscape:cy="715.29574"
     inkscape:window-x="-8"
     inkscape:window-y="-8"
     inkscape:window-maximized="1"
     inkscape:current-layer="g2993" /><g
     id="g2993"
     inkscape:groupmode="layer"
     inkscape:label="CBS Social Responsibility Report"
     transform="matrix(1.25,0,0,-1.25,-74.533013,1301.2893)"><path
       inkscape:connector-curvature="0"
       style="fill:#000000;fill-opacity:1;fill-rule:nonzero;stroke:none;stroke-width:15;stroke-linecap:round;stroke-linejoin:round;stroke-miterlimit:4;stroke-dasharray:none;stroke-opacity:1"
       d="m 179.8579,1038.4275 c -31.78131,0 -62.2607,-12.6252 -84.73349,-35.0979 -22.47277,-22.47273 -35.098,-52.95213 -35.098,-84.73343 0,-31.7815 12.62523,-62.2609 35.098,-84.7336 22.47279,-22.4727 52.95218,-35.0981 84.73349,-35.0981 31.78131,0 62.26086,12.6254 84.73357,35.0981 22.47291,22.4727 35.09814,52.9521 35.09814,84.7336 0,31.7813 -12.62523,62.2607 -35.09814,84.73343 -22.47271,22.4727 -52.95226,35.0979 -84.73357,35.0979 z m 0,-50.32933 c 32.89366,0 64.44004,-13.0668 87.69951,-36.326 9.76816,-9.7684 17.73757,-20.9986 23.69757,-33.176 -5.96,-12.1776 -13.92941,-23.4078 -23.69757,-33.1759 -23.25947,-23.2595 -54.80585,-36.3265 -87.69951,-36.3265 -32.89366,0 -64.44,13.067 -87.69931,36.3265 -9.76824,9.7681 -17.73771,20.9983 -23.69763,33.1759 5.95992,12.1774 13.92939,23.4076 23.69763,33.176 23.25931,23.2592 54.80565,36.326 87.69931,36.326 z m 0,-5.9914 c -16.84396,0 -32.99808,-6.6915 -44.90859,-18.602 -11.91066,-11.9105 -18.60207,-28.0646 -18.60207,-44.9086 0,-16.8441 6.69141,-32.9983 18.60207,-44.909 11.91051,-11.9103 28.06463,-18.6018 44.90859,-18.6018 16.84416,0 32.99828,6.6915 44.90879,18.6018 11.9105,11.9107 18.60203,28.0649 18.60203,44.909 0,16.844 -6.69153,32.9981 -18.60203,44.9086 -11.91051,11.9105 -28.06463,18.602 -44.90879,18.602 z"
       id="path4180" /><g
       id="g3051"
       style="fill:#000000"
       transform="matrix(6.6117675,0,0,6.6117675,-336.85423,-2926.4284)"><g
         id="g3053"
         clip-path="url(#clipPath3055)"
         style="fill:#000000"><g
           id="g3059"
           transform="translate(78.150406,599.7813)"
           style="fill:#000000" /><g
           id="g3063"
           transform="translate(78.150406,572.23)"
           style="fill:#000000" /><g
           id="g3067"
           transform="translate(105.9761,581.57671)"
           style="fill:#000000"><path
             d="m 0,0 c 0,13.253 3.808,17.986 8.294,17.986 6.348,0 9.819,-9.552 10.918,-13.253 l 0,12.823 c -1.099,-0.861 -1.608,-1.291 -2.792,-1.291 -1.186,0 -2.962,0.602 -3.809,1.119 -0.846,0.516 -2.539,0.947 -4.232,0.947 -5.587,0 -15.32,-7.487 -15.32,-18.331 0,-12.822 8.633,-18.33 15.32,-18.33 1.693,0 3.555,0.689 4.401,1.205 0.845,0.517 2.454,1.205 3.64,1.205 1.184,0 1.693,-0.431 2.792,-1.291 l 0,12.908 c -0.93,-4.99 -4.57,-13.682 -10.918,-13.682 -1.819,0 -4.317,0.86 -5.459,2.065 C 2.483,-15.549 0,-13.768 0,0"
             style="fill:#000000;fill-opacity:1;fill-rule:nonzero;stroke:none"
             id="path3069"
             inkscape:connector-curvature="0" /></g><g
           id="g3071"
           transform="translate(146.48489,582.94141)"
           style="fill:#000000"><path
             d="m 0,0 c 6.996,1.489 8.25,4.552 8.25,7.79 0,4.333 -4.934,8.577 -12.02,8.577 l -16.686,0 0,-0.35 5.562,0 0,-34.923 -5.562,0 0,-0.35 17.494,0 c 5.292,0 13.008,3.326 13.008,10.153 C 10.046,-2.276 2.689,-0.35 0,0 m 2.241,7.878 c 0,-7.353 -2.467,-7.702 -4.799,-7.702 l -5.192,0 0,15.841 3.89,0 c 3.14,0 6.101,-0.788 6.101,-8.139 m -5.384,-26.784 -5.111,0 0,0.083 0.504,0 0,18.648 4.877,0 c 3.588,-0.087 6.46,-1.838 6.46,-9.453 0,-7.615 -2.603,-9.278 -6.73,-9.278"
             style="fill:#000000;fill-opacity:1;fill-rule:nonzero;stroke:none"
             id="path3073"
             inkscape:connector-curvature="0" /></g><g
           id="g3075"
           transform="translate(177.5098,586.3779)"
           style="fill:#000000"><path
             d="M 0,0 0.46,0 0.402,13.334 0,13.334 c 0,0 -1.149,-1.264 -2.759,-1.264 -1.609,0 -4.081,1.552 -6.724,1.552 -2.644,0 -9.6,-2.816 -9.6,-10.806 0,-7.989 5.346,-9.368 7.875,-10.403 2.53,-1.035 10.461,-2.702 10.461,-7.989 0,-5.289 -3.737,-7.128 -6.897,-7.128 -3.162,0 -7.012,2.299 -9.139,7.07 -2.126,4.771 -2.185,7.012 -2.185,7.012 l -0.517,0 0,-13.622 0.402,0 c 0,0 0.921,1.265 2.243,1.265 1.321,0 5.805,-2.357 9.368,-2.357 3.563,0 10.864,3.679 10.864,11.725 0,8.047 -6.094,8.967 -8.22,9.714 -2.127,0.747 -10.518,2.184 -10.518,8.162 0,5.978 6.149,8.105 9.77,5.518 C -1.954,9.196 -0.115,1.954 0,0"
             style="fill:#000000;fill-opacity:1;fill-rule:nonzero;stroke:none"
             id="path3077"
             inkscape:connector-curvature="0" /></g><g
           id="g3079"
           transform="translate(172.6821,543.4917)"
           style="fill:#000000"><path
             d="m 0,0 c -2.127,0.747 -10.519,2.183 -10.519,8.161 0,5.978 6.15,8.105 9.771,5.517 C 2.874,11.092 4.712,3.85 4.828,1.896 l 0.46,0 -0.058,13.335 -0.402,0 c 0,0 -1.15,-1.265 -2.76,-1.265 -1.609,0 -4.081,1.552 -6.724,1.552 -2.644,0 -9.599,-2.817 -9.599,-10.805 0,-7.99 5.346,-9.369 7.875,-10.404 2.529,-1.034 10.461,-2.701 10.461,-7.99 0,-5.287 -3.737,-7.126 -6.897,-7.126 -3.162,0 -7.013,2.299 -9.139,7.069 -2.127,4.77 -2.185,7.013 -2.185,7.013 l -0.517,0 0,-13.622 0.402,0 c 0,0 0.921,1.264 2.242,1.264 1.322,0 5.805,-2.357 9.369,-2.357 3.563,0 10.863,3.679 10.863,11.725 C 8.219,-1.668 2.126,-0.747 0,0 m -12.166,15.087 -8.118,0 0,-1.032 3.603,0 -7.884,-25.635 -7.608,25.635 3.919,0 0,1.032 -13.039,0 0,-1.032 2.287,0 3.371,-10.825 -4.526,-14.908 -7.484,25.733 3.007,0 0,1.032 -46.87,0 0,-1.032 4.015,0 0,-22.559 -14.366,23.591 -1.595,0 -0.915,0 -7.97,0 0,-1.032 3.985,0 0,-33.851 -3.985,0 0,-0.885 8.856,0 0,0.885 -3.788,0 0,30.543 18.991,-31.38 0.787,0 0.246,0 0.443,0 0,34.688 7.134,0 0,-33.851 -3.986,0 0,-0.885 27.702,0 0,0.344 0,0.541 0,10.332 -0.69,0 c 0,0 -1.328,-6.298 -4.133,-8.315 -1.523,-1.096 -3.014,-1.696 -4.062,-2.017 l -8.435,0 0,17.713 2.657,0 c 1.427,0 2.706,-0.346 3.936,-1.575 1.23,-1.23 2.264,-5.659 2.264,-5.659 l 0.787,0 0,15.449 -0.787,0 c 0,0 -0.541,-2.017 -1.28,-4.231 -0.738,-2.213 -3.543,-3.099 -4.871,-3.099 -0.948,0 -2.112,-0.025 -2.706,-0.039 l 0,15.292 7.676,0 c 1.564,-0.452 3.711,-1.284 4.821,-2.658 1.87,-2.312 2.362,-5.117 2.362,-5.117 l 0.787,0 0,7.775 3.05,0 10.825,-36.066 1.328,0 7.282,23.52 7.036,-23.52 1.377,0 11.258,36.066 3.306,0 0,1.032 z"
             style="fill:#000000;fill-opacity:1;fill-rule:nonzero;stroke:none"
             id="path3081"
             inkscape:connector-curvature="0" /></g></g></g></g></svg>