<?xml version="1.0" encoding="utf-8"?>
<!-- Generator: Adobe Illustrator 21.0.0, SVG Export Plug-In . SVG Version: 6.00 Build 0)  -->
<svg version="1.1" id="Layer_1" xmlns="http://www.w3.org/2000/svg" xmlns:xlink="http://www.w3.org/1999/xlink" x="0px" y="0px"
	 viewBox="0 0 200.3 200.3" style="enable-background:new 0 0 200.3 200.3;" xml:space="preserve">
<style type="text/css">
	.st0{fill:#CB2026;}
	.st1{fill:#FFFFFF;}
</style>
<title>logo-cnn-rojo-mobile</title>
<desc>Created with Sketch.</desc>
<g id="Page-1">
	<g id="logo-cnn-rojo-mobile">
		<g id="Capa_2">
			<g id="Capa_1-2">
				<g id="Capa_2-2">
					<g id="Layer_1_1_">
						<rect id="Rectangle-path" x="-0.3" y="-0.3" class="st0" width="200.9" height="200.9"/>
						<path id="Shape" class="st1" d="M42.6,77.1c0-8.5,6.9-15.3,15.4-15.3h11.6v-8.7H57.8c-8.6,0-16.5,4.6-20.8,12
							c-4.3,7.4-4.3,16.6,0,24s12.2,12,20.8,12h22.5c1.2-0.1,2.2-1.1,2.3-2.3V54.1c0-2.4,1.6-4.4,3.8-5.1c2.6-0.6,5.3,0.7,6.5,3.1
							l14,24.2l13.6,23.4c0.7,1.2,1.7,1.8,2.6,1.5c0.8-0.2,1.3-1,1.3-1.8V54.1c0-2.4,1.6-4.4,3.8-5.1c2.6-0.7,5.4,0.6,6.5,3.1
							l13,22.4l14.7,25.2c0.7,1.2,1.7,1.8,2.6,1.5c0.8-0.2,1.3-1,1.3-1.8V41h-8.7v34.9l-15.2-26.1c-9.2-15.6-26.6-9.2-26.6,4.3v21.8
							l-15.2-26.1C91.4,34.1,74,40.5,74,54v35.8c0,0.6-0.2,1.3-0.7,1.7c-0.4,0.5-1,0.7-1.7,0.7H57.9C49.5,92.3,42.7,85.5,42.6,77.1
							L42.6,77.1z"/>
						<path id="Shape_1_" class="st1" d="M169.8,41v58.8c0,2.8-2.2,5.2-5,5.4l0,0c-2.2-0.1-4.2-1.3-5.2-3.3L145,76.8l-13.1-22.7
							c-0.7-1.2-1.7-1.8-2.6-1.5c-0.8,0.2-1.3,1-1.3,1.8v45.4c0,2.4-1.6,4.4-3.8,5.1c-2.6,0.6-5.3-0.7-6.5-3.1l-13.6-23.4L90,54.1
							c-0.7-1.2-1.7-1.8-2.6-1.5c-0.8,0.2-1.3,1-1.3,1.8v44.4c-0.1,3.1-2.6,5.6-5.7,5.7H57.8c-15.2,0-27.5-12.3-27.5-27.5
							s12.3-27.5,27.5-27.5h11.7V41H57.9c-19.9,0-36.1,16.2-36.1,36.1s16.2,36.1,36.1,36.1h22.8c3.9,0.3,7.8-1.1,10.5-3.9
							c2.8-2.8,4.1-6.7,3.7-10.6V78.2l15.2,26.1c9.2,15.6,26.6,9.2,26.6-4.3V78.3l15.2,26.1c9.2,15.6,26.6,9.2,26.6-4.3V41H169.8z"
							/>
						<path id="Shape_2_" class="st1" d="M42.2,161.8c-2.4-1.4-4.3-3.5-5.4-5.9c-1.3-2.9-2-6-1.9-9.2c-0.1-3.2,0.6-6.3,2-9.2
							c1.2-2.5,3.1-4.5,5.4-5.9c2.5-1.4,5.3-2.1,8.2-2.1c2.5,0,5,0.5,7.3,1.5c4.2,1.7,7,5.7,7.2,10.2h-7.7c-0.3-1.5-1-2.9-2.2-3.9
							c-1.3-1.1-3-1.6-4.7-1.6c-1.5,0-3,0.4-4.2,1.3c-1.3,0.9-2.2,2.2-2.7,3.7c-1.2,3.8-1.2,7.9,0,11.8c0.5,1.5,1.4,2.8,2.7,3.7
							c1.2,0.8,2.6,1.3,4.1,1.3c1.8,0.1,3.5-0.4,5-1.5c1.3-1.2,2.1-2.8,2.2-4.6H65c0,2.3-0.8,4.6-2.1,6.5c-1.4,1.9-3.3,3.5-5.4,4.4
							c-2.3,1.1-4.8,1.6-7.4,1.5C47.4,163.9,44.6,163.2,42.2,161.8L42.2,161.8z"/>
						<polygon id="Shape_3_" class="st1" points="68.6,130.4 76.2,130.4 76.2,143 88.8,143 88.8,130.4 96.5,130.4 96.5,163.1 
							88.8,163.1 88.8,149.3 76.2,149.3 76.2,163.1 68.6,163.1 						"/>
						<polygon id="Shape_4_" class="st1" points="101.7,130.4 109.4,130.4 109.4,163.1 101.7,163.1 						"/>
						<polygon id="Shape_5_" class="st1" points="114.7,130.4 122.4,130.4 122.4,156.9 137.6,156.9 137.6,163.1 114.8,163.1 						
							"/>
						<polygon id="Shape_6_" class="st1" points="141.3,130.4 164.9,130.4 164.9,136.4 148.6,136.4 148.6,143.1 163.5,143.1 
							163.5,149.2 148.9,149.2 148.9,157.1 165.3,157.1 165.3,163.1 141.3,163.1 						"/>
					</g>
				</g>
			</g>
		</g>
	</g>
</g>
</svg>
