<?xml version="1.0" encoding="UTF-8"?>
<!DOCTYPE svg PUBLIC "-//W3C//DTD SVG 1.1//EN" "http://www.w3.org/Graphics/SVG/1.1/DTD/svg11.dtd">
<!-- Creator: CorelDRAW X7 -->
<svg xmlns="http://www.w3.org/2000/svg" xml:space="preserve" width="537.08mm" height="256.38mm" version="1.1" style="shape-rendering:geometricPrecision; text-rendering:geometricPrecision; image-rendering:optimizeQuality; fill-rule:evenodd; clip-rule:evenodd"
viewBox="0 0 53708 25638"
 xmlns:xlink="http://www.w3.org/1999/xlink">
 <defs>
  <style type="text/css">
   <![CDATA[
    .fil150 {fill:#016BFD}
    .fil151 {fill:#016BFD}
    .fil148 {fill:#016CFC}
    .fil149 {fill:#016CFD}
    .fil146 {fill:#016DFB}
    .fil147 {fill:#016DFC}
    .fil145 {fill:#016EFB}
    .fil143 {fill:#016FFA}
    .fil144 {fill:#016FFB}
    .fil141 {fill:#0170F9}
    .fil142 {fill:#0170FA}
    .fil140 {fill:#0171F9}
    .fil138 {fill:#0172F8}
    .fil139 {fill:#0172F9}
    .fil136 {fill:#0173F7}
    .fil137 {fill:#0173F8}
    .fil135 {fill:#0174F7}
    .fil134 {fill:#0175F6}
    .fil132 {fill:#0176F5}
    .fil133 {fill:#0176F6}
    .fil131 {fill:#0177F5}
    .fil130 {fill:#0178F4}
    .fil128 {fill:#0179F3}
    .fil129 {fill:#0179F4}
    .fil127 {fill:#017AF3}
    .fil126 {fill:#017BF2}
    .fil124 {fill:#017CF1}
    .fil125 {fill:#017CF2}
    .fil123 {fill:#017DF1}
    .fil122 {fill:#027DF1}
    .fil121 {fill:#027EF0}
    .fil119 {fill:#027FEF}
    .fil120 {fill:#027FF0}
    .fil118 {fill:#0280EF}
    .fil117 {fill:#0281EE}
    .fil115 {fill:#0282ED}
    .fil116 {fill:#0282EE}
    .fil114 {fill:#0283ED}
    .fil113 {fill:#0284EC}
    .fil111 {fill:#0285EB}
    .fil112 {fill:#0285EC}
    .fil110 {fill:#0286EB}
    .fil109 {fill:#0287EA}
    .fil107 {fill:#0288E9}
    .fil108 {fill:#0288EA}
    .fil106 {fill:#0289E9}
    .fil105 {fill:#028AE8}
    .fil104 {fill:#028BE7}
    .fil103 {fill:#028CE7}
    .fil102 {fill:#028DE6}
    .fil101 {fill:#028EE5}
    .fil100 {fill:#028FE5}
    .fil99 {fill:#0290E4}
    .fil98 {fill:#0291E3}
    .fil97 {fill:#0292E3}
    .fil96 {fill:#0293E2}
    .fil95 {fill:#0294E1}
    .fil94 {fill:#0295E1}
    .fil93 {fill:#0296E0}
    .fil92 {fill:#0297DF}
    .fil91 {fill:#0298DF}
    .fil90 {fill:#0299DE}
    .fil89 {fill:#029ADD}
    .fil88 {fill:#029CDC}
    .fil87 {fill:#029DDB}
    .fil86 {fill:#029EDA}
    .fil85 {fill:#02A0D9}
    .fil84 {fill:#02A1D8}
    .fil83 {fill:#03A3D7}
    .fil82 {fill:#03A4D6}
    .fil81 {fill:#03A6D5}
    .fil80 {fill:#03A8D4}
    .fil79 {fill:#03A9D3}
    .fil78 {fill:#03ABD1}
    .fil77 {fill:#03ADD0}
    .fil76 {fill:#03AFCF}
    .fil75 {fill:#03B2CD}
    .fil74 {fill:#03B4CC}
    .fil73 {fill:#03B6CA}
    .fil72 {fill:#03B9C8}
    .fil71 {fill:#03BBC7}
    .fil70 {fill:#03BDC6}
    .fil69 {fill:#03BFC4}
    .fil68 {fill:#03C1C3}
    .fil67 {fill:#03C2C2}
    .fil66 {fill:#03C4C1}
    .fil65 {fill:#03C6BF}
    .fil64 {fill:#04C7BE}
    .fil63 {fill:#04C9BD}
    .fil62 {fill:#04CABC}
    .fil61 {fill:#04CCBB}
    .fil60 {fill:#04CDBA}
    .fil59 {fill:#04CFB9}
    .fil58 {fill:#04D0B9}
    .fil57 {fill:#04D1B8}
    .fil56 {fill:#04D2B7}
    .fil55 {fill:#04D4B6}
    .fil54 {fill:#04D5B5}
    .fil53 {fill:#04D6B5}
    .fil52 {fill:#04D7B4}
    .fil51 {fill:#04D8B3}
    .fil50 {fill:#04D9B2}
    .fil49 {fill:#04DAB2}
    .fil48 {fill:#04DBB1}
    .fil47 {fill:#04DCB1}
    .fil46 {fill:#04DDB0}
    .fil45 {fill:#04DEAF}
    .fil44 {fill:#04DFAE}
    .fil43 {fill:#04E0AE}
    .fil42 {fill:#04E1AD}
    .fil40 {fill:#04E2AC}
    .fil41 {fill:#04E2AD}
    .fil39 {fill:#04E3AC}
    .fil38 {fill:#04E4AB}
    .fil37 {fill:#04E5AA}
    .fil35 {fill:#04E6A9}
    .fil36 {fill:#04E6AA}
    .fil34 {fill:#04E7A9}
    .fil33 {fill:#04E8A8}
    .fil31 {fill:#04E9A7}
    .fil32 {fill:#04E9A8}
    .fil30 {fill:#04EAA7}
    .fil29 {fill:#04EBA6}
    .fil28 {fill:#05EBA6}
    .fil26 {fill:#05ECA5}
    .fil27 {fill:#05ECA6}
    .fil25 {fill:#05EDA5}
    .fil24 {fill:#05EEA4}
    .fil22 {fill:#05EFA3}
    .fil23 {fill:#05EFA4}
    .fil21 {fill:#05F0A3}
    .fil20 {fill:#05F1A2}
    .fil18 {fill:#05F2A1}
    .fil19 {fill:#05F2A2}
    .fil16 {fill:#05F3A0}
    .fil17 {fill:#05F3A1}
    .fil15 {fill:#05F4A0}
    .fil13 {fill:#05F59F}
    .fil14 {fill:#05F5A0}
    .fil12 {fill:#05F69F}
    .fil11 {fill:#05F79E}
    .fil9 {fill:#05F89D}
    .fil10 {fill:#05F89E}
    .fil7 {fill:#05F99C}
    .fil8 {fill:#05F99D}
    .fil6 {fill:#05FA9C}
    .fil4 {fill:#05FB9B}
    .fil5 {fill:#05FB9C}
    .fil2 {fill:#05FC9A}
    .fil3 {fill:#05FC9B}
    .fil1 {fill:#05FD9A}
    .fil0 {fill:#05FD9A}
   ]]>
  </style>
     <clipPath id="id0">
      <path d="M20100 16431c-1625,0 -2338,-1135 -2338,-2089 0,-946 713,-2081 2338,-2081 826,0 1393,438 1393,438l688 -1375c0,0 -791,-654 -2330,-654 -2012,0 -3843,1651 -3843,3689 0,2029 1840,3662 3843,3662 1539,0 2330,-653 2330,-653l-688 -1376c0,0 -567,439 -1393,439zm-14596 -8753l3361 3361c1183,1183 3731,1293 4915,111l11149 -11150 747 746 -10943 10943c-1183,1183 -1245,3972 -63,5155l8048 8048 -747 746 -8006 -8006c-1183,-1183 -3861,-1313 -5044,-131l-4774 4774 -747 -746 4842 -4842c1183,-1183 1275,-3502 93,-4685l-3578 -3578 747 -746zm-1411 8753c-1625,0 -2339,-1135 -2339,-2089 0,-946 714,-2081 2339,-2081 825,0 1392,438 1392,438l688 -1375c0,0 -791,-654 -2330,-654 -2012,0 -3843,1651 -3843,3689 0,2029 1840,3662 3843,3662 1539,0 2330,-653 2330,-653l-688 -1376c0,0 -567,439 -1392,439z"/>
     </clipPath>
 </defs>
 <g id="Capa_x0020_1">
  <metadata id="CorelCorpID_0Corel-Layer"/>
  <g id="_403091864">
   <g>
    <g style="clip-path:url(#id0)">
     <g>
      <polygon class="fil0" points="0,0 50,0 50,25638 0,25638 "/>
     </g>
     <g>
      <polygon id="1" class="fil1" points="0,0 150,0 150,25638 0,25638 "/>
     </g>
     <g>
      <polygon id="2" class="fil1" points="100,0 251,0 251,25638 100,25638 "/>
     </g>
     <g>
      <polygon id="3" class="fil2" points="201,0 351,0 351,25638 201,25638 "/>
     </g>
     <g>
      <polygon id="4" class="fil3" points="301,0 451,0 451,25638 301,25638 "/>
     </g>
     <g>
      <polygon id="5" class="fil3" points="401,0 552,0 552,25638 401,25638 "/>
     </g>
     <g>
      <polygon id="6" class="fil3" points="501,0 652,0 652,25638 501,25638 "/>
     </g>
     <g>
      <polygon id="7" class="fil4" points="602,0 752,0 752,25638 602,25638 "/>
     </g>
     <g>
      <polygon id="8" class="fil4" points="702,0 853,0 853,25638 702,25638 "/>
     </g>
     <g>
      <polygon id="9" class="fil4" points="802,0 953,0 953,25638 802,25638 "/>
     </g>
     <g>
      <polygon id="10" class="fil5" points="903,0 1053,0 1053,25638 903,25638 "/>
     </g>
     <g>
      <polygon id="11" class="fil6" points="1003,0 1153,0 1153,25638 1003,25638 "/>
     </g>
     <g>
      <polygon id="12" class="fil6" points="1103,0 1254,0 1254,25638 1103,25638 "/>
     </g>
     <g>
      <polygon id="13" class="fil6" points="1204,0 1354,0 1354,25638 1204,25638 "/>
     </g>
     <g>
      <polygon id="14" class="fil6" points="1304,0 1454,0 1454,25638 1304,25638 "/>
     </g>
     <g>
      <polygon id="15" class="fil7" points="1404,0 1555,0 1555,25638 1404,25638 "/>
     </g>
     <g>
      <polygon id="16" class="fil8" points="1504,0 1655,0 1655,25638 1504,25638 "/>
     </g>
     <g>
      <polygon id="17" class="fil8" points="1605,0 1755,0 1755,25638 1605,25638 "/>
     </g>
     <g>
      <polygon id="18" class="fil8" points="1705,0 1855,0 1855,25638 1705,25638 "/>
     </g>
     <g>
      <polygon id="19" class="fil9" points="1805,0 1956,0 1956,25638 1805,25638 "/>
     </g>
     <g>
      <polygon id="20" class="fil9" points="1906,0 2056,0 2056,25638 1906,25638 "/>
     </g>
     <g>
      <polygon id="21" class="fil10" points="2006,0 2156,0 2156,25638 2006,25638 "/>
     </g>
     <g>
      <polygon id="22" class="fil11" points="2106,0 2257,0 2257,25638 2106,25638 "/>
     </g>
     <g>
      <polygon id="23" class="fil11" points="2207,0 2357,0 2357,25638 2207,25638 "/>
     </g>
     <g>
      <polygon id="24" class="fil11" points="2307,0 2457,0 2457,25638 2307,25638 "/>
     </g>
     <g>
      <polygon id="25" class="fil11" points="2407,0 2558,0 2558,25638 2407,25638 "/>
     </g>
     <g>
      <polygon id="26" class="fil12" points="2507,0 2658,0 2658,25638 2507,25638 "/>
     </g>
     <g>
      <polygon id="27" class="fil12" points="2608,0 2758,0 2758,25638 2608,25638 "/>
     </g>
     <g>
      <polygon id="28" class="fil12" points="2708,0 2858,0 2858,25638 2708,25638 "/>
     </g>
     <g>
      <polygon id="29" class="fil13" points="2808,0 2959,0 2959,25638 2808,25638 "/>
     </g>
     <g>
      <polygon id="30" class="fil14" points="2909,0 3059,0 3059,25638 2909,25638 "/>
     </g>
     <g>
      <polygon id="31" class="fil14" points="3009,0 3159,0 3159,25638 3009,25638 "/>
     </g>
     <g>
      <polygon id="32" class="fil15" points="3109,0 3260,0 3260,25638 3109,25638 "/>
     </g>
     <g>
      <polygon id="33" class="fil15" points="3209,0 3360,0 3360,25638 3209,25638 "/>
     </g>
     <g>
      <polygon id="34" class="fil16" points="3310,0 3460,0 3460,25638 3310,25638 "/>
     </g>
     <g>
      <polygon id="35" class="fil17" points="3410,0 3561,0 3561,25638 3410,25638 "/>
     </g>
     <g>
      <polygon id="36" class="fil17" points="3510,0 3661,0 3661,25638 3510,25638 "/>
     </g>
     <g>
      <polygon id="37" class="fil18" points="3611,0 3761,0 3761,25638 3611,25638 "/>
     </g>
     <g>
      <polygon id="38" class="fil18" points="3711,0 3861,0 3861,25638 3711,25638 "/>
     </g>
     <g>
      <polygon id="39" class="fil19" points="3811,0 3962,0 3962,25638 3811,25638 "/>
     </g>
     <g>
      <polygon id="40" class="fil20" points="3912,0 4062,0 4062,25638 3912,25638 "/>
     </g>
     <g>
      <polygon id="41" class="fil20" points="4012,0 4162,0 4162,25638 4012,25638 "/>
     </g>
     <g>
      <polygon id="42" class="fil21" points="4112,0 4263,0 4263,25638 4112,25638 "/>
     </g>
     <g>
      <polygon id="43" class="fil21" points="4212,0 4363,0 4363,25638 4212,25638 "/>
     </g>
     <g>
      <polygon id="44" class="fil22" points="4313,0 4463,0 4463,25638 4313,25638 "/>
     </g>
     <g>
      <polygon id="45" class="fil22" points="4413,0 4563,0 4563,25638 4413,25638 "/>
     </g>
     <g>
      <polygon id="46" class="fil23" points="4513,0 4664,0 4664,25638 4513,25638 "/>
     </g>
     <g>
      <polygon id="47" class="fil24" points="4614,0 4764,0 4764,25638 4614,25638 "/>
     </g>
     <g>
      <polygon id="48" class="fil24" points="4714,0 4864,0 4864,25638 4714,25638 "/>
     </g>
     <g>
      <polygon id="49" class="fil25" points="4814,0 4965,0 4965,25638 4814,25638 "/>
     </g>
     <g>
      <polygon id="50" class="fil25" points="4915,0 5065,0 5065,25638 4915,25638 "/>
     </g>
     <g>
      <polygon id="51" class="fil26" points="5015,0 5165,0 5165,25638 5015,25638 "/>
     </g>
     <g>
      <polygon id="52" class="fil27" points="5115,0 5266,0 5266,25638 5115,25638 "/>
     </g>
     <g>
      <polygon id="53" class="fil28" points="5215,0 5366,0 5366,25638 5215,25638 "/>
     </g>
     <g>
      <polygon id="54" class="fil29" points="5316,0 5466,0 5466,25638 5316,25638 "/>
     </g>
     <g>
      <polygon id="55" class="fil30" points="5416,0 5566,0 5566,25638 5416,25638 "/>
     </g>
     <g>
      <polygon id="56" class="fil31" points="5516,0 5667,0 5667,25638 5516,25638 "/>
     </g>
     <g>
      <polygon id="57" class="fil32" points="5617,0 5767,0 5767,25638 5617,25638 "/>
     </g>
     <g>
      <polygon id="58" class="fil33" points="5717,0 5867,0 5867,25638 5717,25638 "/>
     </g>
     <g>
      <polygon id="59" class="fil33" points="5817,0 5968,0 5968,25638 5817,25638 "/>
     </g>
     <g>
      <polygon id="60" class="fil34" points="5917,0 6068,0 6068,25638 5917,25638 "/>
     </g>
     <g>
      <polygon id="61" class="fil35" points="6018,0 6168,0 6168,25638 6018,25638 "/>
     </g>
     <g>
      <polygon id="62" class="fil36" points="6118,0 6269,0 6269,25638 6118,25638 "/>
     </g>
     <g>
      <polygon id="63" class="fil37" points="6218,0 6369,0 6369,25638 6218,25638 "/>
     </g>
     <g>
      <polygon id="64" class="fil38" points="6319,0 6469,0 6469,25638 6319,25638 "/>
     </g>
     <g>
      <polygon id="65" class="fil38" points="6419,0 6569,0 6569,25638 6419,25638 "/>
     </g>
     <g>
      <polygon id="66" class="fil39" points="6519,0 6670,0 6670,25638 6519,25638 "/>
     </g>
     <g>
      <polygon id="67" class="fil40" points="6620,0 6770,0 6770,25638 6620,25638 "/>
     </g>
     <g>
      <polygon id="68" class="fil41" points="6720,0 6870,0 6870,25638 6720,25638 "/>
     </g>
     <g>
      <polygon id="69" class="fil42" points="6820,0 6971,0 6971,25638 6820,25638 "/>
     </g>
     <g>
      <polygon id="70" class="fil43" points="6920,0 7071,0 7071,25638 6920,25638 "/>
     </g>
     <g>
      <polygon id="71" class="fil44" points="7021,0 7171,0 7171,25638 7021,25638 "/>
     </g>
     <g>
      <polygon id="72" class="fil45" points="7121,0 7271,0 7271,25638 7121,25638 "/>
     </g>
     <g>
      <polygon id="73" class="fil45" points="7221,0 7372,0 7372,25638 7221,25638 "/>
     </g>
     <g>
      <polygon id="74" class="fil46" points="7322,0 7472,0 7472,25638 7322,25638 "/>
     </g>
     <g>
      <polygon id="75" class="fil47" points="7422,0 7572,0 7572,25638 7422,25638 "/>
     </g>
     <g>
      <polygon id="76" class="fil48" points="7522,0 7673,0 7673,25638 7522,25638 "/>
     </g>
     <g>
      <polygon id="77" class="fil49" points="7623,0 7773,0 7773,25638 7623,25638 "/>
     </g>
     <g>
      <polygon id="78" class="fil50" points="7723,0 7873,0 7873,25638 7723,25638 "/>
     </g>
     <g>
      <polygon id="79" class="fil51" points="7823,0 7974,0 7974,25638 7823,25638 "/>
     </g>
     <g>
      <polygon id="80" class="fil52" points="7923,0 8074,0 8074,25638 7923,25638 "/>
     </g>
     <g>
      <polygon id="81" class="fil53" points="8024,0 8174,0 8174,25638 8024,25638 "/>
     </g>
     <g>
      <polygon id="82" class="fil54" points="8124,0 8274,0 8274,25638 8124,25638 "/>
     </g>
     <g>
      <polygon id="83" class="fil55" points="8224,0 8375,0 8375,25638 8224,25638 "/>
     </g>
     <g>
      <polygon id="84" class="fil56" points="8325,0 8475,0 8475,25638 8325,25638 "/>
     </g>
     <g>
      <polygon id="85" class="fil57" points="8425,0 8575,0 8575,25638 8425,25638 "/>
     </g>
     <g>
      <polygon id="86" class="fil58" points="8525,0 8676,0 8676,25638 8525,25638 "/>
     </g>
     <g>
      <polygon id="87" class="fil59" points="8625,0 8776,0 8776,25638 8625,25638 "/>
     </g>
     <g>
      <polygon id="88" class="fil60" points="8726,0 8876,0 8876,25638 8726,25638 "/>
     </g>
     <g>
      <polygon id="89" class="fil61" points="8826,0 8977,0 8977,25638 8826,25638 "/>
     </g>
     <g>
      <polygon id="90" class="fil62" points="8926,0 9077,0 9077,25638 8926,25638 "/>
     </g>
     <g>
      <polygon id="91" class="fil63" points="9027,0 9177,0 9177,25638 9027,25638 "/>
     </g>
     <g>
      <polygon id="92" class="fil64" points="9127,0 9277,0 9277,25638 9127,25638 "/>
     </g>
     <g>
      <polygon id="93" class="fil65" points="9227,0 9378,0 9378,25638 9227,25638 "/>
     </g>
     <g>
      <polygon id="94" class="fil66" points="9328,0 9478,0 9478,25638 9328,25638 "/>
     </g>
     <g>
      <polygon id="95" class="fil67" points="9428,0 9578,0 9578,25638 9428,25638 "/>
     </g>
     <g>
      <polygon id="96" class="fil68" points="9528,0 9679,0 9679,25638 9528,25638 "/>
     </g>
     <g>
      <polygon id="97" class="fil69" points="9628,0 9779,0 9779,25638 9628,25638 "/>
     </g>
     <g>
      <polygon id="98" class="fil70" points="9729,0 9879,0 9879,25638 9729,25638 "/>
     </g>
     <g>
      <polygon id="99" class="fil71" points="9829,0 9979,0 9979,25638 9829,25638 "/>
     </g>
     <g>
      <polygon id="100" class="fil72" points="9929,0 10080,0 10080,25638 9929,25638 "/>
     </g>
     <g>
      <polygon id="101" class="fil73" points="10030,0 10180,0 10180,25638 10030,25638 "/>
     </g>
     <g>
      <polygon id="102" class="fil74" points="10130,0 10280,0 10280,25638 10130,25638 "/>
     </g>
     <g>
      <polygon id="103" class="fil75" points="10230,0 10381,0 10381,25638 10230,25638 "/>
     </g>
     <g>
      <polygon id="104" class="fil76" points="10331,0 10481,0 10481,25638 10331,25638 "/>
     </g>
     <g>
      <polygon id="105" class="fil77" points="10431,0 10581,0 10581,25638 10431,25638 "/>
     </g>
     <g>
      <polygon id="106" class="fil78" points="10531,0 10682,0 10682,25638 10531,25638 "/>
     </g>
     <g>
      <polygon id="107" class="fil79" points="10631,0 10782,0 10782,25638 10631,25638 "/>
     </g>
     <g>
      <polygon id="108" class="fil80" points="10732,0 10882,0 10882,25638 10732,25638 "/>
     </g>
     <g>
      <polygon id="109" class="fil81" points="10832,0 10982,0 10982,25638 10832,25638 "/>
     </g>
     <g>
      <polygon id="110" class="fil82" points="10932,0 11083,0 11083,25638 10932,25638 "/>
     </g>
     <g>
      <polygon id="111" class="fil83" points="11033,0 11183,0 11183,25638 11033,25638 "/>
     </g>
     <g>
      <polygon id="112" class="fil84" points="11133,0 11283,0 11283,25638 11133,25638 "/>
     </g>
     <g>
      <polygon id="113" class="fil85" points="11233,0 11384,0 11384,25638 11233,25638 "/>
     </g>
     <g>
      <polygon id="114" class="fil86" points="11333,0 11484,0 11484,25638 11333,25638 "/>
     </g>
     <g>
      <polygon id="115" class="fil87" points="11434,0 11584,0 11584,25638 11434,25638 "/>
     </g>
     <g>
      <polygon id="116" class="fil88" points="11534,0 11685,0 11685,25638 11534,25638 "/>
     </g>
     <g>
      <polygon id="117" class="fil89" points="11634,0 11785,0 11785,25638 11634,25638 "/>
     </g>
     <g>
      <polygon id="118" class="fil90" points="11735,0 11885,0 11885,25638 11735,25638 "/>
     </g>
     <g>
      <polygon id="119" class="fil91" points="11835,0 11985,0 11985,25638 11835,25638 "/>
     </g>
     <g>
      <polygon id="120" class="fil92" points="11935,0 12086,0 12086,25638 11935,25638 "/>
     </g>
     <g>
      <polygon id="121" class="fil93" points="12036,0 12186,0 12186,25638 12036,25638 "/>
     </g>
     <g>
      <polygon id="122" class="fil94" points="12136,0 12286,0 12286,25638 12136,25638 "/>
     </g>
     <g>
      <polygon id="123" class="fil95" points="12236,0 12387,0 12387,25638 12236,25638 "/>
     </g>
     <g>
      <polygon id="124" class="fil96" points="12336,0 12487,0 12487,25638 12336,25638 "/>
     </g>
     <g>
      <polygon id="125" class="fil97" points="12437,0 12587,0 12587,25638 12437,25638 "/>
     </g>
     <g>
      <polygon id="126" class="fil98" points="12537,0 12687,0 12687,25638 12537,25638 "/>
     </g>
     <g>
      <polygon id="127" class="fil99" points="12637,0 12788,0 12788,25638 12637,25638 "/>
     </g>
     <g>
      <polygon id="128" class="fil100" points="12738,0 12888,0 12888,25638 12738,25638 "/>
     </g>
     <g>
      <polygon id="129" class="fil101" points="12838,0 12988,0 12988,25638 12838,25638 "/>
     </g>
     <g>
      <polygon id="130" class="fil102" points="12938,0 13089,0 13089,25638 12938,25638 "/>
     </g>
     <g>
      <polygon id="131" class="fil102" points="13039,0 13189,0 13189,25638 13039,25638 "/>
     </g>
     <g>
      <polygon id="132" class="fil103" points="13139,0 13289,0 13289,25638 13139,25638 "/>
     </g>
     <g>
      <polygon id="133" class="fil104" points="13239,0 13390,0 13390,25638 13239,25638 "/>
     </g>
     <g>
      <polygon id="134" class="fil105" points="13339,0 13490,0 13490,25638 13339,25638 "/>
     </g>
     <g>
      <polygon id="135" class="fil105" points="13440,0 13590,0 13590,25638 13440,25638 "/>
     </g>
     <g>
      <polygon id="136" class="fil106" points="13540,0 13690,0 13690,25638 13540,25638 "/>
     </g>
     <g>
      <polygon id="137" class="fil107" points="13640,0 13791,0 13791,25638 13640,25638 "/>
     </g>
     <g>
      <polygon id="138" class="fil108" points="13741,0 13891,0 13891,25638 13741,25638 "/>
     </g>
     <g>
      <polygon id="139" class="fil109" points="13841,0 13991,0 13991,25638 13841,25638 "/>
     </g>
     <g>
      <polygon id="140" class="fil109" points="13941,0 14092,0 14092,25638 13941,25638 "/>
     </g>
     <g>
      <polygon id="141" class="fil110" points="14041,0 14192,0 14192,25638 14041,25638 "/>
     </g>
     <g>
      <polygon id="142" class="fil111" points="14142,0 14292,0 14292,25638 14142,25638 "/>
     </g>
     <g>
      <polygon id="143" class="fil112" points="14242,0 14393,0 14393,25638 14242,25638 "/>
     </g>
     <g>
      <polygon id="144" class="fil113" points="14342,0 14493,0 14493,25638 14342,25638 "/>
     </g>
     <g>
      <polygon id="145" class="fil113" points="14443,0 14593,0 14593,25638 14443,25638 "/>
     </g>
     <g>
      <polygon id="146" class="fil114" points="14543,0 14693,0 14693,25638 14543,25638 "/>
     </g>
     <g>
      <polygon id="147" class="fil114" points="14643,0 14794,0 14794,25638 14643,25638 "/>
     </g>
     <g>
      <polygon id="148" class="fil115" points="14744,0 14894,0 14894,25638 14744,25638 "/>
     </g>
     <g>
      <polygon id="149" class="fil116" points="14844,0 14994,0 14994,25638 14844,25638 "/>
     </g>
     <g>
      <polygon id="150" class="fil117" points="14944,0 15095,0 15095,25638 14944,25638 "/>
     </g>
     <g>
      <polygon id="151" class="fil117" points="15044,0 15195,0 15195,25638 15044,25638 "/>
     </g>
     <g>
      <polygon id="152" class="fil118" points="15145,0 15295,0 15295,25638 15145,25638 "/>
     </g>
     <g>
      <polygon id="153" class="fil118" points="15245,0 15395,0 15395,25638 15245,25638 "/>
     </g>
     <g>
      <polygon id="154" class="fil119" points="15345,0 15496,0 15496,25638 15345,25638 "/>
     </g>
     <g>
      <polygon id="155" class="fil119" points="15446,0 15596,0 15596,25638 15446,25638 "/>
     </g>
     <g>
      <polygon id="156" class="fil120" points="15546,0 15696,0 15696,25638 15546,25638 "/>
     </g>
     <g>
      <polygon id="157" class="fil121" points="15646,0 15797,0 15797,25638 15646,25638 "/>
     </g>
     <g>
      <polygon id="158" class="fil121" points="15747,0 15897,0 15897,25638 15747,25638 "/>
     </g>
     <g>
      <polygon id="159" class="fil122" points="15847,0 15997,0 15997,25638 15847,25638 "/>
     </g>
     <g>
      <polygon id="160" class="fil123" points="15947,0 16098,0 16098,25638 15947,25638 "/>
     </g>
     <g>
      <polygon id="161" class="fil123" points="16047,0 16198,0 16198,25638 16047,25638 "/>
     </g>
     <g>
      <polygon id="162" class="fil124" points="16148,0 16298,0 16298,25638 16148,25638 "/>
     </g>
     <g>
      <polygon id="163" class="fil125" points="16248,0 16398,0 16398,25638 16248,25638 "/>
     </g>
     <g>
      <polygon id="164" class="fil125" points="16348,0 16499,0 16499,25638 16348,25638 "/>
     </g>
     <g>
      <polygon id="165" class="fil126" points="16449,0 16599,0 16599,25638 16449,25638 "/>
     </g>
     <g>
      <polygon id="166" class="fil126" points="16549,0 16699,0 16699,25638 16549,25638 "/>
     </g>
     <g>
      <polygon id="167" class="fil126" points="16649,0 16800,0 16800,25638 16649,25638 "/>
     </g>
     <g>
      <polygon id="168" class="fil127" points="16749,0 16900,0 16900,25638 16749,25638 "/>
     </g>
     <g>
      <polygon id="169" class="fil127" points="16850,0 17000,0 17000,25638 16850,25638 "/>
     </g>
     <g>
      <polygon id="170" class="fil127" points="16950,0 17100,0 17100,25638 16950,25638 "/>
     </g>
     <g>
      <polygon id="171" class="fil128" points="17050,0 17201,0 17201,25638 17050,25638 "/>
     </g>
     <g>
      <polygon id="172" class="fil129" points="17151,0 17301,0 17301,25638 17151,25638 "/>
     </g>
     <g>
      <polygon id="173" class="fil129" points="17251,0 17401,0 17401,25638 17251,25638 "/>
     </g>
     <g>
      <polygon id="174" class="fil130" points="17351,0 17502,0 17502,25638 17351,25638 "/>
     </g>
     <g>
      <polygon id="175" class="fil130" points="17452,0 17602,0 17602,25638 17452,25638 "/>
     </g>
     <g>
      <polygon id="176" class="fil130" points="17552,0 17702,0 17702,25638 17552,25638 "/>
     </g>
     <g>
      <polygon id="177" class="fil130" points="17652,0 17803,0 17803,25638 17652,25638 "/>
     </g>
     <g>
      <polygon id="178" class="fil131" points="17752,0 17903,0 17903,25638 17752,25638 "/>
     </g>
     <g>
      <polygon id="179" class="fil131" points="17853,0 18003,0 18003,25638 17853,25638 "/>
     </g>
     <g>
      <polygon id="180" class="fil131" points="17953,0 18103,0 18103,25638 17953,25638 "/>
     </g>
     <g>
      <polygon id="181" class="fil131" points="18053,0 18204,0 18204,25638 18053,25638 "/>
     </g>
     <g>
      <polygon id="182" class="fil132" points="18154,0 18304,0 18304,25638 18154,25638 "/>
     </g>
     <g>
      <polygon id="183" class="fil133" points="18254,0 18404,0 18404,25638 18254,25638 "/>
     </g>
     <g>
      <polygon id="184" class="fil133" points="18354,0 18505,0 18505,25638 18354,25638 "/>
     </g>
     <g>
      <polygon id="185" class="fil133" points="18454,0 18605,0 18605,25638 18454,25638 "/>
     </g>
     <g>
      <polygon id="186" class="fil134" points="18555,0 18705,0 18705,25638 18555,25638 "/>
     </g>
     <g>
      <polygon id="187" class="fil134" points="18655,0 18806,0 18806,25638 18655,25638 "/>
     </g>
     <g>
      <polygon id="188" class="fil134" points="18755,0 18906,0 18906,25638 18755,25638 "/>
     </g>
     <g>
      <polygon id="189" class="fil134" points="18856,0 19006,0 19006,25638 18856,25638 "/>
     </g>
     <g>
      <polygon id="190" class="fil135" points="18956,0 19106,0 19106,25638 18956,25638 "/>
     </g>
     <g>
      <polygon id="191" class="fil135" points="19056,0 19207,0 19207,25638 19056,25638 "/>
     </g>
     <g>
      <polygon id="192" class="fil135" points="19157,0 19307,0 19307,25638 19157,25638 "/>
     </g>
     <g>
      <polygon id="193" class="fil135" points="19257,0 19407,0 19407,25638 19257,25638 "/>
     </g>
     <g>
      <polygon id="194" class="fil135" points="19357,0 19508,0 19508,25638 19357,25638 "/>
     </g>
     <g>
      <polygon id="195" class="fil136" points="19457,0 19608,0 19608,25638 19457,25638 "/>
     </g>
     <g>
      <polygon id="196" class="fil136" points="19558,0 19708,0 19708,25638 19558,25638 "/>
     </g>
     <g>
      <polygon id="197" class="fil137" points="19658,0 19808,0 19808,25638 19658,25638 "/>
     </g>
     <g>
      <polygon id="198" class="fil137" points="19758,0 19909,0 19909,25638 19758,25638 "/>
     </g>
     <g>
      <polygon id="199" class="fil137" points="19859,0 20009,0 20009,25638 19859,25638 "/>
     </g>
     <g>
      <polygon id="200" class="fil138" points="19959,0 20109,0 20109,25638 19959,25638 "/>
     </g>
     <g>
      <polygon id="201" class="fil138" points="20059,0 20210,0 20210,25638 20059,25638 "/>
     </g>
     <g>
      <polygon id="202" class="fil138" points="20160,0 20310,0 20310,25638 20160,25638 "/>
     </g>
     <g>
      <polygon id="203" class="fil138" points="20260,0 20410,0 20410,25638 20260,25638 "/>
     </g>
     <g>
      <polygon id="204" class="fil139" points="20360,0 20511,0 20511,25638 20360,25638 "/>
     </g>
     <g>
      <polygon id="205" class="fil140" points="20460,0 20611,0 20611,25638 20460,25638 "/>
     </g>
     <g>
      <polygon id="206" class="fil140" points="20561,0 20711,0 20711,25638 20561,25638 "/>
     </g>
     <g>
      <polygon id="207" class="fil140" points="20661,0 20811,0 20811,25638 20661,25638 "/>
     </g>
     <g>
      <polygon id="208" class="fil140" points="20761,0 20912,0 20912,25638 20761,25638 "/>
     </g>
     <g>
      <polygon id="209" class="fil140" points="20862,0 21012,0 21012,25638 20862,25638 "/>
     </g>
     <g>
      <polygon id="210" class="fil140" points="20962,0 21112,0 21112,25638 20962,25638 "/>
     </g>
     <g>
      <polygon id="211" class="fil141" points="21062,0 21213,0 21213,25638 21062,25638 "/>
     </g>
     <g>
      <polygon id="212" class="fil141" points="21162,0 21313,0 21313,25638 21162,25638 "/>
     </g>
     <g>
      <polygon id="213" class="fil142" points="21263,0 21413,0 21413,25638 21263,25638 "/>
     </g>
     <g>
      <polygon id="214" class="fil142" points="21363,0 21514,0 21514,25638 21363,25638 "/>
     </g>
     <g>
      <polygon id="215" class="fil142" points="21463,0 21614,0 21614,25638 21463,25638 "/>
     </g>
     <g>
      <polygon id="216" class="fil142" points="21564,0 21714,0 21714,25638 21564,25638 "/>
     </g>
     <g>
      <polygon id="217" class="fil142" points="21664,0 21814,0 21814,25638 21664,25638 "/>
     </g>
     <g>
      <polygon id="218" class="fil143" points="21764,0 21915,0 21915,25638 21764,25638 "/>
     </g>
     <g>
      <polygon id="219" class="fil143" points="21865,0 22015,0 22015,25638 21865,25638 "/>
     </g>
     <g>
      <polygon id="220" class="fil143" points="21965,0 22115,0 22115,25638 21965,25638 "/>
     </g>
     <g>
      <polygon id="221" class="fil143" points="22065,0 22216,0 22216,25638 22065,25638 "/>
     </g>
     <g>
      <polygon id="222" class="fil143" points="22165,0 22316,0 22316,25638 22165,25638 "/>
     </g>
     <g>
      <polygon id="223" class="fil144" points="22266,0 22416,0 22416,25638 22266,25638 "/>
     </g>
     <g>
      <polygon id="224" class="fil144" points="22366,0 22516,0 22516,25638 22366,25638 "/>
     </g>
     <g>
      <polygon id="225" class="fil145" points="22466,0 22617,0 22617,25638 22466,25638 "/>
     </g>
     <g>
      <polygon id="226" class="fil145" points="22567,0 22717,0 22717,25638 22567,25638 "/>
     </g>
     <g>
      <polygon id="227" class="fil145" points="22667,0 22817,0 22817,25638 22667,25638 "/>
     </g>
     <g>
      <polygon id="228" class="fil145" points="22767,0 22918,0 22918,25638 22767,25638 "/>
     </g>
     <g>
      <polygon id="229" class="fil145" points="22868,0 23018,0 23018,25638 22868,25638 "/>
     </g>
     <g>
      <polygon id="230" class="fil145" points="22968,0 23118,0 23118,25638 22968,25638 "/>
     </g>
     <g>
      <polygon id="231" class="fil145" points="23068,0 23219,0 23219,25638 23068,25638 "/>
     </g>
     <g>
      <polygon id="232" class="fil146" points="23168,0 23319,0 23319,25638 23168,25638 "/>
     </g>
     <g>
      <polygon id="233" class="fil146" points="23269,0 23419,0 23419,25638 23269,25638 "/>
     </g>
     <g>
      <polygon id="234" class="fil146" points="23369,0 23519,0 23519,25638 23369,25638 "/>
     </g>
     <g>
      <polygon id="235" class="fil147" points="23469,0 23620,0 23620,25638 23469,25638 "/>
     </g>
     <g>
      <polygon id="236" class="fil147" points="23570,0 23720,0 23720,25638 23570,25638 "/>
     </g>
     <g>
      <polygon id="237" class="fil147" points="23670,0 23820,0 23820,25638 23670,25638 "/>
     </g>
     <g>
      <polygon id="238" class="fil147" points="23770,0 23921,0 23921,25638 23770,25638 "/>
     </g>
     <g>
      <polygon id="239" class="fil147" points="23870,0 24021,0 24021,25638 23870,25638 "/>
     </g>
     <g>
      <polygon id="240" class="fil147" points="23971,0 24121,0 24121,25638 23971,25638 "/>
     </g>
     <g>
      <polygon id="241" class="fil148" points="24071,0 24222,0 24222,25638 24071,25638 "/>
     </g>
     <g>
      <polygon id="242" class="fil148" points="24171,0 24322,0 24322,25638 24171,25638 "/>
     </g>
     <g>
      <polygon id="243" class="fil148" points="24272,0 24422,0 24422,25638 24272,25638 "/>
     </g>
     <g>
      <polygon id="244" class="fil148" points="24372,0 24522,0 24522,25638 24372,25638 "/>
     </g>
     <g>
      <polygon id="245" class="fil148" points="24472,0 24623,0 24623,25638 24472,25638 "/>
     </g>
     <g>
      <polygon id="246" class="fil148" points="24573,0 24723,0 24723,25638 24573,25638 "/>
     </g>
     <g>
      <polygon id="247" class="fil148" points="24673,0 24823,0 24823,25638 24673,25638 "/>
     </g>
     <g>
      <polygon id="248" class="fil149" points="24773,0 24924,0 24924,25638 24773,25638 "/>
     </g>
     <g>
      <polygon id="249" class="fil149" points="24873,0 25024,0 25024,25638 24873,25638 "/>
     </g>
     <g>
      <polygon id="250" class="fil150" points="24974,0 25124,0 25124,25638 24974,25638 "/>
     </g>
     <g>
      <polygon id="251" class="fil150" points="25074,0 25224,0 25224,25638 25074,25638 "/>
     </g>
     <g>
      <polygon id="252" class="fil150" points="25174,0 25325,0 25325,25638 25174,25638 "/>
     </g>
     <g>
      <polygon id="253" class="fil150" points="25275,0 25425,0 25425,25638 25275,25638 "/>
     </g>
     <g>
      <polygon id="254" class="fil150" points="25375,0 25525,0 25525,25638 25375,25638 "/>
     </g>
     <g>
      <polygon id="255" class="fil151" points="25475,0 25676,0 25676,25638 25475,25638 "/>
     </g>
    </g>
   </g>
   <path class="fil151" d="M29247 9793c414,0 671,187 671,187l469 -944c0,0 -453,-375 -1343,-375 -1163,0 -2217,953 -2217,2131 0,1171 1062,2107 2217,2107 890,0 1343,-359 1343,-359l-469 -960c0,0 -257,188 -671,188 -523,0 -952,-437 -952,-991 0,-547 429,-984 952,-984zm2841 991c0,-554 414,-944 937,-944 515,0 928,390 928,944 0,547 -390,937 -928,937 -562,0 -937,-390 -937,-937zm-1467 0c0,1171 819,2115 1990,2115 546,0 1015,-241 1311,-569l16 0 0 452 1366 0 0 -4004 -1382 0 0 383c-328,-320 -772,-500 -1311,-500 -1171,0 -1990,953 -1990,2123zm5619 1998l1382 0 0 -2263c0,-398 406,-781 819,-781 445,0 718,383 718,781l0 2263 1382 0 0 -2638c0,-1116 -1023,-1483 -1756,-1483 -437,0 -835,227 -1148,539l-15 0 0 -422 -1382 0 0 4004zm6338 -1998c0,-554 414,-944 937,-944 515,0 928,390 928,944 0,547 -390,937 -928,937 -562,0 -937,-390 -937,-937zm-1467 0c0,1171 819,2115 1990,2115 546,0 1015,-241 1311,-569l16 0 0 452 1366 0 0 -4004 -1382 0 0 383c-328,-320 -772,-500 -1311,-500 -1171,0 -1990,953 -1990,2123zm5619 1998l1382 0 0 -5755 -1382 0 0 5755zm-17483 3997c414,0 671,188 671,188l469 -945c0,0 -453,-374 -1343,-374 -1163,0 -2217,952 -2217,2130 0,1171 1062,2108 2217,2108 890,0 1343,-359 1343,-359l-469 -960c0,0 -257,187 -671,187 -523,0 -952,-437 -952,-991 0,-547 429,-984 952,-984zm2841 992c0,-555 414,-945 937,-945 515,0 928,390 928,945 0,546 -390,936 -928,936 -562,0 -937,-390 -937,-936zm-1467 0c0,1170 819,2115 1990,2115 546,0 1015,-242 1311,-570l16 0 0 453 1366 0 0 -4004 -1382 0 0 382c-328,-320 -772,-499 -1311,-499 -1171,0 -1990,952 -1990,2123zm8835 -8c0,554 -414,944 -937,944 -515,0 -928,-390 -928,-944 0,-547 390,-937 928,-937 562,0 937,390 937,937zm1467 0c0,-1171 -819,-2115 -1990,-2115 -546,0 -1015,242 -1311,569l-16 0 0 -452 -1366 0 0 6033 1382 0 0 -2412c328,320 773,500 1311,500 1171,0 1990,-952 1990,-2123zm648 -1998l1382 0 0 4004 -1382 0 0 -4004zm710 -2474c-452,0 -819,366 -819,819 0,453 367,820 819,820 453,0 820,-367 820,-820 0,-453 -367,-819 -820,-819zm1881 2474l-577 0 0 1053 577 0 0 1538c0,710 266,1530 1366,1530 570,0 1015,-250 1015,-250l-343 -1116c0,0 -164,125 -344,125 -218,0 -312,-180 -312,-554l0 -1273 843 0 0 -1053 -843 0 0 -1491 -1382 0 0 1491zm4012 2006c0,-555 414,-945 937,-945 515,0 929,390 929,945 0,546 -391,936 -929,936 -562,0 -937,-390 -937,-936zm-1467 0c0,1170 819,2115 1990,2115 547,0 1015,-242 1311,-570l16 0 0 453 1366 0 0 -4004 -1382 0 0 382c-327,-320 -772,-499 -1311,-499 -1171,0 -1990,952 -1990,2123zm5620 1990l1381 0 0 -5753 -1381 0 0 5753z"/>
  </g>
 </g>
</svg>
