<?xml version="1.0" encoding="UTF-8" standalone="no"?>
<!-- Created with Inkscape (http://www.inkscape.org/) -->

<svg
   xmlns:svg="http://www.w3.org/2000/svg"
   xmlns="http://www.w3.org/2000/svg"
   xmlns:xlink="http://www.w3.org/1999/xlink"
   version="1.0"
   width="106.99"
   height="66.040001"
   id="svg5098">
  <defs
     id="defs5100">
    <linearGradient
       id="linearGradient5245">
      <stop
         id="stop5247"
         style="stop-color:#2dc5fb;stop-opacity:1"
         offset="0" />
      <stop
         id="stop5249"
         style="stop-color:#0040c0;stop-opacity:1"
         offset="1" />
    </linearGradient>
    <linearGradient
       x1="582.4375"
       y1="395.65729"
       x2="476.44815"
       y2="330.61511"
       id="linearGradient2838"
       xlink:href="#linearGradient5245"
       gradientUnits="userSpaceOnUse"
       gradientTransform="translate(-475.94308,-330.11004)" />
  </defs>
  <g
     transform="translate(-187.00532,-391.26966)"
     id="layer1">
    <path
       d="m 12.59375,0.5 c -0.81308,0 -5.0625,0.04541 -5.0625,3.03125 L 7.5,10.5625 c 0,0.64775 -0.35356,1 -1,1 0,0 -2.94225,0 -2.96875,0 -0.98057,0 -3.03125,0.97612 -3.03125,5.09375 0,4.10201 2.01281,4.875 3,4.875 0.351,0 3,0 3,0 0.50276,0.01783 0.997,0.56811 1,1.03125 l 0,4.21875 c 0,0 -0.03125,13.1631 -0.03125,13.1875 0,3.06183 3.13141,13.5625 13.28125,13.5625 l 2.46875,0 c 4.65799,0 8.27425,-4.39542 8.28125,-6 0.02114,0.02193 0.0625,0.02047 0.0625,-0.46875 0,-0.65229 -0.20383,-2.45424 -2.21875,-3.28125 -0.13869,-0.0569 -0.58595,-0.34574 -1.65625,0 -1.06028,0.3425 -2.32473,0.75 -3.96875,0.75 -0.10117,0 -2.2776,-0.03031 -2.3125,-0.03125 -1.68972,-0.04529 -3.9073,-2.52124 -4,-5.5625 -0.0013,-0.04151 0.125,-16.40625 0.125,-16.40625 -0.0025,-0.4781 0.28374,-0.98285 1,-0.96875 l 5.03125,0 c 0.94049,0 3,-1.00511 3,-5 0,-3.97926 -2.06909,-5.03125 -3.0625,-5.03125 -0.77509,0 -5.03125,0.03125 -5.03125,0.03125 -0.58033,0 -1,-0.19823 -1,-1 0,0 0,-6.53216 0,-7.125 0,-3.16878 -4.03983,-2.9375 -4.875,-2.9375 z m 71.9375,11.03125 c -10.32121,0.0697 -19,12.96876 -19,25.5 0,0.20778 1e-5,1.47174 0,1.59375 0,13.64336 7.32682,26.86207 23.1875,26.90625 1.15028,0.003 1.16483,-0.002 0.9375,0 8.25538,-0.18838 15.90625,-4.48069 15.90625,-9 0,-2.5157 -1.51901,-3.78125 -2.84375,-3.78125 -3.86004,0 -4.97726,3.78125 -11.71875,3.78125 -7.98151,0 -14.46876,-6.49581 -14.46875,-11 l 0,-3 c 0,-0.54525 0.43781,-0.99999 1,-1 0,0 21.80114,-0.03125 22,-0.03125 4.01901,0 6.96876,-1.9586 6.96875,-5.96875 l 0,-3.0625 c 0,-8.46199 -6.73933,-20.9375 -18.3125,-20.9375 -0.20301,0 -3.64674,-7e-5 -3.65625,0 z M 34.5625,11.5625 c -3.64145,0 -5.03125,1.58711 -5.03125,3.625 0,2.41514 2.19051,7.56194 5,14.75 3.78853,9.69293 6.49179,18.44719 7.96875,20.4375 1.00861,1.66022 2.5113,3.09375 5.5,3.09375 3.11476,0 4.49488,-1.49846 5.5,-3.0625 1.58325,-2.02752 13.03125,-32.73772 13.03125,-35.21875 0,-1.61004 -1.5595,-3.625 -5.03125,-3.625 -0.62342,0 -0.86836,0 -0.9375,0 -2.03193,0 -3.6015,2.00781 -4.03125,3.0625 -0.0504,0.10082 -8.5,22.5 -8.5,22.5 L 47.25,35.09375 39.4375,14.65625 c -0.57836,-1.61711 -1.93513,-3.09375 -3.96875,-3.09375 -0.26544,0 -0.49213,0 -0.90625,0 z m 53,7.96875 c 5.16162,0 8.09375,5.63137 7.9375,9.0625 -0.0299,0.77121 0,3.03125 0,3.03125 0,0.48848 -0.42429,0.90625 -1,0.90625 l -16.9375,0 c -0.52932,0 -1.0625,-0.48826 -1.0625,-1 l 0,-1.0625 c 0,-6.00122 4.74509,-10.90625 9.09375,-10.90625 0.76324,0 0.91703,-0.03125 1.96875,-0.03125 z"
       transform="translate(187.00532,391.26966)"
       id="path5073"
       style="fill:url(#linearGradient2838);fill-opacity:1;fill-rule:evenodd;stroke:#000000;stroke-width:0;stroke-linecap:butt;stroke-linejoin:miter;stroke-miterlimit:4;stroke-opacity:0;stroke-dasharray:none" />
  </g>
</svg>
