<?xml version="1.0" encoding="UTF-8" standalone="no"?>
<!-- Created with Inkscape (http://www.inkscape.org/) -->

<svg
   xmlns:dc="http://purl.org/dc/elements/1.1/"
   xmlns:cc="http://creativecommons.org/ns#"
   xmlns:rdf="http://www.w3.org/1999/02/22-rdf-syntax-ns#"
   xmlns:svg="http://www.w3.org/2000/svg"
   xmlns="http://www.w3.org/2000/svg"
   version="1.1"
   width="74"
   height="91"
   id="svg2"
   xml:space="preserve"><metadata
     id="metadata8"><rdf:RDF><cc:Work
         rdf:about=""><dc:format>image/svg+xml</dc:format><dc:type
           rdf:resource="http://purl.org/dc/dcmitype/StillImage" /><dc:title></dc:title></cc:Work></rdf:RDF></metadata><defs
     id="defs6"><clipPath
       id="clipPath26"><path
         d="M 0,792 612,792 612,0 0,0 0,792 z"
         id="path28" /></clipPath><clipPath
       id="clipPath26-4"><path
         d="M 0,792 612,792 612,0 0,0 0,792 z"
         id="path28-0" /></clipPath></defs><g
     transform="matrix(1.25,0,0,-1.25,0,91.0016)"
     id="g10"><g
       transform="translate(290.5557,408.8091)"
       id="g12" /><g
       transform="translate(327.4551,408.8091)"
       id="g18" /><g
       transform="matrix(0.99627755,0,0,0.9966591,-377.823,-358.22043)"
       id="g22"><g
         clip-path="url(#clipPath26-4)"
         id="g24"><g
           transform="translate(302.2344,411.6362)"
           id="g30" /><g
           transform="translate(410.8643,378.0977)"
           id="g34" /><g
           transform="translate(438.627,378.0977)"
           id="g40" /><g
           transform="translate(419.6523,380.2246)"
           id="g44" /><g
           transform="translate(242.3086,397.6709)"
           id="g48" /><g
           transform="translate(214.5117,408.8047)"
           id="g52" /><g
           transform="translate(204.416,399.6973)"
           id="g56" /><g
           transform="translate(432.0762,408.665)"
           id="g60" /><g
           transform="translate(413.0684,416.2793)"
           id="g64" /><g
           transform="translate(406.166,410.0508)"
           id="g68"><g
             id="g3070"><path
               d="m 0,0 -1.735,-11.53 -0.14,0 -1.959,11.53 -4.674,0 -2.014,-11.502 -0.141,0 -2.211,11.502 -18.753,0 0,-4.199 4.954,0 0,-14.412 4.785,0 0,14.412 5.091,0 3.056,-14.412 5.121,0 2.323,9.823 0.112,0 2.239,-9.823 5.037,0 L 4.813,0 0,0 z"
               transform="translate(4.698296,-31.953104)"
               id="path36"
               style="fill:#231f20;fill-opacity:1;fill-rule:nonzero;stroke:none" /><path
               d="m 417.301,373.898 4.702,0 0,-14.412 -4.702,0 0,14.412 z"
               transform="translate(-406.166,-410.0508)"
               id="path38"
               style="fill:#231f20;fill-opacity:1;fill-rule:nonzero;stroke:none" /><path
               d="m 0,0 0,-4.199 -5.15,0 0,-14.412 -4.786,0 0,14.412 -4.953,0 0,4.199 L 0,0 z"
               transform="translate(32.461,-31.953104)"
               id="path42"
               style="fill:#231f20;fill-opacity:1;fill-rule:nonzero;stroke:none" /><path
               d="m 0,0 c 1.483,0 2.49,-1.035 2.49,-2.323 0,-1.343 -1.007,-2.323 -2.49,-2.323 -1.539,0 -2.49,0.98 -2.49,2.323 C -2.49,-1.035 -1.539,0 0,0"
               transform="translate(13.486304,-29.8262)"
               id="path46"
               style="fill:#dd2127;fill-opacity:1;fill-rule:nonzero;stroke:none" /><path
               d="m 0,0 c 0,13.132 -10.645,23.776 -23.775,23.776 -13.131,0 -23.776,-10.644 -23.776,-23.776 0,-13.131 10.645,-23.776 23.776,-23.776 C -10.645,-23.776 0,-13.131 0,0"
               transform="translate(25.9102,-1.3858)"
               id="path62"
               style="fill:#34aad2;fill-opacity:1;fill-rule:nonzero;stroke:none" /><path
               d="m 0,0 c -1.178,0 -2.137,-0.959 -2.137,-2.137 0,-1.179 0.959,-2.14 2.137,-2.14 1.182,0 2.139,0.961 2.139,2.14 C 2.139,-0.959 1.182,0 0,0"
               transform="translate(6.9024,6.228496)"
               id="path66"
               style="fill:#dd1f25;fill-opacity:1;fill-rule:nonzero;stroke:none" /><path
               d="m 0,0 0,5.814 -4.275,0 0,-5.814 -6.959,0 c 1.187,6.496 6.865,11.426 13.703,11.426 6.84,0 12.517,-4.93 13.705,-11.426 L 0,0 z m 20.766,-2.519 c 0,10.107 -8.192,18.298 -18.297,18.298 -10.104,0 -18.297,-8.191 -18.297,-18.298 0,-0.592 0.033,-1.177 0.088,-1.756 l 11.465,0 0,-10.272 4.275,0 0,10.272 4.766,0 0,-10.272 4.275,0 0,10.272 11.637,0 c 0.054,0.579 0.088,1.164 0.088,1.756"
               id="path70"
               style="fill:#221f1f;fill-opacity:1;fill-rule:nonzero;stroke:none" /></g></g></g></g></g></svg>